<?xml version="1.0" encoding="utf-8"?>
<!-- Generator: Adobe Illustrator 22.0.1, SVG Export Plug-In . SVG Version: 6.00 Build 0)  -->
<svg version="1.1" id="Lag_1" xmlns="http://www.w3.org/2000/svg" xmlns:xlink="http://www.w3.org/1999/xlink" x="0px" y="0px"
	 viewBox="0 0 1920 1080" style="enable-background:new 0 0 1920 1080;" xml:space="preserve">
<g id="qy910W_1_">
	<g>
		<g>
			<path d="M678,412.2c3.7-5.9,5-12.6,5.7-19.3c0.7-6.1,5-11.1,4.8-17.4c-0.2-5.9,3.3-11,4.6-16.6c1.1-4.6,0.4-8.7-1.7-12.4
				c-3-5.2-2.9-10.5-2.2-16c0.7-5.4,1.7-10.9,3-16.2c0.6-2.7-0.2-3.7-2.6-4.1c-8.1-1.1-16.1-2.4-24.2-3.3c-4.5-0.5-8.2,2.2-9.6,5.8
				c-4.7,12.6-8.1,25.7-12.9,38.2c-2.4,6.2,2.8,8.7,4.6,12.7c0.6,1.4,0.9,1.7,0.3,3.4c-6.6,19.5-14,38.8-15,59.7
				c-0.2,3.4,0.2,6.7-2.3,9.8c-1.8,2.1,1.1,5.4-0.3,8.5c-3.1-2-3.2-5-3.3-7.9c-0.5-11.6,1.6-22.9,4.8-34c3.1-10.5,6.4-21,9.6-31.5
				c0.7-2.4,2.7-5.4-2.3-6.1c-1.7-0.3-1.3-2.8-1-4.4c3-15.8,6.2-31.6,12.4-46.6c1.3-3.1,3.6-5.7,2.8-9.7c-0.5-2.6,7.3-5.4,9.2-3.2
				c1.6,1.9,3.4,2.1,5.2,2.2c8,0.1,15.8,1.9,23.7,3.2c3.6,0.6,9.1-5.8,7.8-9.2c-0.2-0.6-0.7-1.2-1.2-1.4c-1-0.3-1.4,0.4-1.8,1.3
				c-0.4,0.9-0.7,1.9-1.2,2.7c-0.7,1.1-1.7,2.5-3.1,1.4c-1.4-1-1.3-2.4,0-3.8c3.4-3.6,7.8-6,11.5-9.2c3.2-2.8,5.1-7.2,7.5-11
				c1.4-2.3,2.5-4.6,6-4c1.5,0.2,3.1-1.1,1.6-3.3c-3.2-4.7-4-10.6-7.3-15.2c-0.5-0.7-0.8-1.6,0.1-2.1c0.9-0.5,1.5,0,1.9,0.9
				c1.1,2.7,2.2,5.5,3.8,8.1c-0.6-3.3-1.2-6.5-0.2-9.8c0.8-2.6,0.7-5.7,4.4-6.6c1.9-0.4,1-2.2,0.9-3.4c-1.2-11.3-1.5-22.6,2.7-33.5
				c0.8-2,0.7-2.6-1.5-3.5c-11.6-4.9-12.2-4.9-15.9,7.3c-3.2,10.2-2.2,20.4,2,30.2c0.7,1.7,2.2,3.6,0.3,4.9c-1.9,1.4-3.3-0.9-4.3-2
				c-5.6-6.4-6.2-14.1-5.4-22.1c0.3-2.9,1-5.9,1.8-10c-1,1.8-1.3,2.4-1.7,3c-2.9,4.2-5.3,7.6-4.7,14c0.6,5.8-0.9,13.2-5.6,18.6
				c-2.1,2.4-3.4,5.7-5.8,7.4c-4.6,3.3-3.2,7.8-3.2,12c0,0.7,0,3.6,2.1,0.9c0.5-0.7,1.6-1.1,2.1-0.4c0.4,0.5,0.2,1.5,0.2,2.3
				c0,5.5,0.6,10.9,3,15.9c0.8,1.7-0.8,4,1.7,5.3c0.6,0.3-0.9,2.2-1.5,2c-2.8-0.7-7.2-1.5-7.6-3.5c-0.7-4-3.3-7.8-1.6-12.4
				c1-2.7,0-5.8-3.6-6.7c-1.5-0.4-2.1-1.2-1.3-2.5c2.6-4.3,3-9.6,7.2-13.4c4.2-3.7,7.2-8.9,8.8-14.3c0.9-2.9,3.5-6.6-1.3-9.6
				c-1.9-1.2-0.7-4.4,0.4-6.9c3.1-7.6,8.7-13.3,13.9-19.3c1.6-1.9,3.3-3.8,4.7-5.8c1.8-2.8,2.8-5.7,0.5-8.8c-1-1.3-1.5-3-0.3-4.1
				c4.4-3.9,3.7-9.6,4.1-14.4c0.7-7.1,4.5-11.7,9.6-14.7c6.9-4.1,14.9-4.4,22.6-1.7c1,0.3,2.4,0.7,1.8,2.7
				c-3.8,0.1-7.5-1.7-11.5-1.2c-7.6,1-14.5,2.8-17.6,11c-0.8,2.1-0.9,4.2-0.7,6.3c0.4,3.5,0.1,6.9-1.8,10.1c-1.6,2.6,0.6,6-0.8,8.8
				c-0.1,0.1,0.1,0.5,0.1,0.5c5.1-1.1,3.8,5.4,7.7,6.4c3,0.8,4.7,0.2,6.4-1.9c6.8-8.9,12.8-18.2,14.5-29.6c0.3-2.3,0.8-3.9,3.7-5
				c3.3-1.3,4.2-5.4,5.4-8.6c2.9-7.7,4.4-15.7,4.2-24c-0.2-6.3,1.7-9.4,5.2-9.2c4.2,0.3,8.5,5.7,7.9,10.5
				c-1.5,11.8-1.2,23.9-4.7,35.5c-0.5,1.7-0.4,3.6-0.5,5.4c4.2,0.7,6.5-2,9.2-4.1c9.1-7,18.6-13.4,29.5-17.4
				c3.6-1.3,7.2-2.4,10.9,0.3c-11.6,2-21.5,7.6-30.6,14.4c-7.3,5.5-13.2,12.5-17.9,20.5c-1.7,2.9,2.1,3.8,1,6.8
				c5.4-5.4,9.2-11.1,14.2-15.8c3-2.8,11.9-11.4,15.8-12.6c0.4-0.1,0.9,0.2,1.5,0.4c-3,3.9-7.7,5.7-11.2,10.7
				c5.5-2.5,10.3-3.9,14-6.8c2.5-1.9,5.6-1.5,7.9-3.5c0.3-0.3,1.2,0.1,1.8,0.1c-2,1.9,1.3,3.2,0.3,5.5c-3.4,7.7-3,15.7-1.3,23.8
				c0.6,2.7,0.2,5.6,0.1,8.4c-0.1,3.7,1.5,6.5,3.9,9.4c2.4,2.7,4.5,5.2,8.1,6.6c4.2,1.6,6.1,1.5,6.6-2.9c1.4-10.4,4.7-20.5,4-31.1
				c0-0.4,0.4-0.8,1.2-2.2c2.1,6.4,1.2,12.1,0.8,17.7c-0.5,6.8-3.7,13-5.1,19.7c-0.5,2.4-2,3.8-5.2,2.9
				c-8.2-2.6-20.2-12.3-18.5-22.6c0.7-4,0.8-9.1-1.1-12.2c-2.9-4.8-0.8-8.6-0.2-12.8c0.4-3-1.1-2.2-2.9-1.5
				c-8.5,3.2-14.3,9.8-20.4,16c-1.1,1.2-1.7,3.6-4.2,2.4c-0.8-0.4-1.4,0.4-1.1,1c0.6,1.7,1.1,3.8,2.4,4.8c4.1,3.2,7.5,7,10.1,11.4
				c4.5,7.6,7.2,15.9,7.9,26.3c-3.2-5-3.8-9.8-6.2-13.8c-2.3-4-3.8-8.5-5.9-12.6c-2.7-5.2-5.1-6.1-10.9-4.9c-1.4,0.3-3.1,0-4.4-0.7
				c-6.2-3.2-13-1.8-19.5-2.6c-1.5-0.2-2.5,0.4-3.3,1.6c-7.9,11.5-12.3,24.2-12.5,38.3c-0.1,3.4,0.7,6.6,2.8,9.4
				c0.4,0.5,0.5,1.3,1,1.7c3.6,2.6,3.6,2.6,3.9,8c-5.8-6.6-9.3-13.3-13.6-19.8c-3,5.1,1.4,7,4.1,10.1c-2,0.4-3.5,0.8-5,0.9
				c-4.9,0.3-6.2,1.9-4.5,6.5c1.9,5,4.6,8.8,10.9,8.2c2.6-0.2,5.2,0.3,4.6,4.1c-1.4,0.2-1.7-1.3-2.7-1.7c-2.7-1-5.5-2.2-8.1-0.4
				c-2.2,1.6-0.5,4.1-0.1,6c0.7,3,0,6.5,3.6,8.8c1.7,1.1,0,3.7-0.7,5.5c-0.7,1.9-1.2,4,1.3,4.3c3.1,0.3,4.9,2.8,7.5,3.6
				c1.9,0.6,3.4,4.5,6.1,1.1c0.1-0.1,0.7,0,0.8,0.2c3.3,6.5,10.5,6.3,15.8,9.3c0.1,0.1,0.1,0.3,0.3,0.8c-3.6,0.8-6.7-0.4-9.8-1.5
				c-5.2-1.9-10.3-3.9-14.9-6.9c-3.9-2.6-4.8-2.1-5.1,2.8c-0.5,8.5,0.2,16.9,1.5,25.3c1.8,12.2,6.3,23.6,9.6,35.4
				c4.4,15.6,15.8,25,27.7,34.2c0.5,0.4,1.1,0.5,2,0.5c-7.7-7-14.6-14.5-18.6-24.5c1.8,2.1,3.6,4.2,5.4,6.2
				c-2.1-6.8-3.2-13.7-5.8-20c-1.2-2.9-2.4-4.5-1-7.6c0.7-1.5,0.1-4.3-0.9-5.7c-2.5-3.3-3.9-6.4-2.7-10.5c0.3-1.3-0.7-1.4-1.8-1.7
				c-4.2-1-5.7-4.1-3.3-7.9c1.8-2.8,2.9-5.5,3.2-8.7c0.3-2.7,5.7-6.1,8.5-5.6c1.7,0.3,1.6,1.6,0.7,2.6c-1,1.3-2.4,2.3-3.5,3.5
				c-1.8,1.9-2.7,3.5-0.1,5.8c3,2.7,1.7,6.6,1.1,9.9c-0.7,3.8-0.9,7.1,2.3,10c2.2,2,1.6,5,1.2,7.6c-0.4,2.7-1.3,6.7,0.1,7.7
				c5.1,3.8,1.9,9.8,4.2,13.1c1.6,2.3,1.4,6.4,5.6,7.8c3.7,1.3,3.5,6.2,4.2,9.6c0.7,3.6,2.6,5.9,5.1,8.1c2.5,2.2,4.8,4.6,5.5,7.9
				c1.9,0.1,2-1.2,2.3-2.3c3.2-13.3,4.9-26.7,5-40.5c0.1-5.3,2.5-11.1,3.1-16.9c1-9.8,1.6-19.6-0.2-29.4c-0.4-2.3-1.1-3.7-3.5-4
				c-3.4-0.5-2.2,3.1-3.8,4.3c-2,1.6-0.2,2.3,1,3.2c2.6,1.7,2.1,3.8,0.6,6c-1.3,2-1.9,3.4,0.8,5.2c2.6,1.7,1.5,4.4,0.1,6.7
				c-0.6,1-1.2,2.4-2.5,2c-1.5-0.5-0.9-1.9-0.5-2.9c0.6-1.5,1.2-2.7-1.1-3.4c-4.4-1.3-4.2-4.1-2-7.3c1.7-2.4,2.4-3.9-1.6-4.4
				c-2.9-0.4-3.6-2.2-1.3-4.5c0.8-0.8,1.6-1.7,2.4-2.5c0.8-0.8,2.2-1.3,1.9-2.7c-0.3-1.6-1.8-1-2.9-1c-0.9,0-1.7-0.1-2.2-0.9
				c-1.6-3.1-2.3-1.6-3.2,0.5c-0.5,1.1-1.7,1.7-2.9,1c-0.7-0.4-0.6-1.1-0.2-1.7c3.4-5.2-2.6-4-4.1-5.8c-0.7-0.8-2.6-0.4-3.7-1
				c-1-0.5-0.4-2.5-0.3-2.4c4.8,2.6,4.8-5.1,9.3-3.5c0.8,1.5,0.3,3.4-0.9,6.3c4.2-3,6.5-1.9,8.2,2.1c1.2,2.8,3.5,4.2,6.6,1.4
				c1.3-1.2,3.2-1.8,4.9-2.3c1.3-0.4,2.8-1.9,4.1-0.4c1.9,2.1-2.2,2.1-1.5,4.2c10.9,0.5,21.7,2.7,32.6,4.6c-1.6,1.7-4,0.4-4.9,1.4
				c-5.6,5.8-10.3-2.6-15.5-0.2c0.5,1.8,3.4,1.4,4.3,3.8c-4.2-0.2-6.4-4-11-5.8c2.6,4.2,5.9,5.5,8.9,7.2c4.5,2.5,9.1,4.8,13.1,8.1
				c2.7,2.3,3.7,4.2,0.7,6.9c-0.3-0.1-0.8-0.1-0.9-0.3c-2.5-3.1-5-5.4-9.4-6.6c-5.1-1.4-8.8-6.2-13.8-9.9c-0.4,4.8-1.2,9-1.1,13.2
				c0.2,10.4,0.3,20.9-2.2,30.8c-3.4,13.7-1.6,28.3-7.5,41.5c-0.7,1.6-1,3.4,1.6,3.6c8.4,0.7,16.3,4,24.7,4.5
				c1.8,0.1,3.7,0.1,5.5-0.2c3.7-0.6,7.7-2,5.8,4.5c-0.3,0.9-0.4,2.5,1.6,2.1c1.7-0.3,3.2,0.5,3,2.3c-0.3,2.1-2.3,1.4-3.7,1.6
				c-11.1,1-22.2,1.9-33.3,2.8c-1.9,0.2-3.5,0.1-3.7,2.8c-1.1,13.7-5.2,26.8-7.3,40.2c-2,12.6-3.1,25.4-6,37.9
				c-1.3,5.6-3.4,10.9-3.7,16.8c-0.9,14.8-1.9,29.6-3.8,44.3c-0.4,2.8-0.7,5.7-1.6,8.3c-1.6,4.5,0.5,5.3,4.2,4.7
				c11-1.8,22-2.9,33.1-4c1.8-0.2,3.8-0.8,4.2-2.9c1.4-7.3,2.8-14.7,4-22c0.3-1.9,1-4.4-2.6-4.4c-1.3,0-1.5-2-1.9-3.3
				c-2.7-9.4-7.8-17.6-13.1-25.7c-2-3.1-4-6.2-5-9.7c-0.7-2.4-0.4-4.6,0.7-6.8c0.3-0.6,0.8-1.2,1.5-0.9c0.5,0.3,1.2,1.1,1.1,1.5
				c-2.1,6.7,2.1,11.3,5.8,15.6c5.2,6.1,8.3,13.1,11,20.4c0.4,1.1,0.3,2.7,2.7,3.7c-0.5-5.5-1-10.6-1.5-15.7
				c-0.3-2.8-0.9-5.6-0.5-8.4c0.4-2.7-0.7-4.4-2.6-6.7c-6-7.3-12-14.8-9.4-25.7c1.3-5.5,2.1-11.4-0.3-17.1c-0.2-0.5,0.3-1.8,0.8-2.2
				c7.3-5.1,6.6-13.1,7.6-20.5c0.7-5.4,1.6-10.9,2.1-16.3c0.2-1.9,1-3,2.5-4c1.1-0.7,2.1-0.9,2.1,0.5c-0.1,5.2,4.7,4.4,6.5,3.7
				c4.8-1.8,9.5,0,14.2-0.4c2.6-0.2,7.2,3.7,7.7,7.8c1.1,9.8,3.5,19.7,1.7,29.6c-1.7,9.3-5.3,18.1-15.6,21c-4.2,1.2-7.8,2-9,6.7
				c0,0.2-0.1,0.4-0.2,0.4c-5.5,1.3-3.8,5.8-3.3,8.8c1.5,9-3,17.7-1,26.8c0.9,3.8,0,7.8,2.6,11.3c1.4,1.9-0.1,4.2-0.5,6.2
				c-1.6,9.3-3.4,18.6-3.9,28.1c-0.1,1.5-1.1,3.1-1.9,4.5c-7.2,12.9-7.2,27.4-9,41.4c-1.4,11.1-4.1,21.6-8.1,32.1
				c-2.9,7.6-3.1,16.3-5.1,24.3c-3,12-0.8,24.6-3.9,36.5c-0.9,3.7-1.7,7.4-2.7,11.1c-0.4,1.8-1.5,3.1,0,5.4c0.9,1.4,0.5,4.6-3,6.6
				c-3,1.7-3.8,6.8-4.3,11c-2.8,26.7-4.5,53.4-3.9,80.3c0.2,7.4,1.7,15.1,4.3,22.3c1.7,4.6,2.8,9.5,3.4,14.7
				c-5.9-2.3-3.7-8.3-6.2-11.9c-2.4,7.7-0.7,14.4,4.4,20.3c3.9,4.5,9.6,7.4,11.5,13.5c0.2,0.8,0.7,1.5-0.3,2.8
				c-6.4-7.6-14.8-13.2-19.8-22c-0.9-1.5-0.9-3.2-0.4-4.9c1.7-6.1,0.7-12.2,0.3-18.3c-0.2-3-1.6-3.7-4.3-2.4
				c-3.6,1.8-7.5,2.5-11.5,2.9c-5,0.5-8.8,5.1-14.4,4.5c-0.9-0.1-0.7,1.7-0.6,2.6c0.8,13.1,0,25.9-5.1,38.3
				c-0.8,1.9-0.2,4.3-0.4,6.4c-0.2,2.1,0.8,2.8,2.7,3.4c4.1,1.5,8.3,1.5,12.3,1c4.5-0.5,7.2,1.3,9,4.9c0.7,1.4,1.6,1.8,3,2.1
				c7.9,1.7,15.9,3.6,23.8,5.3c9.2,2,18.2,1,26.8-2.9c3.4-1.5,3.7-3.9,0.6-6.1c-3.8-2.8-7.9-4.8-12.9-4c-4.7,0.8-7.9-2-11-4.8
				c-0.7-0.6-1.4-1.6-0.8-2.6c0.8-1.3,1.7,0,2.5,0c2.6,0.1,5.3,0.2,7.9-0.1c3.6-0.4,6.5,0.9,9.2,3c2.5,2,4.6,4.3,7.7,5.4
				c1.7,0.6,2,2.5,2.3,4.1c0.4,2.4,0.7,4.7,3.6,6c2.4,1,1.6,3,0,4.4c-2.3,2-6.4,2.5-7.7,1.6c-3-2.2-5.4-1-8-0.3
				c-9.9,2.6-19.5,1-29.1-1.4c-3.5-0.9-7.1-1.8-10.9-2.2c1.4,1,2.8,2,5,3.5c-5.2-0.2-9.6-1.5-12.9-3.6c-6.7-4.2-13.3-3.1-20.2-1.6
				c-7.5,1.6-15.2,0.7-22.8,2.1c-3.2,0.6-4.1-4.1-8-4.1c0,3,0,6.3,0,9.5c-0.1,5.2-6.3,10.3-11.1,8.6c-3.1-1.1-6-1.1-8.8-0.3
				c-8.2,2.3-16.7,2.1-25,2.5c-5,0.2-8.2-2.8-9.7-7.2c-1.2-3.2-1.8-6.8-2-10.2c-0.2-2.7-0.8-3.9-3.7-3.6c-12.2,1-24.3-0.9-36.4-0.7
				c-2.7,0-6.1-1.4-8,2.2c-6.5-1.9-12.9,0.8-19.3,0.3c-1.8-0.1-4.2-2.3-3.5-4.7c0.8-2.8,3.2-1.8,5.4-1.4c5.9,1,11.6,1.8,17.8,0.8
				c6.7-1.1,13.6-0.9,20.4,0.2c2.1,0.3,4.2,0.9,6.8,0.1c-3.5-1.4-6.7-1.7-10-1.7c-1.2,0-2.4,0.2-3.5,0c-1.9-0.4-4.9-0.4-4.8-2.6
				c0.3-3.1,3.2-1.2,4.9-1.1c6.8,0.2,13.9,1.7,20.4,0.4c6.1-1.2,12.3,0.2,18.2-1.9c1.2-0.4,3-0.8,3.5-1.7
				c3.8-7.7,10.6-13.8,10.7-23.5c0.1-9.3,1.4-18.6,2.8-27.8c0.7-4.7,4.5-3.3,5.8-3.2c2.4,0.2,0.7,2.7,0.3,4.3
				c-2.9,10.4-4.6,21-6.4,31.6c0,0.2-0.1,0.3-0.1,0.5c1.8,6.4-1.7,10.7-5.4,15.1c-2.1,2.5-1.1,4.2,1.9,4.7c2.4,0.4,4.9,0.4,8.5,0.6
				c-3.2-2.8-5.4-4.9-2.1-7.9c2.6-2.3,6.1-1.6,7,0.2c1.2,2.5,1.9,6.5-2.2,8.9c2.3,1.4,3.9,3.3,7.1,1.8c2.2-1,4.1,0.3,4.6,3.5
				c-4.3-0.3-8.4,1.3-12.8-1.1c-2.6-1.4-6,0.8-8.8,2.4c-2.2,1.3-4.5,2.2-5.1-1.5c-0.2-1.5-0.9-1.5-2-1.4c-1.1,0.2-2.3,0.8-1.8,1.9
				c1.3,2.9-0.9,2.4-2.3,2.8c-3.6,1.1-5.7,3-4.4,7.3c0.8,2.7,0.7,5.7,2.6,7.9c1.8,2,3.7,5.2,6.2,0.6c0.4-0.7,0.8-1.3,1.9-0.5
				c8.3,5.9,16.6,0.6,24.8-0.5c2.3-0.3,4.2-1.4,6.2,0.7c0.9,0.9,2.6,1.4,3.6,0.1c1.3-1.9-1.4-0.9-1.7-1.9c-0.5-1.7-0.9-3,0.7-4.5
				c2.5-2.3,2.9-5.5,2.7-8.7c-0.2-3.2-1.3-4-4.4-0.3c0.4-4,0.1-7,1.2-9.3c3.1-6.7,3-13.9,4.4-20.9c0.3-1.4,1.4-3.7-1.5-4.4
				c-1-0.2-0.9-1.3-0.7-2.2c2.1-7.5,0.6-15.3,1.1-22.9c0.1-1.9-0.1-4.9,2.1-4.9c2.6-0.1,2.8,2.6,2.8,4.9c0.2,15.3,1.2,30.6-2.6,45.7
				c-0.7,2.8-0.5,4.8,3.3,3.2c2.7-1.1,5.6-0.2,8.4,0c4.2,0.4,6.4-1.6,6.5-6.1c2,0.6,2.9,2.1,3.6,3.7c0.6,1.2,1.1,2.8,2.8,1.9
				c1.3-0.7,3.2-0.8,3.4-3.1c0.5-8.3,2.7-16.3,5.4-24.2c0.2-0.6,0.4-1.6,0.1-1.9c-4.8-5.2,0.8-10.4-0.1-15.6
				c-0.3-1.6,1.9-3.8-2.3-3.5c-3.2,0.2-3.5-3.8-3.4-6.2c0.2-7.3,0.8-14.6,1.4-21.9c0.6-6.4,2.7-12.6,2-19.2
				c-3.3-27.9-1.5-57,2.2-81.9c0.6-3.7,0.7-7.3-0.1-10.9c-1.3-6-0.6-11.9,0.6-17.8c2.2-11.4,3.8-22.9,2.8-35.5
				c-1.9,3.4-1.2,6.5-1.8,9.3c-1.2,5.6-2.8,11.1-4.7,16.5c-1.9,5.2-1.5,11-2.4,16.3c-1.2,7-3.8,14-6,21c-4.6,14.8-8.7,29.7-9.6,45.2
				c-0.3,5,2.1,9.4,1.9,14.5c-0.7,15.1-3.7,30-5.1,45c-0.8,9.1-6.2,12.9-14.3,14.6c-2.4,0.5-4.8,1.4-7.5,2.2
				c2.4,3.2,5.9,2.6,9.2,2.9c-4.7,4.6-11.2,5.1-16,1.5c1.9-1.6,3.7,1.8,5.9-0.5c-3.8-2.4-6.2-7.3-12.5-4.2c-2.6,1.3-3.1-2.2-3.4-4.3
				c-0.1-1.2,1-2.6,0.8-3.7c-3-18,1-36.1-1.5-54.4c-2.6-18.5,0.8-37.3,6.1-55.3c5-17.1,4.8-34.1,3.1-51.4c-0.8-8-0.5-16,0-24
				c0.2-2.9-0.7-3.4-3.1-3.4c-14.9,0.5-29.5-1.7-43.9-5.6c-5.4-1.4-11.3,0-16.8-2.1c-3.3-1.2-6.7-2.2-8.7-5.4c-0.6-1-1.1-2.4,0-3.2
				c1.1-0.8,1.7,0.5,2.4,1.2c4.2,3.9,9.6,4.3,14.9,4.5c4.5,0.2,8.9,0.6,13.3,1.9c17.2,5,34.9,5.3,52.5,4.5
				c5.9-0.3,11.4,0.2,17.1,1.4c2.1,0.4,3.9,0.2,5.4-1.5c0.7-0.7,1.9-0.7,2.6,0.2c0.6,0.7,0.5,1.6-0.1,2.3c-1.7,2-2.3,4.9-6.8,3.4
				c-5.2-1.8-11.1-1.9-16.8-1.7c-2.1,0.1-3,0.8-3,3c0,3.4-1.1,6.5-2.3,9.9c-2.8-3-0.4-6-0.6-8.8c-0.1-1.3,0.9-3.5-1.3-3.7
				c-2.4-0.3-1.8,2-1.8,3.3c-0.1,4.3-1.3,9.2,0.3,12.9c4.6,11.1,0.2,22.4,2,33.4c0.2,1.3-1,3.4,2.2,2.9c1.1-0.2,0,1.6-0.2,2.4
				c-3.3,13.9-6.6,27.7-10.1,41.5c-4,15.4-3.5,31-2.5,46.6c0.4,6.5,1.2,12.9,2,19.3c0.1,1,0.2,1.7-0.3,2.7
				c-3.1,5.9-2.5,12.4-1.6,18.5c0.6,4.1,5.2,6.4,8.9,6.4c3.6,0,7.2,0.4,10.7,0.1c1.7-0.1,2.7-1.1,4-1.9c10.2-6.4,9.4-17,10.6-26.8
				c1.3-10.1,0.7-20.2,0.6-30.3c-0.1-16,3-31.6,6-47.4c3-15.7,8.8-30.7,12.1-46.2c3.3-15.4,7.5-30.6,8.1-46.6c0.2-6,1.8-12,2.7-18
				c2.4,0.1,1.4,2.9,4,3.1c1.9-11.5,5-22.9,9.9-34.6c-4.7,0.4-8.3,2.7-12.2,3.8c-3.2,0.9-4.1,0.8-3.4-2.3c0.5-2.2-0.6-1.7-1.6-1.8
				c-2.2-0.2-4.6,0.5-7.4-1.7c1.5,18.2-3,35.2,0.3,52.4c0.5,2.4,0.3,5,0.3,7.5c0,0.9-7,8.5-7.8,8.6c-1.2,0.1-1.8-0.6-2.4-1.5
				c-0.6-0.9-1.1-3.3-1.2-6.1c2-0.6,2.1,1.9,3.6,2.2c3.8-3.3,4.1-7.9,3.7-12.2c-1.5-16.2,1.3-32.3,0.9-48.4c0-0.8,0.1-1.7,0.2-2.5
				c0.2-1.6-0.6-2.7-2-3c-2-0.5-1.8,1.4-2.1,2.5c-1.2,4.3-2.3,8.6-4.1,12.7c0.6-9.7,2.7-19.1,5.2-28.5c2.6-9.8,4.6-19.8,6.9-29.7
				c2.2-9.7,4.3-19.5,6-29.3c1.8-10,3.8-19.9,5.3-29.9c1.5-9.8,3.3-19.4,4.3-30c-5.4,4.1-9.8,5.8-16.5,4.5
				c-9.7-1.9-19.9-0.2-29.3,3.7c-0.6,0.2-1.3,0.6-1.6,1.2c-4.3,10-15.3,7-22.5,11.3c-1.8,1.1-4.8-0.1-4.3-3c0.7-4.1-2.2-5.9-4.6-7.3
				c-3.4-1.9-5.4-4.4-6.4-7.8c-0.5-2-0.8-2.7-3.2-1.9c-9.9,3.3-20.2,3.4-30.5,3.9c-2.9,0.1-5.6-0.3-8.3-1.3c-2.3-0.8-5-1.3-6.5,1.7
				c-0.9,1.6-1.8,2.8,0.9,4.2c4.6,2.5,6.6,8.4,5.5,13.6c-0.9,4.1-1.3,8.2-1.3,12.4c-0.4,25,0.2,50.1-2,74.9c-1,11-3.2,22.2-4.2,33.3
				c-1.1,11.6-1.6,23.2-4.3,34.5c-0.3,1.3,0.1,3.8-1.9,3.4c-2.2-0.3-1.4-2.6-1.3-4.2c0.1-1,0.4-2,0.5-2.9c2.9-29,5.2-58.1,7.1-87.3
				c1.4-22,0.5-44.3,4.2-66.1c0.4-2.5-0.4-4.3-2.7-5.8c-5.1-3.4-6.5-7.4-5.1-12.9c0.5-1.8,1.8-2.8,3.6-3c1.7-0.1,3.4-0.4,5,0
				c12.8,3.4,24.2-1.9,35.7-5.8c4.8-1.6,9.9-2.4,14.4-5.3c3.1-2,6.9,1.6,10.4-0.2c-0.2-1.4-1.4-1.4-2.4-1.8
				c-4.5-1.6-9.2-2.4-13.7-4.1c-3.6-1.3-7.9,0.1-10.9,3.3c-2.3,2.6-4.5,5.3-6.8,8c-0.7,0.8-1.6,1.3-2.6,0.8
				c-1.2-0.5-1.1-1.7-0.7-2.6c2.1-4.3,3-9.2,8.4-11.4c5.3-2.2,6.2-8.4,3.2-13.1c-1.9-3-5.2-6.5-3.1-9.8c2-3.3,6.4-2.5,10.2-2.1
				c3.9,0.4,7.9,0.4,11.9,0.5c2.1,0,4.4-0.1,4.2,2.7c-0.2,2.5-2.5,1.4-4,1.4c-5-0.2-10-0.4-14.9-0.6c-2.2-0.1-3.2,0.6-2.1,2.9
				c0.8,1.7,1.6,3.2,3.1,4.5c4.4,3.6,4.3,5.2-0.7,7.8c-1,0.5-1.4,1.3-1.4,2.4c0.9,0.8,1.9,0.5,2.8,0.2c7-1.8,13.1,0.5,18.8,4.3
				c9,6,10,5.6,12.1-4.4c0.2-1,0.4-2,0.5-2.9c0.5-4.3,0.9-8.6,0.8-13c-3.7,6.5-4.7,14.3-9.8,21c-0.8-3.4,1.4-7.6-3.4-8.4
				c0.1-0.6,0.1-1.5,0.5-1.8c2.1-1.7,2-4.4,3.3-6.5c1.3,1,0.4,2.6,1.2,3.9c1.3-2.2,2.1-4.4,2.5-6.8L678,412.2z M764.3,839.7
				c-2-3-1.4-6.2-1.6-9.2c-1.4-32.4,2.1-63,10.8-95.7c1.9-7.2,3.7-14.4,5.1-21.7c1-5.2,2.6-11.1,1.1-15.7c-1.3-4.1-1.9-7.8-0.9-11.5
				c4.2-14.7,7.2-29.7,11-44.5c4.8-18.9,7.8-38.1,10.5-57.4c0.2-1.1,1.6-3.7-1.1-3.3c-6.7,1-13.6,0.8-20.2,3
				c1.2,0.4,2.3,0.7,3.5,0.7c3-0.1,6-0.4,9-0.5c1.9-0.1,2.8,0.8,2.5,2.7c-0.1,1.1-0.7,0.9-1.7,0.9c-9.1,0.4-18-0.4-26.8-2.5
				c-2.8-0.7-3.7,0.8-3.8,3.5c-0.1,1.3-0.1,3.4-1.9,3.7c-2,0.4-2-1.8-2.7-3c-0.8-1.3-1-3.7-3.1-2.9c-1.8,0.7-3.9,1.1-3.8,4.3
				c0.3,8.7-2.1,17.4-4.9,25.1c-2.6,7.2-4.8,14.7-7.8,21.8c-1.2,2.9-2,5.7-0.6,9c2.3,5.3,1.9,11.4,2.1,16.7
				c0.3,6.6-1.2,13.7-1.9,20.6c-0.6,6.8-3.3,13.2-3.5,20c0,1.2-1.4,3.8,2.2,2.2c3-1.3,3.8,1.4,2.7,3.3c-3.5,6.4-2.3,13.5-3.5,20.2
				c-2,10.6-3,21.4-3.9,32.1c-0.9,10.2-2.5,20.5-0.1,30.8c1.6,6.9,1.5,13.8,0.5,20.8c-1.3,9.2-2.4,18.4-3.4,27.7c-0.2,1.8-0.9,4,1,6
				c1.8-2.9,4.1-2.7,6.6-1.1c1.1,0.7,2.2,0.7,2.7-0.8c0.7-2.2-1-1.5-2-1.6c-0.8-0.1-1.7,0-2.5-0.2c-1.1-0.2-2.4-0.5-2.8-1.8
				c-0.4-1.4,0.8-2,1.8-2.6c2.9-1.5,5.7-3.1,9.5-5.2c-2.9,0.2-4.8,0.4-6.7,0.3c-1.8-0.1-2.7-1.3-1.3-2.6c2.1-1.9,5.2-3.5,7.6-1.6
				C748.9,834.9,756.4,837.4,764.3,839.7z M780.3,412.4c-1.4-2.4-6.2-1.7-2.9-5.4c0.6-0.7-0.7-0.8-1.2-1.1c-3.1-2-6.2-3.8-9.2-5.9
				c-14.1-9.6-24.7-22-31.2-37.9c-2.8-6.9-4.5-13.8-5.3-21.3c-1.3-13.5-6.4-26.6-3.6-40.5c0.8-4.3-1.8-4.3-4.2-3
				c-3.2,1.7-6.1,1.9-9.5,0.9c-2.9-0.9-5,0.2-6.7,3.2c-5.7,10.2-7.4,21.6-10.6,32.5c-2.2,7.6-2,14.6,2.4,20.7
				c5,7,8.5,14.9,14.2,21.5c6.6,7.7,11.7,16.5,19.5,23.3c3.7,3.3,8.2,6.2,10,11.5c-3.7-3-7.4-6-11.4-9.2c-0.1,1.4,1.3,2,0.5,3
				c-1.1,0-1.5-1.8-2.9-1.2c1.1,3.4,4.9,4.8,5.1,8.5c-12-13-23.7-26.2-32.3-41.8c-2.3,1.2-2.5,3-2.7,4.6
				c-1.2,10.4-3.1,20.7-4.1,31.2c-1,10.7-0.6,21.5-5.6,31.7c-2.3,4.6-4.4,1.7-6.7,1.6c-2.5-0.1-5.6-2.7-6.2,2.3
				c-0.1,1.1-1.5,2-2.7,0.9c-2.1-1.9-4.4,0.1-6.6-0.4c-1.3-0.3-2.2,0.7-2.6,1.8c-0.6,1.8,1.1,1.1,1.8,1.5c0.8,0.5,1.5,1.4,0.6,1.9
				c-6.5,3.3-1.2,6.4,0.4,8.9c4.6,6.7,12.8,8.2,19.3,3.2c4.5-3.4,9.4-6.2,14.7-7c8-1.2,16.2-1.6,24.4-1.6c5.7,0,10.4-1.4,14.3-5.6
				c1.1-1.2,2.7-2.9,4-2.8c7,0.4,12-3.9,17.5-6.9c1.5-0.8,3.4-1.9,3.8-4.5c-3.7,1-7.1,3.2-9.8-1.2c-1-1.6-3.6-1.2-5.2-0.6
				c-2.9,1.2-5.2,0.2-8.1-0.9c1.4-1.3,2.7-1.1,4-1.1c4.9,0.2,10.2,1.6,14.8,0.2c6.9-2,13.6-3.7,20.7-3.8c2.1,0,4.5-0.3,4.6-3.4
				c0-0.9,0.8-1.6,1.6-1.6c1.4,0,1.4,1.2,1.4,2.1c-0.1,1.8,1,1.9,2.2,1.8c9-0.7,17.9-1.3,26.9-2.1c1.8-0.2,3.3-1,2.8-3.3
				c-0.4-2.2-1.9-1.1-3.1-1c-1,0-2,0-2.9-0.1c-14.3-1.6-28.5-0.9-42.8,0.6c-10.2,1.1-20.2,3.6-30.6,3.3c-5.9-0.2-11.5,1.4-16.8,3.9
				c-3.3,1.5-4.8,5.7-9.2,5.5c-0.7,0-1.1,2-0.8,3.1c0.2,1.1,1.3,1.4,2.4,1.4c3.6,0,7-0.8,10-2.6c2.5-1.5,4.8-2,7.6-1.3
				c-0.1,1.3-1.4,1.4-1.9,2.1c-4.7,6.6-11.4,6.6-18.4,5.7c-1.7-0.2-3.1-1.1-3.7-3c-1-3.5,3.2-12.3,6.5-13.4
				c-0.6-0.9-1.3-1.4-2.5-0.8c-4.4,2.3-8.8,4.4-11.2,9.3c-3.4,6.7-5.5,8-9.8,7.2c4.3-8.5,8.9-16.7,19.5-19.6
				c-4.7-4.8-6.2-10.7-9.2-15.8c-0.5-0.9-2.4-1.7-1.1-2.8c1.5-1.2,2.9,0.2,3.6,1.5c1.6,2.7,3.1,5.5,4.3,8.4
				c1.9,4.7,5.8,7.7,9.4,10.8c2.6,2.3,6.1-0.3,9-1.1c8.7-2.2,18.1-1.5,26.2-7c3.1-2.1,7.7-3.4,12.7-3.5c-3.8,4.4-9.2,4.1-12.9,7.4
				C762.8,414.5,771.3,413.5,780.3,412.4z M783.1,427.2c-4.7-0.6-8.8,0.9-12.9,2c-1,0.3-1.8,0.9-2,2c-0.9,4.4-4.4,6.6-7.8,8.6
				c-4,2.4-8.2,4.3-12.5,6.2c-2.6,1.2-4,3.3-4,5.8c0.2,7.7-1.7,15.2-1.4,22.9c0.4,10.1-1.5,20.3-5.3,29.2
				c-3.1,7.3-3.7,14.8-5.8,22.1c-0.5,1.6-0.7,3.2-1.2,4.8c-4.2,15.2-7.4,30.5-5.7,46.5c0.4,3.4,1.5,5.1,4.5,5.3
				c3.7,0.3,7.4,0.1,11.2,0.1c-0.2-1.4-1-1.3-1.6-1.5c-1.4-0.4-4,0.5-3.5-2.2c0.4-2.2,2.6-1.3,4.2-1.4c6.1-0.5,12.1,0.4,18,2
				c3.2,0.8,3.7-1.1,4.2-3.3c1.1-4.7,1.9-9.5,2.2-14.3c2.1-28.9,4.3-57.8,9-86.4C775.5,459.4,779.2,443.4,783.1,427.2z M825.6,448.9
				c4.7,2.6,4.5,6.6,3.8,10.4c-1.5,7.6-3.6,15.1-6.8,22.3c-0.5,1.1-2.2,2.3-0.9,3.4c1.2,1.1,2.9,0,4.2-0.7c1-0.6,1.9-1.4,2.7-2.2
				c6.9-7.2,8.1-23.9,2.3-31.9c-2.1-2.9-5.4-3.2-8.2-0.6c-1.5,1.4-3.3,1.9-5.3,2.4c-8.3,2.2-15.5,8.2-16.7,15.6
				c-1.3,8.7-0.8,18.2-0.9,27.3c0,2.3,1.8,2.9,2.9,3.5c1.6,0.7,1.9-1.4,2.4-2.5c1.5-3.4,4-5.7,7.5-6.8c2-0.6,3.1-1.9,3.9-3.5
				C822.3,474.2,828,462.8,825.6,448.9z M752.8,192.1c1.6-1.2,0.9-3.6,2.3-3.1c5,2,5.6-2.2,7.3-4.8c0.8-1.2,3.4-3-1.1-3.7
				c-2.1-0.3-3.6-3.9-2.6-6.9c4.5-13.4,4.3-27.4,6-41.2c0.3-2.7-1.5-5.7-4.4-5.6c-2.9,0.1-2,3.4-1.9,5.3c0.2,9.3-1.5,18.2-5.1,26.7
				c-1.5,3.6-2.1,7.3-1,10.7C754.6,176.8,754.3,184.1,752.8,192.1z M748.4,170.3c-2.6,1.8-3.3,4.5-2.1,6.3c3.7,5.7-0.2,10.6-1,15.7
				c-0.3,1.6-1.6,2.1-2.9,0.5c-2.7-3.4-3.9-3.2-6.4,0.6c-6.2,9.4-8.7,20.1-10.8,30.8c-1.1,5.6-1.3,11.6,2.4,17
				c2.5-17.3,7-33.4,20.5-45.4c0.4-0.4,0.8-1.1,0.7-1.7C748,186.3,751.7,178.4,748.4,170.3z M836.6,448.2c1.2-10.6,0-12-9.1-14.7
				c-4.9-1.4-9.1-0.5-13.4,1.5c-0.9,0.4-2.4,2-2.7-0.5c-0.1-0.8,1.1-1.9-0.8-2c-1.3,0-1.5,0.9-1.6,2c-0.5,3.9-1,7.7-1.6,12.1
				C817.6,440.7,827.3,442,836.6,448.2z M705.4,294c3.9,0,7.7-0.2,11.5,0.1c4.3,0.4,5.7-2.8,6-5.6c0.3-3.5-0.7-7.2-1.3-10.8
				c-0.1-0.8-0.5-2.3-1.7-1.9c-1,0.3-1.8,1.4-2.5,2.3c-0.9,1.1-0.2,1.6,0.8,2.1c1.1,0.6,2.5,1.6,1.9,3.1c-0.7,1.7-2.7,0.6-4,1.1
				c-1.7,0.6-3.7-2.3-4.3-0.7C710.3,287.4,705.2,288.7,705.4,294z M694.3,380.1c-2.1,1.3-2,2.8-2.3,4.2c-4,16.6-3.2,34-7.9,50.5
				c-0.3,1-0.4,2.1,0.9,2.4c2.3,0.5,1.2-1.5,1.5-2.3c3-8.3,3.6-17.1,4.3-25.8C691.4,399.5,692.3,390,694.3,380.1z M692.7,338
				c2.2-13.2,5.3-25.2,10.7-37.5C695.9,305.7,689.8,327.5,692.7,338z M749.2,200c1.8,0,4.2,0.7,4.8-0.1c2.9-3.8,5.1-1,7.6,0.2
				c2.4,1.1,4.7,2.4,7.2,3.3c1,0.4,2.6,0.3,3-1c0.6-1.6-1-1.9-2-2.1c-2.7-0.5-4.9-1.9-7.1-3.3C757.5,193.8,753.3,194.7,749.2,200z
				 M634.2,906c2.8,3.2,5.4,2.4,7.8,2.6c0.8,0.1,1.8-0.1,1.8-1.1c0-1-0.8-1.4-1.7-1.5C639.8,905.9,637.5,906,634.2,906z
				 M660.4,455.2c-1.6-4.4-1.9-8.2-0.4-12.6C655.5,446.7,655.6,449.9,660.4,455.2z M721.1,570.5c-0.9,3.5-2.8,5.4-1.6,7.9
				c0.1,0.2,1.1,0.4,1.3,0.3c1.9-1.8,0.7-4.2,1-6.4C721.7,572.2,721.6,572,721.1,570.5z"/>
			<path d="M1028.5,622.3c4.8,0.3,5.7,4.8,5.6,7.4c-0.6,13,5,24.6,7,37c0.8,4.9,1.5,9.8,2.3,14.5c1.3,8.5,2.8,17.4,9.1,24.6
				c2.5,2.9,4.3,7.2,5.5,11.2c2.5,8.3,5,16.5,11,23.1c1.7,2,1.4,2.1-0.6,4.2c-0.8,0.8-0.3,1.9,0,2.8c1.4,3.9,0.6,7.7,0.1,11.8
				c-0.9,6.8-1.1,13.8,2.6,20.2c1,1.8,1.1,4.2,1.2,6.3c0.7,25.3,1.3,50.6-0.3,75.9c-0.4,6.6-0.8,13.3-3.5,19.7c-0.8,1.9,0,4.6-1,7
				c-1.9,4.8-0.7,6.1,4.4,5c3-0.6,6.2,0.3,7.9,2.2c3.2,3.5,6.3,2.6,9.9,1.8c3-0.7,5.8-1.9,9.2-0.8c2.8,0.9,4.5-0.8,4.4-4.2
				c-0.2-5.1-0.5-10.3-0.6-15.4c-0.1-7.8,4.2-14.1,5.1-21.5c0.8-7.3,3.5-14.4,3.9-21.5c1.3-21.3,8.4-41.7,8.5-63.3
				c0.1-15,0.6-30-2.1-44.6c-2.5-13.6-5.3-27.4-9.2-40.8c-0.7-2.2-1.2-4.6-1-6.9c1.1-12.2-1.3-24.2-1.2-36.3
				c0.1-4.8,0.2-9.7,1.2-14.4c0.6-2.9-0.2-2.8-2.3-3.1c-11-1.8-22.1-2.4-33.3-2.3c-1.7,0-4.2,0.6-4.1-2.2c0.2-2.4,2.5-1.6,4-1.7
				c10.2-0.1,20.3-0.6,30.4,1.8c3.8,0.9,5.7,0.3,6-4.7c0.7-13.3,1.5-26.6,5.7-39.4c1-2.9,2.1-5.4,4.8-7.6c3.9-3.1,5.2-8.4,7.7-12.7
				c1.4-2.4,2.6-4.9,4.9-7.4c1.2,3.3,0.1,6.1-1.1,8.2c-3.8,6.7-6.5,14.2-12.2,19.6c-1.9,1.8-2.7,3.8-3,6c-1,6.9-1.5,13.9-2.6,20.8
				c-1,6.5,1.7,12.1,3.7,17.9c0.5,1.5,1.9,1,2.9,1.4c2.2,0.8,4.2,1.7,4.9,5.1c-4.6-2.5-8,1.7-12.1,1.2c-1-0.1-1,1.1-1,1.9
				c0.4,18.3-2.8,36.8,1.4,55c2.5,11.2,5.1,22.3,7.8,33.4c1.7,7.3,2.2,14.8,2.7,22.2c1.1,16.9,2.9,34-0.1,50.8
				c-1.8,9.6-0.4,18.3,1.6,27.3c1.2,5.5,0.8,11.5,2.8,16.7c4.1,10.8-0.4,20.5-2.4,30.5c-0.3,1.4-0.5,2.1,1,3.2
				c2.9,2.1,5.8,3.8,9.6,3.5c4.8-0.4,9.5,0.7,15.2-0.6c-3.1,3.8-6.7,3.3-10,3.9c0.9,2.4,2,4,4.7,2.1c1.5-1,3.3-1.7,5-2.2
				c3.1-0.9,3.8-3.2,2.9-5.8c-2.6-7.3-0.7-14.5,0.4-21.5c2-13.9,2.7-27.8,4.6-41.7c0.6-4.7,1.3-9.4,2.6-14
				c1.7,29.2-6.4,57.8-3.7,88.1c-5.4-5.8-7.8-0.6-10.9,0.9c-0.7,0.3-1.4,0.7-2.1,1c-1.6-0.2-3.3-0.8-4.9-0.6
				c-6.5,0.7-12.3,0-15.3-6.5c-2.4,0.8-1,3-2.9,4.1c-1.7-4.2-0.7-8.2,0.2-12.1c3.7-16.2,3.7-32.3,0.2-48.5c-0.3-1.6-0.8-3.2-1.4-5.9
				c-7.6,24-10.5,47.4-10.6,71.5c2.2-0.2,3.2-1.9,4.7-2.9c1.1-0.7,2.3-1.8,3.4-0.3c1,1.4,0,2.5-1,3.4c-1.1,1-2.5,1.7-3.4,2.8
				c-1.4,1.6-4.5,1.4-4.6,4.1c-0.2,4.2,0,8.3,0,12.5c0,0.7,0.5,1.2,1.2,1.4c5.7,1.6,11,4.6,17.1,5c4.5,0.3,8.7,2.7,13.4,2.6
				c2.3,0,4.5,0,7.1,0c-2.9,3-2.9,3-19.2,3.8c5,3.9,10.8,2.5,16.4,2.8c26.3,1.5,52.6,1,78.9,1.1c3.9,0,7.8,1.2,11.7,2
				c1.7,0.3,2.9,1.6,3.9,3c0.5,0.7,0.9,1.5,0.2,2.3c-0.6,0.7-1.5,0.7-2.3,0.2c-6.3-4.5-13.6-3.6-20.7-3.6c-16.7-0.1-33.3-0.6-50,0.2
				c-7.6,0.4-15.1,0.6-22.7,0.8c-2.2,0.1-3.7,1.2-5.2,2.6c1.3,1.6,3,1.4,4.6,1.3c8.8-0.5,17.6,0.6,26.3,1.1c6,0.3,11.2,3.6,16.8,5.3
				c0.8,0.2,1.4,1.1,1.1,2c-0.4,1.3-1.5,1.9-2.8,1.6c-10.6-2.6-22.2,0.4-32-2.7c-8.8-2.8-16.9-1.3-25.2-2.4c-5.1-0.7-9.2,1.9-13.7,3
				c-1.8,0.4-2.2,1.9-2.1,3.4c0.1,1.6,1.4,2.2,2.7,2.6c1.3,0.4,2.6,0.1,3.8-0.6c0.8-0.5,2.1-0.6,2.7,0.5c0.9,1.5-0.6,1.9-1.5,2.5
				c-0.5,0.4-1.1,0.7-1.7,1.1c2.3,2.4,5.4,0.8,7.8,2.1c1.1,0.6,2.9,0.8,2.4,2.6c-0.3,1.3-1.7,1.5-2.9,1.5
				c-13.8,0.3-27.5,1.1-41.3,2.5c-1.3,0.1-5.8,1.7-2.6-3c0.6-0.9-0.9-1-1.6-1.1c-1.5-0.3-3.4,0.4-4.8-1.5c5.9-4.5,12.7-2.3,19.1-2.8
				c2.5-0.2,5.3,1,5.9-3c0.1-0.5,0.9-1.2,1.4-1.3c7.3-0.2,5.9-5.9,6.4-10.2c1.4-10.8-1.7-21.1-3.7-31.6c-0.4-2-1.6-1.8-2.8-1.7
				c-3.6,0.1-7.3-0.1-10.9,0.9c-5.2,1.4-10.4,2.1-15.8,0.6c-0.5-0.1-1.2-0.5-1.3-0.4c-3.7,4.4-4.1,3-3.5-1.7
				c0.2-1.5-2.2-1.7-3.5-0.4c-0.7,0.7-0.5,3.2-2.4,1.2c-1.4-1.4-3.8-2.7-2.4-5.3c5.3-10,6.7-21.2,7.3-32c1.3-23.4,1.9-46.9,0.4-70.4
				c-0.6-9.9-1.4-19.7-3.4-29.5c-1.4-6.9-0.7-14.2-0.7-21.4c0-1.8-0.4-3.2-1.5-4.6c-2.2-2.6-3.5-5.6-5.1-8.6
				c-11.1-21.2-19.1-43.4-23.6-66.8c-2.4-12.3-3.1-24.7-4.6-37.1c-0.1-0.8-0.4-1.5-0.7-2.3L1028.5,622.3z"/>
			<path d="M1032.8,424.8c-0.2,0.6,1,1.6-0.7,1.7c-5.6,0.1-9.3,3.4-10.3,8.7c-1.4,7.5-2.2,15.1-3.1,22.7c-0.5,4.5,1,5.9,5.3,5.8
				c15.2-0.4,30.3,1.6,45.1,4.5c12.2,2.4,24.6,4,36.7,6.5c5.8,1.2,12,0.7,17.9,0.2c8.4-0.7,16.2,1.8,24.2,3.5
				c1.5,0.3,1.7,1.4,1.7,3.1c-0.1,4.4-1.2,9.6,0.6,13.1c2.9,5.6,0,11.5,2.4,16.8c0.4,0.9,0.6,2.2-0.9,4.2c-1.7-4.8-3.5-8.9-4.6-13.2
				c-0.7-2.6-1.9-3.4-4.4-3.5c-5.1-0.4-10.3-1-15.3-1.8c-4.9-0.8-9.6,0.7-14.4,1c-11.4,0.8-22.5-1.9-33.9-1.3
				c-16.1,0.8-31.3,6.1-46.9,9.2c-3.4,0.7-2.2,3.4-2,5.2c0.8,5.6,1.5,11.1,4.2,16.3c1.2,2.4,2.1,5.2,1.6,8.1
				c-2.5-7.1-6.7-13.5-7.3-21.3c-0.2-3.1-0.7-6.1-5.1-5.7c-0.9,0.1-2.6-0.3-2.4-1.9c0.2-1.3,1.3-1,2.3-1c2.9-0.1,4.9-1.6,5.5-6.1
				c1.4,4,3.3,4,5.6,3.2c4.9-1.6,10.2-1.8,14.5-5.6c1.7-1.5,5.4-0.8,8.2-1.2c22.3-3.6,44.8-3.2,67.2-1.9c5.6,0.3,11.2,1.5,16.8,2.1
				c3.9,0.4,6.4-2.6,5.2-6.5c-0.6-2-1-3.6-0.4-5.7c0.8-2.7-1.9-3.3-3.6-3.7c-7-1.6-14.1-2.1-21.3-0.6c3.9,1,7.8,2,12.4,3.2
				c-2.4,2.3-4.6,2-6.5,1.6c-17.4-3.6-35-3.6-52.7-2.6c-9.7,0.5-19.5-0.8-29.3,0.2c-2.8,0.3-5.7,0.3-8.4,0.8c-3,0.6-3.8,4.3-6.7,5.5
				c-0.5,0.2-1.1,4.6,2.8,3.6c2.4-0.6,4.7-1.4,7.3,0c-4.8,2-9.9,2.7-15,3.2c-0.6-2.6,1.6-3.8,1.5-5.8c-3.6-1.8-6.8,4.5-11.3-1
				c0.8,16.1-4.3,30.2-3.9,44.6c0.3,11.1-1.8,22-0.6,33.1c1.2,11.3,2.9,22.5,4.6,33.7c0.8,5.3,1.5,10.6,0.4,15.9
				c-0.6,3.2-0.1,6.2,2.1,8.8c0.8,1,1.4,2.6-0.3,3.4c-1.5,0.8-1.9-0.7-2.4-1.7c-2.4-4.2-3.9-8.7-3.6-13.4c0.3-5.2,0.5-10.9-1.4-15.3
				c-6.2-13.8-2.9-28.3-3.9-42.4c-0.9-12.9,0.7-26,3.3-38.7c1.5-7.4,0.7-15,2.3-22.3c0.9-4.2,1.1-8.3,4.6-12c2.6-2.7,0-7.3-2.7-10.1
				c-1.4-1.4-1.9-1.7-0.1-3.2c1.9-1.6,1.9-4.4,1.7-6.5c-1-13.6,2.4-26.7,4.7-40c0.6-3.7,0.2-6-3.5-7.4c-3.2-1.2-5.5-3.7-7.4-6.5
				c-1.4-2.1-3.3-2.9-5.5-2.5c-4.4,0.9-9.1,0.8-13.2,2.1c-4.6,1.4-4.7-0.3-4.3-3.7c-5.8,1.6-6.2,1.5-6-5c0.1-4.7-2.9-8.1-4.7-11.8
				c-1.9-3.9,2.1-5,1.8-7.4c-0.4-2.4-6-3.2-3.8-5.9c3.9-4.7,0.5-7.6-1.3-11c-2.2-4.2-1.7-5.4,3.1-5.2c4.1,0.2,5.6-1.1,4-4.9
				c-1.1-2.5,2-6.7-3.2-7.4c-0.6-0.1-0.4-1.2,0.1-1.7c0.5-0.5,1-1,1.6-1.1c11.6-2,23.3-3.7,35-0.6c0.2,0.1,0.4,0.5,1.4,1.9
				c-7-1.4-13.1-0.6-19.2-0.2c-1.2,0.1-2.3,0-3.5,0c-11.5,0-12.8,2-8.5,12.7c0.6,1.4,1.1,2.7,3.1,2.6c11.2-0.2,19.4,5.8,26.9,13.1
				c1.1,1.1,2.1,3.2,3.9,2.2c1.5-0.8,0.3-2.7,0.1-4.1c-1.1-8.4-2.4-16.8-2.2-25.4c0.1-4.4-0.2-8.8-1.8-13.1
				c-3.1-8.2-0.3-16.8-0.7-25.2c-0.4-7.7-0.2-15.5,0.9-23.4c1.2-8,6.5-12.8,10.6-18.6c1.8-2.5,5-3.8,3.3-8.2c-1.1-2.8,0-5.8,4.1-2.8
				c0.7,0.5,1.3,1,2.3,0.8c1.2-0.3,7.1-9.9,6.4-10.8c-3.5-4.1,0.2-5.8,2.7-7.2c5.3-2.8,10.9-5,16.3-7.5c1.3-0.6,2.9-0.9,4.4-3
				c-4-0.2-7.4-0.7-10.7,0.5c-3,1.1-5.5-0.5-8.2-0.9c-4-0.7-2.8-4-3.9-6.3c-2.1-4.5-5-8.7-7.7-12.9c-0.4-0.7-1.8-1.3-2.6-1.2
				c-1.2,0.3-1.5,1.7-1.5,2.9c0,3-0.1,6-1.9,8.6c-0.6,0.8,0.9,3.3-1.8,2.3c-1.9-0.7-3.1-1.8-2-4.2c0.9-1.9,1.5-4,2.2-6.1
				c0.3-0.9,0.7-2.1,0.4-2.9c-0.9-2.3-1.5-5.3-3.3-6.5c-1.5-1-3.6,1.5-5.3,2.7c-0.6,0.5-1.2,0.9-2,1.5c-0.8-5.2,4-11.8,8.6-12.1
				c2.9-0.2,3.6,1.9,4.2,4c0.3,1-0.3,2.5,1.3,2.8c1.6,0.3,1.6-1.4,2.2-2.3c1-1.3,2-2.7,3-4c1-1.2,2.5-2.6,3.8-1.6
				c2.1,1.5,0,1.9-1.1,2.4c-0.4,0.2-1.1,0.1-1,0.9c5.3,2.5,6.5,9.7,14.2,10.7c-3.9,2.1-6.1,1.8-8-0.5c-1-1.1-1.7-2.6-2.8-3.5
				c-1.6-1.2-4.1-1.3-5.1,0c-1.3,1.8,0.9,2.7,2.3,3.5c2.6,1.5,5.2,2.9,7.7,4.5c1.3,0.8,2.7,2,1.7,3.6c-0.9,1.5-2.3,0.4-3.5-0.2
				c-1.3-0.7-2.6-1.3-4-2c-0.4,2.2,0.9,3,2,3.9c1.2,0.9,2.2,2,2.4,3.6c0.8,5,4.3,7.4,9.4,6.5c3.2-0.6,6.5-1.9,9.7-1.7
				c4.9,0.4,8-0.7,9-5.8c0.2-1.1,1.1-2.2,2.6-1.7c1.4,0.4,1.3,1.8,1.4,2.9c0.2,3-2.1,5.1-3.3,8.4c4.2-0.5,8.1-1,11.9-1.6
				c1.9-0.3,2.6-1.4,1.3-3.2c-0.5-0.7-0.9-1.5-1.6-1.9c-6.5-3-3.2-8.9-4.1-13.5c-0.2-1.1,0.7-1.5,1.5-1.6c1.6-0.2,2.3,0.8,3,2.1
				c1.2,2.3,0,4.8,0.8,7.3c1.7,5.4,6.7,9,7.7,14.8c0.2,1.2,1.8,1.4,3,1.4c2.4-0.1,4.1,0.6,4.7,3.4c0.4,2.3,1.1,2.5,3,0.4
				c1.7-1.9,5.5,0.7,5.3,1.2c-1.5,3.6,1.3,2.9,2.9,3.4c0.9,0.3,1.7,0.7,1.6,1.6c-0.8,4.4,2.7,5.5,5.4,7.3c6.4,4.2,13.1,7.9,20.1,11
				c1.8,0.8,3.7,1.5,4.9,4.3c-5.9-1.1-11-3.1-15.7-5.8c-5.8-3.2-11.7-6.4-16.8-10.6c-1.4-1.1-3-2.2-4.9-1.8
				c-0.6,0.1-1.7,0.6-1.5-0.2c1.3-6.5-4.5-4.3-6.8-4.8c-6.2-1.4-12.9-2.7-19.1-2.1c-6.6,0.7-13,3.6-19.4,5.6
				c-0.7,0.2-0.4,2.9-2.2,1.1c-1.4-1.4-0.5-2.6,0.9-3.1c3.9-1.4,7.9-2.6,11.9-3.6c1.9-0.5,3-0.4,4.3-2.7c1.6-2.9,5.9-1.8,9.1-2.6
				c1.6-0.4,4.9,2,4.7-1.6c-0.2-3.1-3.1-3.1-5.8-2.7c-13,1.6-25,5.4-34.4,15.1c-0.4,0.5-0.8,1-1.2,1.5c1.5,1.3,3.6-1.6,4.4,0.6
				c0.6,1.6-1.5,2.5-2.7,3.1c-2.4,1.2-1.4,3.8-2.9,5.6c-3.9,4.9-9.8,6.2-14.6,9.2c-13.6,8.5-16.9,21-15.3,35.6
				c0.4,3.6-0.1,6.9-0.4,10.3c-0.2,2.1-0.5,4.6,1.3,5.5c3.8,2,2.9,5.1,2.9,8.1c0,17.8-1,35.6,1.6,53.6c3.7-3.7,7.1-1.3,11.2,0.4
				c4.6,2,8.4,4.9,14,7.3c-4.6,0.9-7.4-1-10.7-1.3c1.1,3,5,4.3,4.4,8.4c-5.4-2.7-7.7-8-11.2-12.5c-1,1.8-1.7,3.1-2.5,4.5
				c1.3,0.2,2.5,0.4,3.9,0.6c-0.3,0.6-0.4,1.2-0.8,1.4c-7.2,4.5-9.9,19-6,26.9c1.5,3.2,5.8,5.6,4.1,10.5c-0.3,1,3.7,2.4,6,2.8
				L1032.8,424.8z M1015.6,410c0.1-0.8,0.3-1.2,0.1-1.4c-0.4-0.7-0.9-1.4-1.5-2c-5-5.2-7.1-11.1-4.4-18.2c0.5-1.4,0.4-3.1,1.1-4.3
				c3.8-6.7,0.3-9.6-4.9-13.9c-9.5-7.9-20.7-6.6-31.6-9.8c0.5,3.3,1.8,5.2,3.8,6.5c1.4,0.8,2.1,2.2,1.5,3.3
				c-2.2,3.6-2.3,6.9,0.6,10.1c0.2,0.2,0.2,0.8,0.1,0.9c-2.7,3.2-0.2,6.3,0.3,9.3c0.5,2.8,2.3,5.3,1.8,8.5c-0.3,2,1.8,2.4,3,0.8
				c1.7-2.5,3.8-2.4,6.4-2.2c7.3,0.6,7.3,0.5,9.3-6.8c0.4-1.3,0.7-2.9,2.4-2.6c1.8,0.3,1.3,2.1,1.3,3.3c0.1,1.5-0.6,3.5,0.1,4.4
				C1008.7,400.5,1010.8,406.1,1015.6,410z M1087.5,475.4c-12-2.6-24-5.6-36.2-6.4c-8.5-0.6-17.1-3.9-25.7,0c-1.3,0.6-3.4,0.2-3.7,2
				c-0.5,3.4-0.8,6.9-0.8,10.3c0,0.9,1.4,0.6,2.1,0.4c14-3.6,28.3-3.5,42.6-4.1c2.7-0.1,4.6-0.5,1.5-3.4
				C1074.4,473.3,1080.8,477.7,1087.5,475.4z M1024.2,377c-2,1.8-3.9,3.4-6.8,2.3c-0.6-0.2-1.3,1.2-1.6,2.3
				c-2.1,7.8-2,15.6-0.4,23.5C1016.4,395.1,1019.4,386,1024.2,377z M990.5,403.6c4.4,1,9.9,0.4,14.3-1.5
				C1001.5,399.7,994.2,400.4,990.5,403.6z"/>
			<path d="M942.7,132c8-16.4,12.8-33.3,24.1-46.8c0.7-0.9,1.5-1.5,1-3c-3.5-10.1-6.4-20.5-11-30.3c-3-6.5-6.8-7.1-11.8-2.4
				c-9.4,8.9-18.3,18.4-29.6,25.1c-4.1,2.4-7.3,5.9-11.8,9.8c1.5-4.5,3.8-6.8,6.4-8.7c12-8.7,23.7-17.8,32.9-29.7
				c1.2-1.5,3-2.4,3.1-5.1c0.1-1.5,4.3-1.5,5.9,0c4.5,4.3,8.8,8.9,11.2,14.8c10.2,24.9,23.7,47.5,44.5,65.2c0.9,0.8,1.6,2.3,3.2,0.8
				c1.3-1.2,1.9,0.4,1.7,1.2c-1.5,5.3,3.2,6.6,5.8,9.2c2,2,6.9,3.7,0.7,6.6c-0.6,0.3-1.1,1.9-0.9,2.6c0.3,1.1,1.7,0.6,2.6,0.6
				c6.8,0.1,13.7-0.3,19.9,3.4c0.8,0.5,2,1,2.3,1.7c3.3,8.5,9.7,13.6,17.9,16.5c0.6,2.3-4,0.1-2.4,3.4c0.6,1.2-2.3,1.1-2.6,0.7
				c-3.2-4.2-5.1-0.2-6.5,1.4c-6.7,7.5-13.9,14.4-23,18.8c-5.8,2.8-11.3,6.2-18.2,6.1c-4.4-0.1-9.2,1.2-12.7,3.8
				c-2.8,2.2-4.3,6-6.3,9.1c-0.2,0.3,0,1.3,0.1,1.4c4.2,0.9,2.7,5.9,5.4,7.5c4.5,2.6,4,6.1,3.7,10.3c-0.3,4.6,0.5,9.3,0.9,13.9
				c0.1,1,0.2,2.2,1.6,1.8c5.6-1.5,8.8,1.7,10.7,6.2c1,2.3,2.5,3.7,4.5,4.9c2,1.2,3.6,2.9,2.8,6c-3.2-5.1-11.3-4.8-12.3-12.7
				c-0.4-3-5.5-2-6.7-0.8c-3,3-2.9,0.1-3.4-1.3c-1.8-5.4-1.7-11.2-2.1-16.8c-0.3-4.5-0.3-8.9-4.1-12.2c-1.4-1.2-1.1-3-1.1-5
				c-2.2,0.9-3.6,2.5-4.9,4.1c-1.1,1.4-2.6,2.6-4.2,1.3c-1.9-1.5-0.1-3,0.7-4.3c0.7-1.1,1.6-2,2.7-3.2c-3.7-1.1-3.9,2.1-5.2,3.7
				c-1,1.2-1.7,3.5-3.7,2.3c-2.5-1.4,0-2.8,0.5-4.1c0-0.2,0.1-0.3,0.2-0.5c1.9-3.5,3.7-7.1,5.8-10.4c2.9-4.5-1.2-7.6-2.2-10.4
				c-3.8-10.4,0.7-18.7,4.6-27.3c0.5-1.1,2.9-2.3,0.8-3.5c-2.3-1.3-2.3,1.4-3.2,2.6c-0.7,0.9-0.8,2.3-2.2,2.7
				c-1.1-1.6-1.6-5.8-4.4-1.2c-0.4,0.6-0.9,1.1-1.6,0.8c-0.9-0.3-1.2-1.2-1-2c1.2-5,2.4-10,3.8-15c0.4-1.3,2.1-1.7,2.4,0
				c0.9,5.2,5.8,3,7.2,2.6c5-1.7,9.5-4.7,14.2-7.3c0.7-0.4,1.5-1.2,1.5-1.8c0-1.3-1.4-1.1-2.3-1.3c-10.7-2-21.6-1.6-32.4-0.9
				c-3.3,0.2-6.1,1.5-8.8,3.9c-3.2,2.8-7.4,4.4-11,6.8c-9.9,6.4-17.4,14.9-21,26.4c-0.5,1.5-1.2,3-2.4,4.4
				c-1.7-4.9,0.2-9.4,2.1-13.8c1.9-4.6,5.2-8.3,7.7-12.5c-5.8,3.4-8.5,9.7-13.6,13.7c1.2-7.8,5.7-13.6,11.8-18.1
				c7.4-5.5,16-8.7,24.5-12.1c19.3-7.7,38.2-2.6,57.2,0.6c1.1,0.2,2.2,0.8,4-0.1c-8-6.3-13.7-14.4-21.5-20.7
				c-5.6-4.6-10-10.7-14.1-16.8c-2.7-4-6.4-7.7-9.8-11.4c-1-1.1-1.7-0.3-2.3,0.6c-1.9,2.9-3.9,5.8-5.8,8.7c-0.4,0.7-1.5,1.8,0.3,2.1
				c1.9,0.3,2.1,1.5,1.6,2.9c-0.6,1.6-2,3.2-3.8,2.4c-2.7-1.3-3,0.7-4,2.1c-4.1,5.8-4.8,13-8.5,19
				C947.2,127.6,946.8,130.8,942.7,132z M989.8,196.8c3.7-1.6,6.5-3.6,9.8-3.8c6.9-0.5,12.5-5.3,19.6-5.2c1.3,0,2.8-1,4.1-1.8
				c8.1-4.7,15.8-9.8,21.7-17.2c1.2-1.5,3-2.6,4.3-4.1c1.1-1.2,4.7-0.7,3.6-2.7c-1.4-2.4-3.2,0.8-4.9,1.3c-0.6,0.2-1.2,0.6-1.7,1
				c-9.3,7.5-19,14.3-29.7,19.4c-1.5,0.7-3.3,2.9-4.7,0.5c-1.4-2.5,1.6-2.6,2.9-3.4c10.8-6.8,21.7-13.5,32.5-20.2
				c1.3-0.8,2.9-1.7,0.8-3.2c-4.9-3.5-8.6-9.2-15-10.3c-9.5-1.7-19.3-2-28.2,1.1c-5.5,1.9-11.3,5.5-15.3,10.7
				c-3.6,4.6-7.2,9.8-7.3,15.5c-0.1,4.5,0.3,9.2,0.8,13.8c0.2,1.6-1,4,1.3,4.7c2.1,0.7,4,0,5.7-1.7c3.6-3.4,7.9-5.3,13.4-5.5
				c-2.1,2.9-5,3.5-7.3,5C993.9,192,991.5,193.4,989.8,196.8z M1013.4,141.6c-2.6-1.8-5-1.5-7.2-2.1c-1.8-0.5-1.7,1.3-1.9,2.2
				c-0.3,1.5,0.9,1.3,1.9,1.2C1008.5,142.5,1010.8,142.1,1013.4,141.6z"/>
			<path d="M1033,425c-1.3-1.6-2.7-3.3-4.7-5.8c5.7,2,10.7,2.1,15.3,4.4c2,1,4.1,2.4,6.6,1.5c3.1-1.1,3.5,1.9,2.8,2.9
				c-2.3,3.5,0.6,3.3,2.4,3.9c14.8,4.8,30.3,5.8,45.5,8.2c3.9,0.6,7.4,3.2,11.6,4.2c8.7,2,17.3-1.4,25.8,0c5.5,0.9,8.9-3.8,13.9-3.9
				c0.5,0,1.4-0.7,1.5-1.2c0.8-3.6,3.3-5.4,6.5-6.7c1.1-0.5,1.1-1.6,1-2.6c-0.4-11.4,1.2-22.8,0.8-34.3c-0.5-12.9,2.1-25.8,4.3-38.7
				c1-5.9,1-11.9,2-17.8c0.7-4.1,1.2-8.6,6.9-10.8c-1.7,5-4.7,8.8-4.1,14.1c2.2-2,4.2-3.8,6.2-5.5c0.6-0.5,1.5-0.9,2.2-0.1
				c0.7,0.8,0.2,1.6-0.4,2.2c-8.7,8.7-9.1,20.4-10.9,31.4c-1.6,9.5-1.6,19.2-2.6,28.8c-0.4,3.7,1.3,4.3,4.3,3.9
				c0.8-0.1,1.6-0.3,2.4-0.6c6.1-2.6,12.7-2.4,19.2-3.1c1.5-0.2,3.6-0.4,3.9,1.3c0.3,2-2.1,2.1-3.3,2.1c-8.3-0.2-15.6,5.7-24.1,4.3
				c-2-0.3-2.7,0.9-2.5,2.7c0.7,6.7-1.1,13.3-1.8,19.8c-0.7,5.8-1.4,12.8-9.1,15.2c-2.7,0.9-4.2,3.2-4.8,6.6
				c-1.2,6.3,0,12.7-1.2,18.9c-0.4,1.9,0.4,5.2-2.7,4.9c-3-0.3-1.6-3.5-1.7-5.4c-0.2-2.7,1.1-5.4,0.3-8.8c-0.8,2.6-1.4,4.6-2,6.7
				c-1.8-0.6-1.1-2.2-1-3.3c0.5-4.1,1.1-8.3,1.8-12.3c1-5.2-0.7-7.3-5.7-5.7c-13.3,4.2-26.2,1.6-39.3-1.2
				c-10.2-2.2-20.5-3.8-30.6-6.1c-6-1.4-12.8-2.3-17.2-5.9c-3.8-3-6.4-5.5-11.5-5.1c-1.9,0.2-4.1-1.9-6.1-3
				C1032.8,424.8,1033,425,1033,425z"/>
			<path d="M1141.6,703.5c-1,2.5,0.2,4.4,0.3,6.3c0,1.3,0.1,2.9-1.7,3c-1.5,0.1-1.7-1.4-1.8-2.5c-0.6-4.2-1.8-8.5-1.8-12.7
				c0-12.4-0.8-24.8,1.1-37.3c1.6-10,2-20.2,2.9-30.3c0.3-2.9-0.3-4.2-3.8-3.2c-4.6,1.4-8.9,0-12.3-3.5c-0.6-0.6-1.4-1-1.8-1.7
				c-0.6-1.4-4.5,0.3-2.9-2.5c1.5-2.7,4.3-1.5,5.9,0.3c4,4.5,8.9,4.4,14.2,3.4c2.5-0.5,3.7-1.6,4.4-4c2.2-7.7,2.6-15.7,3.6-23.6
				c2.1-16.6,0.9-33.6,5.2-50c0.8-3.1,1.5-6.1,3.1-8.9c1.7-2.9,1.8-6.3,0.6-9.2c-1.7-4.1-0.7-8.3-1.2-12.4
				c2.2,8.4,6.9,16.3,3.4,25.7c-2.3,6.1-3.2,12.6-3.9,19c-2,17.5-3.7,35-5.6,52.5c-0.5,4.7-0.9,9.6-5.1,12.9
				c-0.5,0.4-0.4,1.5-0.5,2.4c-0.4,11.5-2,22.9-2.9,34.3c-0.7,9.6-0.7,19.2-0.9,28.8c-0.1,2.6,1.2,4.6,2.7,7
				c3.3,5.1,4.7,11.2,8.5,16.3c2.1,2.8,1.9,7.3,2.5,11.1c1.4,8.7,3.2,17.3,5.8,25.7c0.8,2.6,1.1,5.6,1,8.4
				c-0.2,5.3,0.9,10.2,2.3,15.2c0.4,1.5,0.7,3.8-2.4,3.8c-2.7-0.1-2.1-2.2-2.1-3.5c0-18-5.3-35.1-8.5-52.6
				C1144.6,716.8,1145.1,709.4,1141.6,703.5z"/>
			<path d="M1013.4,928.5c-4.4,0.4-7.7,1.9-10.9,4c-1.9,1.2-4.1-0.8-6.6-0.1c-2.7,0.8-5,1.5-4.8,4.5c0.2,3,3.1,1.9,4.8,1.9
				c3.4-0.1,6.8,1.4,10.2-0.8c2.3-1.4,4.1-2.4,0.5-6c15.3,4.7,29.1,0.9,43,0.7c7.7-0.1,15.3,0.3,23,0.5c1.4,0,3-0.1,4.3,1.7
				c-3.5,1.7-7.1,1.4-10.6,1.2c-13.3-0.8-26.6,0.2-39.9,1.5c-3.6,0.3-7.3,0.3-10.3-1.1c-4.7-2.1-5.4,1.8-7.1,3.9
				c-1.5,1.8,1.9,1.3,1.6,3.3c-3.4-0.3-6.8-0.6-11.3-0.9c10.9,4.1,21.5,5.6,31.6,8.8c6.1,2,12.9-0.2,19.3-0.8
				c4.8-0.5,9.6-0.9,14.5-0.7c-0.2,1.8-1.5,1.5-2.5,1.8c-10,2.7-20.4,3.4-30.6,3.5c-6.1,0-12.2-3.8-18.7-4
				c-7.4-0.2-14.2-3.2-21.4-4.2c-8.9-1.1-17.8-2.1-26.8-2.2c-1.8,0-4.2,0.2-4.2-2.3c0.1-2.2,2.4-1.8,4-1.8c3.6-0.1,7.6,1,10-3.1
				c7.1,1,10.6-3.6,14.1-8.5c0.6-0.9,2.1-1.4,2.9-2.5c1.5-2.1,2.9-2.1,3.8,0.6c0.8,2.4,2.3,2,3.8,0.9
				C1002.7,925.5,1008.1,925.4,1013.4,928.5z"/>
			<path d="M1068.9,414c4-9.9,4.5-20.4,4-30.9c-0.2-4.5-1.3-8.9-1.7-13.4c-0.3-3-1.8-4.4-4.8-4.2c-0.9,3.8,0.2,7.7,0.1,12.3
				c-2.8-3.2-2.2-6.5-2.3-9.5c-0.1-3.5,0-7-0.1-10.5c-0.1-2.9-0.9-5-4.1-6c-2.8-0.8-3.2-4.4-5.6-6.1c-8.4-5.7-15.6-12.9-24.7-17.8
				c-0.8-0.5-1.5-1.3-2.4-2.1c3.6,0.3,10,3.5,15.6,7.8c5.2,3.9,10.2,8,15.4,12c0.8,0.6,1.6,2.1,2.8,0.5c1-1.3,0-2-0.9-2.9
				c-9.2-9-13.9-20.9-20.2-31.8c8.9,8.3,12.7,20.2,20.3,29.4c3.6-13.5-9.2-18.1-14.6-27.5c3.1,0.1,4.6,1.4,5.9,2.8
				c3.3,3.3,6.5,6.6,9.8,10c4,4.2,2.6,9.7,3.5,14.6c1.1,6.9,1.3,14.7,5,20.1c8.2,12,6.3,24.8,5.9,37.7c-0.2,5.1-2.1,9.7-3.8,14.4
				c-0.3,0.8-0.9,4-2.8,0.8L1068.9,414z"/>
			<path d="M840.6,433.4c-11.3-15.8-11.9-33.8-10.2-52.6c-2.2,0.3-3,2.8-4.9,3.5c-0.9,0.4-1.9,0.9-2.6-0.2c-0.5-0.9,0.4-1.5,1-2
				c1.6-1.2,3.1-2,1.1-4.4c-0.9-1.1,1.3-2.5,2.3-3.5c6.2-6.1,7.4-13.7,7-22c-0.5-10.3-0.2-20.7-3.3-30.7c-0.3-1-0.7-2.7,0.8-3
				c2-0.4,2.2,1.7,2.6,3c5.4,15.1,6.2,30.3,2,45.8c-4,14.9-4.8,29.8-1.1,45.2C837.1,419.6,840.5,425.9,840.6,433.4z"/>
			<path d="M1014.9,929.5c3.6-6.3,9.2-7,13.8-6.8c8,0.4,13.3-4.4,19.5-7.5c3.3-1.6,6.8-3.5,8.3-7.8c0.8-2.2,2.8-5.3,6.6-3.3
				c0.3,0.2,1.4-1,2-1.5c2,7.6,9.1,9.5,15.2,12.9c-1.9,1.9-3.6-0.6-5.2,1.2c5.7,4.5,11.6,7.9,19.3,7.3c3.7-0.3,4.3-3.2,5.4-5.6
				c0.6-1.3,0.9-2.9,1.3-4.3c0.3-0.9,1.1-1.2,2-1.1c1.1,0.2,1.3,1,1.1,1.9c-1.1,5.5-3.2,10.5-8,13.8c-0.9,0.6-2.1,1.4-3.3,0.9
				c-6.1-2.8-13.2-3.7-18.3-8.5c-1.7-1.6-3-3.2-3.8-5.6c-0.6-2-2.1-4.8-5.4-2.8c-0.1,0.1-0.4,0.2-0.5,0.1c-7-4.7-9.9,3-14.1,5.3
				C1039.7,923.9,1028.3,927.6,1014.9,929.5z"/>
			<path d="M1194.6,375.6c-1.9-1.4-1.9-3.4-2-5.1c-1-10.9-4.8-21-8.9-31c-3.6-8.9-5.6-18.4-8.7-27.5c-0.8-2.4-1.8-4.6-2.7-7
				c-0.9-2.4-3.5-4.3-1.5-7.5c0.4-0.6-0.7-2.5-1.5-3.5c-4-4.9-6.4-10.9-10.9-15.4c-3.2-3.2-3.7-7.7-5.7-11.5
				c-0.7-1.4,0.5-2.2,1.2-1.8c2,1.2,5.2,0.9,5.9,3.7c2.4,9,8.8,16,12.3,24.3c3.5,8.5,7.4,17.1,9,26.4c2,11.8,7.6,22.6,11.2,34
				c2,6.3,2.7,12.7,3.4,19.1C1195.8,373.7,1196.1,374.8,1194.6,375.6z"/>
			<path d="M1209.1,913.6c-0.9,2.3-2.8,0.9-3.7,2.5c5.1,0.7,10,1.4,14.9,2.2c-5,2.5-10,0.3-14.9,0.2c-8.5-0.1-16.9-0.8-25.4-1.4
				c-3.8-0.3-5.6,4-9.8,3.4c-3.6-0.5-5.3-4.6-9.3-3.9c-1.4,0.3-3.2-0.5-4.3,0.5c-4.2,3.5-6.6,0.4-8.2-2.7c-1.3-2.4,1-3.6,3.1-3.7
				c9.1-0.4,9.1-0.3,6.7-8.9c-1.1-4-2.4-7.9-3.5-11.9c-0.4-1.3-0.3-3,1.2-3.3c1.6-0.3,1.4,1.5,1.7,2.5c1.8,5.9,4.1,11.6,5.1,17.7
				c0.2,1,0.3,2,1.5,2.8c7.4,4.7,15.7,5.3,23.9,4.2c6.2-0.8,12.2-0.8,18.4-0.5C1207.3,913.2,1208,913.4,1209.1,913.6z"/>
			<path d="M1079.6,195.1c-0.2,3.3-2.7,5.5-1.8,8.8c0.3,1.3-1.3,2.1-2.3,1.1c-2.8-2.7-6.4-2.3-9.7-3.1c-3.4-0.8-8-1.3-5.2-6.9
				c0.5-1-0.6-1.4-1.1-1.9c-1-1.1-2.2-2.1-2.9-3.4c-1.6-2.7-3.8-6-0.8-8.6c2.4-2,6-2.7,9-0.2c0.5,0.4,1,1.3,1.6,0.8
				c3.6-3.8,9.7-2.7,13-6.9c1.7-2.3,3.1-1.7,4.9-0.3c2.3,1.8,2.6,4,0.9,6c-0.9,1-2.7,3.8-4.3-0.2c-0.7-1.6-10.6,1.5-12.6,3.9
				c-2.7,3.2-2.2,6.4,1.6,9.9c-0.9,2.1-2.9,1.7-4.6,1.8c-0.9,0.1-1.8,0.3-1.8,1.3c-0.1,1,0.9,1.3,1.7,1.5
				C1070.3,199.5,1075.7,200.9,1079.6,195.1z M1064.3,192.1c-0.1-2.5-1-4.4-0.2-6.3c1.2-2.9-1.8-3-2.9-4.3c-0.7-0.9-1.8-0.6-2.6,0.2
				c-1.4,1.4-1.1,3.1-0.5,4.6C1059.2,188.9,1060.8,191.1,1064.3,192.1z"/>
			<path d="M791.2,236.4c-2.8,7.1,3.7,11.6,4.3,17.6c0.3,3,0.4,5.8-3.4,7.2c-3.3,1.2-3.5,3.3-0.2,5.2c1.2,0.7,2.5,1.5,1.8,3.1
				c-0.7,1.5-2.2,2-3.8,2c-1.6,0-2.5-1.2-2.2-2.7c0.4-1.9,0.5-3.8-1.3-4.9c-0.6-0.4-1.9,0.2-2.6,1.6c-1.2,2.5,0.4,3.7,2,5.3
				c-2.9,0-5.7,1.8-8.1-1c-1.2-1.4-2.4-0.1-3.4,0.6c-1.3,0.9-2.6,2.7-4.3,1.1c-1.6-1.4,0.3-2.7,0.8-3.9c2-4.6,4.8-6.8,10.5-7.3
				c2.8-0.3,6.5-0.1,9.5-1.7c2.1-1.1,2.2-5.9,0.1-7.9C786.4,246.7,786.2,240.4,791.2,236.4z"/>
			<path d="M1023.7,535.9c2-5.2-1.7-9.9,0.6-14.7c0.7,5.3,2.7,10.6,1.4,16c-0.7,3-0.2,4.9,1.9,7.1c2,2.2,3.5,4.8,5.1,7.4
				c0.4,0.6,1,1.7-0.1,2c-0.6,0.2-1.4-0.5-2.5-0.9c1.1,4.9,3.7,7.7,8.9,8c-3,3.3-7,2.6-9.9-2c-2.2-3.5-4.3-7.2-5.8-11
				c-3.8-9.6-5.3-19.6-4.7-29.8c0.1-1.9,0.4-3.8,2.3-4.7c1.7-0.8,3.4-0.7,4.1,1.4c0.5,1.6,0.6,3.2-2.1,2c-0.8-0.4-1,0.7-1,1.3
				C1021.9,523.7,1021.3,529.7,1023.7,535.9z"/>
			<path d="M950,153.3c-5.8,3.7-6.4,10.8-11,16.2c-1.2-4.5,1.6-7.2,2.6-10.2c2.3-7,8.4-9.8,14.3-12.9c0.6-0.3,1.4-0.5,1.8,0.2
				c0.3,0.5,0.4,1.3,0.2,1.8c-0.5,1-1.3,1.9-1.9,2.9c-5.6,7.7-5.1,15.7-1.2,23.9c0.3,0.7,1.1,1.3,1.3,2.1c0.3,1.5,0.3,3-0.9,4.2
				c-0.8,0.8-1.5,0-2.2-0.2c-1.5-0.5-3.1-1.4-2.4-3.1c0.9-2.3-0.1-2.8-2-3.4c-2.4-0.8-2.1-2.5-2-4.8
				C946.7,164.1,947.7,158.7,950,153.3z"/>
			<path d="M823,335.8c1.9,20.6,2.4,40.4-6.9,59c-1,2-1.7,6.1-4.4,4.8c-2.9-1.4,0.5-3.8,1.2-5.8c3.9-11.1,6.5-22.5,7.1-34.3
				c0.3-5.8,0.4-11.6,0.7-17.4C820.9,340.2,820.5,338.1,823,335.8z"/>
			<path d="M649.6,605.6c-2.3-2.2-2.8-4.4-3.5-6.4c-8.1-22-15.9-44.1-16.9-67.9c-0.4-8.1-2.1-16.2,0.1-24.3c0.3-1.1,0.1-2.8,1.6-2.6
				c1.8,0.1,1.1,1.8,0.9,2.8c-2.5,10.5,0.3,20.8,0.7,31.2C633.4,561.7,642.7,582.9,649.6,605.6z"/>
			<path d="M947.1,99.4c0.5-9.8,9.7-13.4,11.3-21.4c-1.4,1.3-3,2.5-4.2,4c-2.5,3.3-5.1,1-6.7-0.3c-1.6-1.3-0.5-4,1.2-5.1
				c2.2-1.5,2.5-3.2,2.4-5.6c-0.1-2.4,0.8-4.9,3.3-5.6c2.8-0.8,2.7,2.3,3.6,3.8c2.6,4.6,5.1,9.2,7,15.4c-3.5-3.5-4.5-1.4-6.4,0.8
				C954.8,89.7,951.5,94.2,947.1,99.4z"/>
			<path d="M1101.7,381.4c7-0.2,13.3-1.1,19.8,0.4c4.1,0.9,8-2.9,11-6c10.1-10.3,15.2-23.2,19.7-36.6c2.1-6.4,3.1-13.1,7.2-20.3
				c0.5,5.5-1.7,9.1-2.7,12.7c-4,14.2-8.5,28.3-17.6,40.3c-2.9,3.9-6.3,7.2-10.4,9.8c-3.6,2.3-7.2,3-11.3,1.2
				c-2.8-1.2-5.7-1.5-8.7-0.5C1106.5,383.2,1104.1,383.7,1101.7,381.4z"/>
			<path d="M678.2,412c-2.3,0.5-3.8,0.8-4.7-2.6c-2.1-7.7-7.8-13.9-9.7-21.7c-0.2-1-0.6-1.9-1-2.8c-0.7-1.8-0.7-3.5,1.3-4.1
				c1.8-0.6,2.5,1,3.2,2.4c0.7,1.3,0.6,3,2.3,3.7c1.4-1,2.5-2.4,2.2-4.1c-0.4-2.1,0.8-3,2-4.2c0.9-0.9,1.6-1.9,2.8-1.1
				c0.9,0.6,1.2,2.1,0.5,2.7c-3.7,3.1-1.5,9-6.1,11.7c-1.7,1,0.6,6.5,2.9,6.4c1.7-0.1,1.9,0.3,2.1,1.6c0.6,4.1,1.3,8.2,1.9,12.2
				C678,412.2,678.2,412,678.2,412z"/>
			<path d="M1087.7,178.3c4.4,0.1,8.1,0,8.9,5.2c0.3,2.2,1.7,3.9,3.4,5.4c2,1.7,3,3.6,1.3,6c-0.5,0.7-0.8,1.7-0.2,2.3
				c4.2,4.1,5.8,10.7,12,12.9c2.3,0.8,2.9,2.3,2.9,4.5c0.1,4.4-0.4,8.7-3.6,12c-1.7,1.8-1,4.5-3,6.3c-2.2-2.2-1.4-4.3-0.3-6.4
				c1.2-2.2,2.5-4.3,3.1-6.7c1-3.9,1-6.6-3.4-8.8c-5.2-2.7-7.1-9-10.9-13.3c-0.8-0.9-0.4-2.3,0.2-3.3c0.8-1.4,0.7-2.4-0.6-3.4
				c-2.1-1.8-3.7-3.7-2.6-6.9c0.5-1.5-1.2-1.6-2.2-2.1C1091.1,181.1,1089,180.9,1087.7,178.3z"/>
			<path d="M926.3,95.5c0.1-3.7,1.9-5.1,3.1-6.4c8.4-9,11.6-21.2,19.2-30.6c0.7-0.9,1.3-1.9,2-2.9c0.9-1.3,2.3-2.6,3.7-1.5
				c2,1.5-0.3,2.5-1,3.6c-4.3,6.3-8.5,12.6-11.7,19.6C938.4,84.2,933.5,90.2,926.3,95.5z"/>
			<path d="M967.8,177.3c-2.6-3.9-6.2-7.4-5.7-12.9c0.6-7.7,2.8-15,6.7-21.7c0.8-1.4,1.5-3.8,3.4-2.7c1.7,0.9,1,3.4,0.1,4.9
				c-1.8,3.2-3.4,6.5-4.3,10c-1.6,6.2-1.9,12.5,0.6,18.6c0.4,1,0.4,2.2,0.5,3.3C968.7,176.9,968.2,177.1,967.8,177.3z"/>
			<path d="M1028.6,622.3c-2.3-0.9-3.6,1-5.4,1.7c-1.5,0.6-3.2,0.2-3.8-1.4c-0.5-1.4,0.8-2,1.9-2.4c13.2-4.4,26.5-6.3,40.1-1.8
				c1.7,0.5,3.6,0.9,4.8,2.9c-1.7,1.2-3.4,0.4-5,0c-8.8-1.9-17.7-3.1-26.7-1.1c-2.1,0.4-4.3,0.7-6,2.2
				C1028.5,622.3,1028.6,622.3,1028.6,622.3z"/>
			<path d="M775.3,295.9c-8.8-0.4-17-2.9-25-6.3c-1.2-0.5-2.8-1-2.2-2.8c0.5-1.8,2-1,3.4-0.9c5.1,0.3,9,4,14.1,4.4
				c3.8,0.3,7.5,1.2,11.3,1.8c1.5,0.2,3.8-0.5,3.8,2c0,2.7-2.4,1.5-3.8,1.8C776.4,296,775.8,295.9,775.3,295.9z"/>
			<path d="M958.9,122.4c3.9-5.5,7.9-8.6,13.4-9.5c5.7-1,6.1-1.6,4.3-6.6c2.4,4.5,8.8,3.8,10.9,8.8c0,0.1,0.3,0.1,0.4,0.2
				c1.2,0.9,4.3-0.2,3.6,2.2c-0.8,2.5-3.5,0.8-5.3,0.6c-6.6-0.7-13.3-3.8-19.9,0.1C964.2,119.3,962.2,120.5,958.9,122.4z"/>
			<path d="M661.8,353c-5.7-11.2-5.1-22.8-2.4-34.4c0.4-1.9-0.3-6,2.8-5.3c3.5,0.8,1.1,4.2,0.7,6.3
				C660.9,330.7,659.7,341.8,661.8,353z"/>
			<path d="M1052.4,677.9c1.4,6.2,4,11.4,6.8,16.6c4.4,7.9,9.5,14.8,18.7,17.4c1,0.3,2.6,0.5,2.1,2c-0.5,1.4-1.9,1-3,0.6
				c-4.9-1.7-9.6-3.7-13-7.9c-5.7-6.9-9.7-14.7-12.6-23C1050.8,682,1050.1,679.9,1052.4,677.9z"/>
			<path d="M697.4,734.2c-1.4-0.8-3.4,0.4-5-2.1c5.7-0.1,10.3-2.2,14.3-5.8c0.9-0.8,3.1-0.6,2.9,0.3c-0.8,3.3,0.5,7.3-2.1,9.9
				c-2.9,2.9-8.3,3.1-10.9,1C694.4,735.9,697.8,735.5,697.4,734.2z"/>
			<path d="M1069,413.9c-2.2,5.3-8.5,6.7-11.3,11.5c-0.2,0.3-0.9,0.5-1.2,0.5c-0.8-0.1-1.2-1-0.9-1.5c3.2-6-3.3-6.8-5.4-10
				c1.1-1.2,1.9-0.5,2.9,0.2c5.2,3.7,9.2,1.9,9.9-4.5c0.2-1.5,0.4-3,1-4.3c0.5-0.9,2.7-1.5,2.5-0.4c-0.7,3.5,3.1,5.5,2.2,8.8
				C1068.9,414,1069,413.9,1069,413.9z"/>
			<path d="M929.9,78.5c-2.3,0.4,1.3-5.3-3.3-2c-1.2,0.9-1.4-1.3-0.7-2.2c1.5-2.2,3.1-4.3,4.9-6.2c1.5-1.6,3.2-2.9,5-4.1
				c1.8-1.2,3.4-5,5.3-2.9c1.4,1.5,0.4,5.7-1.7,7.7C936,71.9,932.7,75.4,929.9,78.5z"/>
			<path d="M688.6,738.5c-2.7-1.2-2.9-3.9-3.1-6c-0.8-9.7-4.1-19.3-1.3-29.1c0.3-1.3,0.1-2.7,1.4-3.5c0.4-0.2,1-0.3,1.4-0.2
				c0.3,0.1,0.6,0.8,0.5,1.1c-3.8,12.3,0.8,24.2,1.5,36.3C688.9,737.5,688.7,737.9,688.6,738.5z"/>
			<path d="M743.1,243.8c-2.6-3.5,0.2-6.6,1.2-9.6c1.4-4.3,4-8.4-1.8-11.6c-0.9-0.5-1.5-1.9-0.5-3.1c1.2-1.4,1.9,0,2.8,0.6
				c5.7,4,6.6,6.5,4.2,13c-1.4,3.9-2.7,7.9-6.1,10.7L743.1,243.8z"/>
			<path d="M751.6,869.6c1.3-0.6,2.4-2.4,3.9-0.8c1.1,1.1,0.3,2.5-0.2,3.7c-0.4,1.1-0.5,2.3-1.1,3.3c-2,4-2.5,7.2,4.1,7.8
				c-2.9,2.1-4.9,3.2-6.7,0.1c-0.5-0.8-1-1.7-2.2-1.6c-5.4,0.2-3.7-3-2.4-5.5C748.2,874.1,750,871.9,751.6,869.6
				C751.6,869.6,751.6,869.6,751.6,869.6z"/>
			<path d="M1033,223.2c5.3,6.3,6.2,19.4,1.9,25.8c-0.5,0.7-0.9,1.5-1.8,1.3c-0.8-0.1-1.2-0.9-0.9-1.5c3.6-8.3,0.5-16.6,0.3-25
				C1032.4,223.7,1032.8,223.5,1033,223.2z"/>
			<path d="M778.5,389.5c1.2-8.9-0.5-16.3-3.1-23.6c-0.6-1.7-1.4-4.5,1.1-5.2c2.3-0.6,3,2.4,3.1,3.7c0.6,6.5,3.2,12.7,2.5,19.3
				C781.8,385.9,781.3,387.5,778.5,389.5z"/>
			<path d="M977.5,126.2c0.3,0.9,0.2,2-0.8,1.9c-1.6-0.1-3.4,0.6-4.6-0.9c-0.6-0.7-0.8-2.3-1.9-0.7c-1.4,2.1-2.3,4.4-3.7-0.1
				c-0.3-1.1-1.7,0.2-2.5,0.6c-1.2,0.6-2.6,1.5-3.5,0c-1.1-2,0.9-2.4,2.1-3.1c1.9-1.1,3.6-2.4,5.6-3.2
				C972,119,977.4,122.4,977.5,126.2z"/>
			<path d="M1079.6,574.3c6,6.4,11.9,12.9,18,19.2c1.8,1.9,4,3.5,5.9,5.3c0.6,0.6,1.8,1.4,0.9,2.5c-0.9,1.1-1.9,0-2.5-0.5
				c-3.5-3.3-7.2-6.4-10.4-10c-4.5-4.9-9-10-12.7-15.6C1079,574.9,1079.3,574.6,1079.6,574.3z"/>
			<path d="M1081.1,558.3c5,10.7,12.5,19.5,22.1,28.3C1094.4,585,1081.7,568.3,1081.1,558.3z"/>
			<path d="M743,243.9c4.5,2.4,2.7,7.2,3.7,10.7c1.4,5-0.4,10.5,1.3,15.7c0.2,0.7,0.1,1.8-0.3,2.4c-0.7,1.1-0.6,3.5-2.7,2.7
				c-1.4-0.5-1-2.1-0.6-3.5c2-6.9,0.2-13.5-1.9-20c-1-3,0.5-5.5,0.6-8.3C743.1,243.8,743,243.9,743,243.9z"/>
			<path d="M699.9,512.7c-0.3-9.6,3.2-17.9,8.7-26.4C709.4,496.9,703.2,504.3,699.9,512.7z"/>
			<path d="M661.9,501.5c1.2-5.4,0.9-10.9,2.3-16.2c1.5-5.7,1.5-5.7-4.5-4.8c2.8-3.9,8-0.7,10.8-4c0.4-0.4,1.6,0.8,0.8,1.5
				c-4.9,4.5-4.9,10.8-6.3,16.6C664.3,497,663.8,499.5,661.9,501.5z"/>
			<path d="M1120.3,882.8c3.4-0.4,7.4-3.4,8,3.5c0.2,2.7,3.7,4.4,7.2,3.1c1.3-0.5,2.5-1.9,4.1-0.8c-3.1,5.3-8,6.2-12.5,2.1
				C1124.7,888.2,1123.4,884.8,1120.3,882.8z"/>
			<path d="M1111.2,418c-9.9-2.9-18.4-7.4-20.5-18.9C1095.9,407.3,1103.6,412.6,1111.2,418z"/>
			<path d="M683.9,549.4c-3.6,8.8-9.3,16-15.6,22.8c-1,1.1-2.3,1.9-2.6,3.6c-0.2,1-0.3,2.8-2,1.9c-1.1-0.6-0.6-2.1-0.1-3.2
				c1.5-3.3,4.6-5.2,6.7-8C674.7,560.7,679.3,555,683.9,549.4z"/>
			<path d="M1107,591c-2.7-2.4-3.5-5.3-3.7-8.3c-0.2-3-2.6-5-3.1-7.8c7.1,4,7.1,4,7.1,5C1107.2,583.5,1111.1,587.1,1107,591z"/>
			<path d="M1091.9,258.6c-9.3-1.7-18.1-0.4-26.2,4.6c-0.8,0.5-1.6,0.5-2.1-0.5c-0.4-0.8,0.2-1.3,0.7-1.6
				C1070,257,1084.7,252.5,1091.9,258.6z"/>
			<path d="M778.8,239.7c-0.8,3.1-3.7,3.7-5.8,3.1c-2.3-0.6-3.8-1-5.6,0.8c-0.8,0.8-2.2,1.2-3.1,0.1c-0.9-1.2,0.2-2.1,1-3
				c2.8-2.7,6.1-4.5,10.2-4.2C777.6,236.6,778.5,237.7,778.8,239.7z"/>
			<path d="M765.5,886.4c5-2.4,6,1.7,7.5,5.1c0.3,0.7,0.4,1.3-0.4,1.4c-1.7,0.4-3.9,2-5.1,0.4c-1.5-1.9-3.3-3-5.4-4
				c-0.9-0.4-2.7-1.3-1.9-2.9c0.6-1.2,2-0.6,3.1-0.3C763.9,886.3,764.6,886.3,765.5,886.4z"/>
			<path d="M1122.7,360.5c-11.5-2.2-16.2-12-22.4-20.1C1108.2,346.5,1112.9,356.4,1122.7,360.5z"/>
			<path d="M660.4,476.2c-3.1-1-4.9-3.3-6.3-5.8c-1.3-2.3-2.5-2.3-3.9-0.2c-1.2,1.8-2.3,3.6-5.1,4.9c0-5.8,6.3-7.6,6.4-13.2
				C656,466.3,655.6,472.8,660.4,476.2z"/>
			<path d="M659.1,365.7c-2.8,0.5-5.8,1.2-7.8-1.6c-1.3-1.9-0.6-4.2,0.2-6.2c0.3-0.9,0.8-1.9,2.1-1.8c1.3,0.1,1.7,1.2,1.5,2.1
				c-0.6,3.2-0.5,5.5,3.8,5.2C660.5,363.4,658.9,364.9,659.1,365.7L659.1,365.7z"/>
			<path d="M1110.6,531.9c4.3,4.3,6.4,10,9,15.3c0.3,0.7,0.1,1.4-0.6,1.6c-1.3,0.4-1.7-0.6-2.2-1.5
				C1114,542.5,1112.1,537.3,1110.6,531.9z"/>
			<path d="M1193.1,390c0-2.3-0.5-4.8,0.5-7.2c0.3-0.7,0.6-1.6,1.6-1.5c1.1,0.1,1.2,1.1,1.1,1.9c-0.1,4.3-0.2,8.6-0.4,12.9
				c-0.1,1-0.8,2-1.9,1.9c-1.4-0.1-1.3-1.4-1-2.3C1193.4,393.7,1193.3,391.9,1193.1,390z"/>
			<path d="M751.6,869.6c-2.4-5.1,0.5-10.3-0.4-15.5c-0.1-0.8,0.5-1.7,1.4-1.7c0.9,0,1.3,0.9,1.3,1.8
				C754.1,859.4,754.1,864.7,751.6,869.6C751.6,869.6,751.6,869.6,751.6,869.6z"/>
			<path d="M1060.1,162.1c-3.7-2.9-7.5-5.8-11.2-8.8c-0.8-0.6-1.6-1.5-0.9-2.5c1.1-1.6,2-0.1,2.8,0.6
				C1054.3,154.5,1058.8,156.5,1060.1,162.1z"/>
			<path d="M684.3,893.3c-3.1-0.8-6.6,0.9-8.2-3c-0.5-1.4-0.9-3.2,0.7-3.9c1.4-0.7,3.5-0.8,3.8,1.5
				C681,890.2,683.8,890.3,684.3,893.3z"/>
			<path d="M829.6,181.3c-2.3-5.8-1.2-12.7-6-17.6C829.7,168.1,830,168.9,829.6,181.3z"/>
			<path d="M684.2,473.5c4,4.6,4.2,10.3,8.5,13.9C688,486.7,684.1,480.6,684.2,473.5z"/>
			<path d="M678.8,900.8c0.6-2-0.2-4.4,2.5-3.8c1.9,0.4,4.2,1,4.4,3.2c0.3,2.7-2.1,1.8-3.5,1.7C681,901.8,678.8,903,678.8,900.8z"/>
			<path d="M737.2,267c-0.1-1.3-0.1-2.9,1.4-2.7c2.7,0.3,3.3,2.9,3.8,5c0.4,1.5-0.9,2.9-2.7,2.6C736.5,271.6,738.1,268.6,737.2,267z
				"/>
			<path d="M938.2,178.1c-0.4-0.5-1-1-0.9-1.1c1.5-2.6,3.1-5.3,4.8-7.8c0.4-0.5,1.3-0.2,1.6,0.5c0.6,1.7-0.3,3.4-1,4.6
				C941.7,175.9,939.8,176.8,938.2,178.1z"/>
			<path d="M1073.5,790.5c0.4-4.7,0.7-9.5,1.1-14.2c0.5,0,1.1,0.1,1.6,0.1C1075.7,781.1,1076.6,785.9,1073.5,790.5z"/>
			<path d="M1143.9,883c0.7-0.3,1.4-0.7,2.1-1c1.5,0,3.2-1.2,4.5,0.6c0.6,0.8,1.6,1.5,1.1,2.5c-0.5,1.2-1.7,0.8-2.5,0.3
				c-1.4-0.9-2.5,0.4-3.7,0.5C1142.6,886.1,1142.7,884.9,1143.9,883z"/>
			<path d="M1093.6,372.9c-3.1-2.9-4.6-6.4-4-10.7C1092.2,365.2,1093.3,368.9,1093.6,372.9z"/>
			<path d="M664.2,356.5c4.3,0.4,3.8,3.5,3.6,6.2c-0.1,0.8-0.7,1.8-1.6,1.3C663.2,362.2,664.2,359.3,664.2,356.5z"/>
			<path d="M779.6,272.4c3,1.2,6-0.7,7.4,2.2c0.6,1.1-0.8,2.1-2,2.3C782.1,277.5,780.7,276,779.6,272.4z"/>
			<path d="M1008.1,238.5c0.1,1.3-0.6,2.1-1.8,1.6c-2.2-1-3.4-3-4.2-5.1c-0.3-0.7,1-1.7,1.6-1.3
				C1005.6,234.9,1008,235.8,1008.1,238.5z"/>
			<path d="M659,365.6c-0.6,1.5,2.8,1.2,1.4,3c-0.9,1.2-1.7,2.5-3.4,2.6c-0.9,0.1-1.7-0.1-1.9-1c-0.3-1.5,0.9-2.4,1.9-3.3
				C657.6,366.4,658.4,366.1,659,365.6C659.1,365.7,659,365.6,659,365.6z"/>
			<path d="M1032.9,414.6c0,1-0.2,2.2-1.1,2c-2.7-0.5-2.5-3.1-3.1-5c-0.3-1,0.2-1.8,1.2-1.5C1032.1,410.7,1032.1,413,1032.9,414.6z"
				/>
			<path d="M684.7,830.3c-3.9,0.2-6.3-1.6-8.1-5.3C680.6,825.4,682.1,828.8,684.7,830.3z"/>
			<path d="M790.2,283.8c-1.8-2.6-1.1-5-1.7-7.2c-0.2-0.8-0.2-1.7,1-1.8c1,0,1.5,0.7,1.5,1.6C790.9,278.7,791.4,281,790.2,283.8z"/>
			<path d="M1051.2,361.7c-1.3-3-0.3-5.8,0.5-8.6c0.2-0.8,0.9-1.5,1.9-0.9c0.7,0.4,0.5,1.2,0.2,1.8
				C1052.4,356.3,1052.1,359.1,1051.2,361.7z"/>
			<path d="M775.1,895.3c2.3,2.8,4.1,4.8,5.8,6.8C776.9,902,775,900.1,775.1,895.3z"/>
			<path d="M828.4,311c4.7,0.6,5.3,1.1,6.1,6C832.3,315,829.3,314.5,828.4,311z"/>
			<path d="M749.4,719.2c1.2,0,2,0.7,2.4,1.6c2.2,5.5,5.9,10.2,7.7,15.9c0.3,1,0.9,1.8,0.1,2.7c-0.9,1-2.2,0.7-3.3,0.2
				c-3.9-1.7-6.3-6.2-5.6-10.5c0.5-2.8-0.8-5.2-2.1-7.5C747.9,720.4,747.8,719.6,749.4,719.2z"/>
			<path d="M751.2,699.3c1.3,4.4-1.7,7.4-2.8,11.1C746.8,706,748.7,702.6,751.2,699.3z"/>
			<path d="M728.7,444.6c1.5,0.2,2.9,0.2,2.5,2c-0.6,2.3-7.8,4.8-9.5,3.2c-0.9-0.8-1-2,0-2.5C724,446.2,726.5,445.4,728.7,444.6z"/>
			<path d="M756.5,531.2c-3.9,6-6.6,13.2-14.6,14.7c-1.4,0.3-2.6-0.5-3-2.5c7.9-0.2,11-6,14.1-11.9c0.9-1.8,1.6-4.1,4.1-3.5
				c2.9,0.6,1.6,3.3,1.6,5c0,4.5-2.5,8.2-4.9,11.6c-2.9,4.2-5.4,8.7-9.1,12.3c-0.6,0.6-4.8,3,0.3,3.8c0.1,0,0.2,0.9,0,1.2
				c-0.7,1.1-1.9,1.4-3.1,1.2c-1.1-0.1-1.8-1-1.7-2.1c0-2.1,1.3-3.7,2.6-5.2c5.2-5.8,9.3-12.4,13-19.3
				C756.6,535,757.7,533.5,756.5,531.2z"/>
			<path d="M754.9,495.6c0.2-5.4,2.9-9.2,6.9-9.2c2.8,0,5.9,3.4,5.7,6.4c-0.2,4.1-5.1,9.9-8.1,9.4
				C756.3,501.6,754.5,499.7,754.9,495.6z M759.6,499.2c2.6-0.1,3-2.4,4-3.9c0.9-1.4,1.5-3,0-4.5c-0.8-0.8-1.7-1.1-2.7-0.6
				c-0.8,0.4-1.2,1.1-0.6,2c1.3,2.1,0.8,3.7-1.4,4.7c-0.7,0.3-0.9,0.9-0.5,1.5C758.7,498.9,759.3,499,759.6,499.2z"/>
			<path d="M766.2,461.1c-0.6-5.1-5.1-9.8-1.3-15c1.5-2,2.5-5.9,5.6-4c3,1.9,1.9,7.6,0.6,8.3C766,452.8,767.4,457.3,766.2,461.1z"/>
			<path d="M762.3,481.3c-1.9-4-2.4-7.9,1.3-11.1C762.7,473.8,762.5,477.5,762.3,481.3z"/>
		</g>
	</g>
</g>
</svg>
