<?xml version="1.0" encoding="utf-8"?>
<!-- Generator: Adobe Illustrator 22.0.1, SVG Export Plug-In . SVG Version: 6.00 Build 0)  -->
<svg version="1.1" id="Lag_1" xmlns="http://www.w3.org/2000/svg" xmlns:xlink="http://www.w3.org/1999/xlink" x="0px" y="0px"
	 viewBox="0 0 1920 1080" style="enable-background:new 0 0 1920 1080;" xml:space="preserve">
<g id="_x34_0bmFz_1_">
	<g>
		<g>
			<path d="M1176.4,623c-2.6,3.8-6.4,1-9.5,1.8c-2.1,0.6-5-1.8-6.2,1.8c-0.1,0.4-0.3,1.6-1.1,0.5c-5.4-7.6-13.4-4.2-20.4-5
				c-3-0.3-3.3,2.4-4,4.5c-2.7,8.4-5.4,16.9-8.2,25.3c-0.8,2.2-1.1,4.8-3.5,6.9c-1.2-5.3,1.8-9.2,2.9-13.4c1.9-7,4.5-13.9,6.9-20.8
				c0.9-2.5,0.9-3.5-2.3-2.8c-1.3,0.3-3-0.6-4.3-1.3c-1.4-0.8-0.9-2.4-0.7-3.7c0.2-1,1.1-1.6,2-0.9c5.5,4.3,5.4-0.9,5.9-3.7
				c2-10.4,3.9-20.8,5.2-31.3c1.1-8.4,3.8-16.7,1.8-25.5c-0.9-4.3,4.1-7.5,4.8-12c1.1-7.9,2.3-15.8,5.6-23.2c1.4-3.2-3.9-0.5-3-3.4
				c6.3-2.6,13.3-2.5,19.6-5.6c1.7-0.8,3.1-1.5,3.6-3.5c4.6-16.4,12.4-31.9,15.4-48.8c1.8-10.2,2-20.8,4.7-30.9
				c0.7-2.8-1.2-3.7-3.5-3.5c-6.2,0.6-12.1-2.4-18.4-2c3.6,0.5,5.1-2.9,8-4.3c-7-3.7-14.2-1-21-1c-26.8,0.1-53.6,1.5-80.4-0.7
				c-8-0.7-16.2,0.4-24.2-0.3c-18-1.5-36,1.5-53.9-0.5c-1.3-0.1-3.2-0.4-4.4,1.6c18.2,3,36.2,1.6,54.2,1.5c23.7-0.1,47.3,1.8,71,1.8
				c9.5,0,19.1,0.8,28.7,1c1.8,0,3.6-0.2,4.9,1.6c-1.4,2.1-3.5,0.9-5.2,1c-24.2,1-48.3-1-72.4-1.6c-19.2-0.5-38.3-0.5-57.5-1
				c-20.5-0.6-41-3.4-61.5-2.4c-10.6,0.5-21.1,0.9-31.7-0.1c9.6,2.7,18.3,7.9,28.1,9.2c2.6,0.4,2.8,1.8,3.2,4.1
				c0.9,5.7-0.6,11.6,0,17c1.6,14.7-2.3,28.7-3.4,43c-2.1,27.6-3.4,55.2-5.2,82.7c-0.2,3.4-0.7,7.3-4.3,12.1c1-8.1-0.8-7.1-5.5-5.1
				c-9,3.8-19.1,3.3-28.5,5.8c-14.5,3.9-29.7,4-44.2,9.1c-0.4-4.2,5-3.8,4.3-7.4c5.9-1.6,12,1,17.7-0.1c15.6-2.8,31.2-6,46.9-8.3
				c4.5-0.7,8.9-3.7,9.5-9c2.7-20.8,3.3-41.7,4.1-62.6c0.6-17.5,0.9-35,1.4-52.5c0.2-5.6-0.3-8.3-2.5-10.1
				c-4.9-3.9-11.3-4.5-16.8-7.1c-1-0.5-2,0.4-1.9,1.2c1,5.7-3.4,5.6-6.7,6.9c-0.9-2.5,0-4.5,1.1-6c1.9-2.5,1.6-3.7-1.2-5.1
				c-9.7-4.9-19.9-8.3-29.9-12.4c-1-0.4-2.6-0.6-2.9-1.4c-2.1-4.2-6.1-3.1-8.7-2.2c-3.1,1-2.6,5.1-3.1,8c-0.6,3.5,1.3,7.8-4,10.5
				c0.6-5.6,0.9-10.5,1.7-15.2c0.4-2.2,0.6-3.7-2.1-3.5c-1.9,0.1-4.8-1.5-5.2,2.3c-1.1,9.9-3.3,19.8-2.2,29.8
				c1.3,11.8,2.9,23.5,2.1,35.3c-0.6,8.4-1.9,16.8-2.8,25.1c-1.4,12.8,0.2,25.6-0.8,38.5c-0.9,12.6-1.6,25.4,0.7,38.1
				c-0.5,1-1,1.9-1.5,3c-3.5-4.9-1.5-10.9-2.9-17.5c-2.8,6-2.3,11.3-2.8,16.3c-0.3,2.3,2,3.6,4.2,4.4c1.6,0.6,3.7,1.6,3,3.8
				c-0.8,2.3-3.1,2.4-5.1,2c-4-0.7-5.8-3.2-5.2-7.1c0.9-6.8,1.9-13.7,0.2-20.9c-4,14.9-8,29.7-12.2,45.3c-2-1.4-0.8-4.4-3.3-4.5
				c-1.1,0-2.4-0.5-1.9-2c0.4-1.5,1.6-1.3,2.6-0.7c3.6,1.8,2.4-1.5,2.7-2.7c3-11,6.9-22,8.1-33.2c0.7-6.7,4.9-12,4.9-18.6
				c0-7.2,1.3-14.6-0.1-21.4c-2.3-11.3,1.5-22.4-0.7-33.7c-2-10,1.9-20.3,0.8-30.7c-1.7-15.5-2.1-31,0.2-46.5
				c0.4-2.8-3.1-5.3-0.2-8.4c0.7-0.8-0.7-2.8-2.2-2.4c-8.5,2.1-16.9-1.7-25.6-0.1c-5.1,0.9,0.4,2.6-1.4,3.7
				c-4.5-4.5-10.6-4.2-16.5-3.9c-12.5,0.8-24.9-1.4-37.4-1.4c-4.8,0-9.5,0.2-14.2,0.5c18.5-6.7,37.6,1,56.6-2.4
				c-7.1-6.6-16.3-10.5-21.3-19.1c2.2,1.9,4.4,3.9,6.5,5.8c-10.2-19.7-20.8-39.1-26.1-61c-1.8,14.3-3.6,28.4-5.8,42.5
				c-1.7-1-0.1-3-1.8-4.7c-3.3,9.7-8.2,18.4-12.9,27.2c-3.6,6.8,2.4,12.1,2.1,18.4c-0.1,1.2,2.2,1,3.5,1c4.2,0,8.4,0,13.5,0
				c-1.1,0.7-1.3,1-1.7,1.1c-5,0.9-11.8-2.4-14.6,1.6c-2.5,3.5-0.9,9.9-1.1,15c-0.1,2.2,0,4.5,0,7.4c3.7-1.4,6.9-0.7,9.8,1.3
				c5.2,3.7,11.3,2,17,2.9c5.7,0.9,9.6,3.8,12.6,8.4c1.3,2,2.9,4.1,4.7,5.6c4.6,3.6,1.7,6.9-0.1,10.1c-1.7,3-2.8-0.1-4-0.7
				c-1.5-0.7-2.8-0.2-3.4,1.1c-0.9,1.9,0.9,2.1,2.1,2.5c0.4,0.1,0.9,0.3,1.3,0.2c9.7-1.9,8.2,4.6,8.3,10.5c0.1,8,0.7,16.1,1.4,24.1
				c1.1,12.5-2.2,24.8-0.2,37.3c0.8,5.3-1.4,8.9-7.9,8.6c-7.3-0.3-14.5-0.2-21.8-1.9c-4.9-1.1-11.6-2.8-13.4,6.5
				c-1.2-9.1-7.4-7.2-12.7-7.2c-2.9,0-5.8,0.1-8.7,0c-4.2-0.3-6.9,0.6-4.5,5.4c1,1.9-0.8,3-0.6,4.3c0.4,2.7-2.8,7.2,4.2,6.9
				c3.3-0.2,4.1,4.9,4.8,8c3.3,14.3,3.2,14.5,17.4,14.2c15.9-0.3,31.7-0.9,47.5-1.3c3.2-0.1,4.5-1.1,5.2-4.5
				c5.6-29.5,11.5-59,17.4-88.6c0.6-2.8,1.2-5.6,2.7-8.3c-1.2,6.6-2.3,13.3-3.5,19.9c-4.7,25.7-9.3,51.4-14.3,77
				c-0.8,4.3,0.7,4.5,3.8,4.5c6.2,0,12.5,0,18.7,1c-6.3,0.5-12.7,1.2-19,1.3c-3.9,0.1-5.4,1.5-6,5.3c-2.5,14.3-5.6,28.6-7.8,43
				c-1,6.3-5,0.7-7.2,2.4c-0.9,0.7-1.5-2.5-0.9-4.2c1.2-3.5,3.1-4.3,6-0.5c2.9-14.5,5.5-28.2,8.3-41.9c0.7-3.2-0.2-4.1-3.2-3.9
				c-11.8,0.6-23.8,0.4-35.4,2c-3.3,0.5-5.9-0.7-8.9-0.5c-3.6,0.3-7.2,0.2-10.7,0c-4.8-0.3-7.5,0.4-6.1,6.5
				c0.7,3.1,2.9,6.5,0.6,11.4c-2.9-7.1-6.6-12.7-8.3-19.2c-0.5-1.9,0.3-5.3-3.6-4.6c-3.7,0.7-0.4,3.1-1,4.6c-2,5.4-1.3,9.6,6.3,12.1
				c-4.7,1.5-8.9,1.1-9.2,6.3c-0.1,2.3-5.1,0.9-6.6,3.6c-1.1-1.6-3.2-3.3-3.1-4.9c0.1-4.5-2.7-3.9-5.3-3.7
				c-4.9,0.3-9.7,1.2-14.6,1.2c-19.9-0.1-39.7-2.3-59.6-1.2c-6.3,0.4-4.5-4.6-5.9-8.9c-2,5.1-3.5,8.8-4.8,12.6
				c-0.4,1-1.9,2.2-0.2,3.5c2,1.5,1.3-3.5,3.8-0.8c-0.6,2-0.2,5.6-4.8,4c-4.1-1.4-9.7-1.5-7.6-8.4c1.1-3.6,2.6-7,4.2-10.5
				c1.6-3.6,2.4-6.7-3-7.5c0.9-1.5,1.7-1.5,2.6-1.1c1.8,0.9,3.1,0.6,3.4-1.5c0.3-2.2-1.6-1.5-2.8-1.7c-9.1-1.8-18.1-4.1-27.3-5.2
				c-7.5-0.9-12.7-6.1-19.3-8.5c-0.9-0.3-1.5-1.2-1.2-2.1c0.4-1.2,1.4-1.6,2.6-1.7c3.2-0.2,6.2,0.9,9,2.1c9.6,4.2,19.9,5.8,29.9,8.5
				c3.4,0.9,5.4,0.2,5.3-4.1c-0.3-8.5-0.1-17-0.1-25.5c0-4.5,0.3-8.8-4.6-11.4c-3.2-1.7-3.7-4.5-1.8-7.4c1.2-1.9,1-3.8,1-5.8
				c-0.1-27.3,3.1-54.4,2.8-81.7c0-4.2,1.5-8.3,1.2-12.6c-0.2-3.3-1.2-4.8-4.8-4.7c-12,0.6-24.1,0.9-36.1,0c-2.5-0.2-4.8,0-4.8,3.7
				c-0.3,13.8-0.8,27.7-1.3,41.5c-0.1,2.1-0.6,5.1,2.7,4.8c2.2-0.2,0.9-2.8,1.3-4.3c1.9-7.5,1.1-15.1,1.4-22.6c0.1-2,1.6-5.2,2.2-5
				c2.1,0.8,5.7,0,5.8,3.9c0,2.3,1.2,3,2.9,1.5c3.3-3.1,6.8-1.6,10.3-0.4c-1.2-5-1.2-5-12.5-9.8c7.3-3.9,13.7,1.1,16.7,9.5
				c5,13.9,6.1,28.4,5.1,44.9c-1.7-6.7-0.6-11.9-2-17.1c0,4.4,0,8.7,0,13.1c-0.1,17,0,33.9-0.3,50.9c-0.1,4.1,0.8,8.9-7.1,5.4
				c-7.8-3.5-17.2-3.5-24.7-9.3c-1.7,9.5,0.9,18.9-1.9,28c-3.8-13.3-1.8-26.8-2.6-40.2c-0.2-3.5,6.3-1.4,4.1-5.7
				c-0.4-0.8,1.5-5.6-2.3-1.2c-1.2,1.4-1.5-1.3-1.6-2.4c-2.7-23.2,0.3-46.3,0.7-69.5c0.2-10.2,0.3-20.3,1.3-30.4
				c0.1-1.2-1-2.6,0.4-3.5c3.5-2,7.2-5.5,10.7-5.4c9.6,0.4,17.5-4,26.2-7.2c-2.2,4.7-6.3,6.4-10.8,8.6c5.5,3,11.1,2,16.3,3.4
				c1.1,0.3,3.3,0.4,3.2-1.3c-0.2-5.9,4-12.2-1.1-17.8c-0.7-0.8-1.5-2.1-1.2-2.9c3-10.8-1.5-21.1-1.5-31.7c0-1.9,1.4-5.4-1.9-5.4
				c-3,0-6.9-1.8-9,1.8c-0.7,1.2-0.6,2.5-2.4,1.9c-0.5-0.2-1.1-0.8-1.3-1.3c-0.6-1.6,0.6-2.5,1.8-3.1c0.7-0.4,1.8-0.2,2.6-0.6
				c4-2.3,10.3,1,12.5-5.3c5.4,2.4,9.1-2.9,14.2-2.9c15.4,0,30.6,2.9,45.9,3.7c6.9,0.4,14,1.2,20.7,0.1c8.7-1.3,17.7-2,26-0.5
				c9,1.6,15.6-1.1,22.2-5.8c5.2-3.7,10.4-7.5,14.2-13c2.5-3.6,3.6-7.1,4.1-11.6c0.8-8.3,4.7-16.2,3.7-24.8
				c-0.2-1.5,1.3-4.3-1.4-4.2c-1.8,0.1-4.6,0.1-5.5,3.6c-1.6,6-5.2,7.5-11,5c-2.6-1.1-3.2,0.9-4.2,1.9c-1.6,1.5-0.3,3.6,1,3.7
				c3.6,0.4,6.8,0.6,5.9,5.5c1.3,0.1,2.6,0.2,4.3,0.3c-2.7,4.5-6,5.1-10.3,3.1c-4.8-2.2-3.7-7.1-3.7-10.2c0-8.2,0.7-8.2,10.2-6.1
				c2.4,0.5,5-1.7,4.4-3c-1.8-4.3,1.7-5.2,3.7-5.6c4.5-1,7.1-3.6,8.7-7.8c4.5,3.6,4.1,8.1,3.2,12.5c-1.1,5.3-2.9,10.8-3.2,15.8
				c-0.7,12.4,2.4,24.4,10.1,34.9c11.6,15.9,24.8,30.2,41.1,41.4c8.7,6,17.5,11.9,29,15c0-9.1,0-17.9,0-26.6c0-3.6-0.2-7.2,0.1-10.7
				c0.3-3.8-0.3-6.7-6.5-5.8c6.1-5.2,12.1-3.7,17.6-3.7c29.7,0,59.4-0.3,89.1,0.8c28.1,1,56.2-0.7,84.3-1
				c24.9-0.3,49.7-2.5,74.7-0.3c13.3,1.2,27.1,1.9,40.2-0.4c7.6-1.3,14.3,2.3,22.1-0.3c7.4-2.5,16.4-0.5,24.7-0.3
				c4,0.1,6.2,0.5,5.1-5.6c-0.7-4.1-0.9-10.1,2.6-14.4c0.9-1.2,1-2.3,0.9-3.7c-0.3-4.6,2.3-5.2,6-4.1c0.9,0.6,2.2,1.4,1.8,2.6
				c-3,10.5-0.2,21.4-2.3,32.1c-2.3,11.8,1.4,24.1-0.9,37.1c4.4-2.4,7.9-0.6,11.4-0.7c7.2-0.2,7.2,0.5,8-2.9
				c-4.9,2-9.9,0.6-15.2,1.3c0.6-1.8,1.6-3.1,1.4-4.2c-2.1-8.4-0.7-16.9-0.9-25.3c-0.3-12.3-0.8-24.6,0.3-36.7
				c0.5-5.2-1-3.9-3.7-3.2c-0.8-5.5-0.3-9.3,7.2-8.7c5.2,0.4,9.1-4.1,13.3-6.9c21.6-14.3,43.8-27.5,66.9-39.2
				c14.6-7.4,29.5-14.4,42.9-23.9c9.4-6.7,19.5-12,29.3-17.9c0.9-0.5,2.2-0.7,3.2-0.6c9,1.6,19.1-0.1,26.8,4.8
				c8.1,5.2,17.2,7,25.7,10.5c4.7,1.9,9.5,3.3,14.3,4.8c2.3,0.7,4.4,1.1,1.9,4c-0.2,0.2-0.9,4,1.9,1.6c3.7-3.2,8-1.3,10.4,0.3
				c13.1,9,29,10.6,42.7,17.7c-2.1,1.4-4.2,0.8-6.8-0.2c-6.4-2.5-13-4.2-19.5-6.4c-2-0.7-4-0.4-4.3,1.5c-0.3,2.4,2.2,1.3,3.4,1.8
				c7.4,2.9,15.4,3.6,22.8,7.3c3.8,1.9,6.5,4.3,9.3,7c4.1,4,9.5-0.6,14.3,4c-2.2-8.1-9.5-7.1-14.1-11.3c5.4,0.2,9.3,1.5,12.9,3.7
				c4.6,2.8,3.1,7.1,3.8,11.3c1.1,6.5-0.7,12.8,0.2,19.2c0.2,1.3,0.6,3.1,1.4,3.6c1.5,0.9,5.9-0.8,2.3,3.5
				c8.5,7.9,2.8,16.9,1.7,25.4c-0.5,3.7-0.2,7.5,1.5,10c5.9,8.6,11.1,17.6,18.5,25.3c12.2,12.8,28.5,15.4,44.2,20.3
				c-1.2,1.7-3.3,0.2-5.1,1.9c11,3.8,21.5,8,33.8,10.3c-7.8,3.7-2.7,6.8-0.6,10.1c-3.8-1.1-4.5,0.9-4.1,4.1c0.7,4.9,4,2,6.3,2.5
				c0.6-3.1-2.9-4.2-2.5-6.8c3.4,2.2,4.9,5.8,6.4,9.4c-5.2-0.1-10.4,3.5-10.2,7.8c0.7,12.4,1.8,24.7,2.6,37.1
				c0.2,2.8,2.2,1.2,3.3,1.8l-0.1-0.1c-1.3,7.1,0,14.1,1.7,21c0.7-12,2.5-23.9,1.9-36c-0.2-3.8-0.5-7.7,0.3-11.4
				c0.8-3.8,0.8-6.7-2.3-9.6c-1.2-1.1-4.1-3.8-1.9-5.6c2.9-2.2,2.2,3,4.5,3.2c0.4,0,0.8-0.1,1.7-0.3c-1.3-2.6,1.1-5.7-1.8-8.1
				c2.3,2.2,3.6,4.6,3.5,8.1c-0.2,12.1-0.4,24.2,0,36.3c0.2,4.9-2.7,8.6-3.1,13.4c-1.3,16.1,3.6,31.2,6.3,46.6
				c1.4,7.6-0.9,14.8,0.5,22.3c4.9,24.9,9.1,49.9,13.6,74.9c0.2,1.4,0.4,2.6,2.1,3c3.4,0.9,2.7,3.5,0.5,3.7
				c-2.1,0.3,0.1,7.5-4.1,2.3c-1.4-1.8-3.8-0.3-6.1-2.2c7.3-0.7,5.4-5.6,4.8-9.3c-4-23.7-8.3-47.3-12.8-72.6
				c-1,7.6,0.1,13.8-2.2,20.5c-1.7-4.9-0.8-9.2-0.9-13.4c0-3-0.6-4.8-4.1-4.1c3.2-2.9,3.4-6.9,2.5-10.4c-1.6-6.2-1.2-12.4-1.1-18.6
				c0.1-5.5-0.8-10.7-2.1-16.7c-4.7,5.4-3.6,12.7-8.5,17.3c-1.2,1.1-0.2,4.6-0.2,6.9c-0.3,0.1-0.6,0.1-0.9,0.2
				c-0.8-1.7-1.6-3.4-2.5-5.3c-5.9,9-11.4,18.2-18.6,26.1c-1.7,1.9-2.4,4.2-3,6.6c-1.1,4.5,0.4,12.1-8.6,7c-0.4-0.2-1.7,1.2-2.6,1.8
				c-0.7-2.9,3.3-3.7,3.2-6.5c-12.5,0.8-13.1,1.6-10.3,13.7c2.8-2.3,3.9-6.2,7.4-7.4c-4.1,8.3-11.3,14.5-15.7,22.7
				c4.6,1.8,4.3-5.2,8.2-4.2c8.7,2.3,18.6-2.5,26.4,5.5c4.1,4.3,9.3,1.4,13.6-0.7c4.1-2,1.5-5.8,1.2-9c-0.2-2.2-0.3-4.5-0.5-6.7
				c-0.8-14.4,3.8-28.2,4.7-42.5c0.6,6.4,2.1,12.9,0.1,19.3c-1.1,3.5,1.2,3.5,3.5,3.6c-8.4,6.8-4.8,16.2-5.2,24.6
				c-0.2,4.1,2.8,4.4,5.2,1.9c2.8-2.9,5-6.5,7.5-10c3.1,3.4-0.7,5.8-1.1,8.5c-1.1,6.2,0.3,12.2,0.1,18.3c-0.2,7.9-2.1,8.9-10.2,9.7
				c-7.6,0.7-16.1,0.3-20.3,9.4c-1.1,2.4-4,5.3-7.1,3.6c-3-1.7-1.3-5-0.4-8.2c-2.2,0-4.3,0.1-6.4,0c-1.6-0.1-2.3-1.8-2.1-2.9
				c0.2-1.5,1-3.2,2.7-3.5c6.1-0.9,6.2-0.8,6.1-6.6c0-0.7-0.1-1.3-0.2-2.6c-7.4,3.6-13.9,7.9-19.7,13.3c-1.3,1.2-1.2,1.9-0.6,3.4
				c0.5,1.4-0.5,2.7-2,2.9c-1.5,0.3-2.3-1.2-3.2-2.1c-1.8-1.8-0.3-1.7,1-2.6c1.5-1.1,1.2-2.9-1.8-3.1c-10.1-0.5-19.2,1.7-27,8.4
				c-1,0.9-2,1.8-3,2.6c-10.3,7.7-10.3,7.7-6.1,19.5c7.3,20.7,14.4,41.4,21.6,62c2.5,7.1,7.2,7.8,12.4,1.8c1.2-1.3,2.3-2.7,3.6-4.4
				c-0.2,6.5-5.2,9.9-9.7,12c-8.1,3.8-6-3.1-6.9-5.7c-8.6-23.7-17-47.6-25.1-71.5c-1.4-4.2-2.3-4.5-6.1-2.4
				c-6.9,3.8-13.8,8.3-23.9,6.4c9.3-1.4,16.6-4.5,23.6-8.3c4.8-2.6,3-5.9,1.7-9c-1.1-2.7-0.6-6.5-6.3-5.3
				c-6.9,1.6-14.2,1.7-21.3,1.5c-5.5-0.2-5.4,2.7-4.4,6c4.2,13.3,6.4,27,9.7,40.5c1.8,7.3,3.2,14.7,5.1,21.9
				c0.3,1.2-0.2,5.4,3.8,3.1c1-0.6,2.3-2.1,3.4-0.4c1.1,1.6,1,3.5-0.1,5c-0.9,1.2-3.5,2.3-3.3,3c2.4,10.1-6.1,5-9.5,6.8
				c-1,0.5-2.3,0.3-2.8-1c-0.5-1.2,0-2.3,1.3-2.5c10.8-1,6.5-8.8,5.2-13.6c-4.2-15.4-6.2-31.3-11.5-46.6c-1.7-5-2.5-11.4-3-17.2
				c-0.4-4.2-2.9-5.5-7.4-4.7c-8.7,1.4-17.5,1.9-26.9,2.9c1.7-4.4,5.3-3.6,7.7-4c6.3-1,12.8-1.6,19.2-1.6c4.9,0,5.4-1.6,4.4-6
				c-4.4-17.8-8.4-35.7-12.5-53.6c-0.3-1.2,0-2.5,0.7-3.9c4.6,19.3,9.3,38.6,13.6,58c0.9,4.2,2.5,5.7,6.6,5.3
				c6.9-0.6,13.8-0.9,20.6-1.5c3.4-0.3,4.5-2.1,3.2-5.6c-4.1-11.3-8-22.6-11.9-33.9c-1.1-3.3-3.1-4.1-6.1-3c-4,1.5-8,1.1-12.6,0.4
				c3.6-3.7,6.1-7.6,11.7-6.3c2.3,0.5,2.3-1.8,1.9-3.2c-1.3-4.4-0.8-9.4-4.6-13.4c-0.9,3.5-2.7,6.5-1.8,10.1
				c-1.9-0.2-1.9-1.7-1.8-2.4c3-17-4-31.9-9.3-47.2c-7-20.2-14.1-40.4-21.1-60.6c-0.9-2.5-2-4.7-4.9-7.6c-0.7,8.7-1.8,16.3-1.7,24
				c0,6.4,1.2,12.8,2.3,19.2c1.2,7.3,0.4,14.7-0.2,21.9c-1.5,16.4,1.7,32.7-0.6,49.1c-1.7,12.4-0.4,25.3-0.5,38c0,2.3,0.5,4.8-2,6.9
				c0-12.7,0-25.5,0-38.2c-5.6,3.9-5.9,8.8-4.5,14.3c0.8,3.2,3.7,6.7-2,8.5c-0.6,0.2-0.8,1.9-0.9,2.9c-0.9,19.3-2,38.7-1.1,58
				c0.2,5.3,1.4,10.4-0.1,15.6c-0.6,1.9-1.1,3.5-3.1,5.4c-1.5-14.6-0.9-28.4-1-42.1c0-3.6,1.2-8.9-5.5-3.7
				c-3.5,2.7-8.4,2.7-12.9,1.7c-4-0.9-6.9,0.1-7.8,6.4c-1.5-8.1-6.3-6.9-12.3-6.2c7.6,6.6,16.7,9.8,22,17.6
				c-7.3-4.8-14.5-9.6-21.9-14.3c-2.6-1.6-5-4-8.3-3.9c-4,0.1-10.6-1.7-11.3,0.8c-1.8,6.2-3.9,13.2-1.7,19.7
				c3.5,10,7.6,19.8,12.3,29.4c1.9,3.9,2,8,4,12.5c-3.6-1.6-3.5-4.3-4.5-6.2c-2.3-4.5-7.8-7.1-12.1-5c-3.2,1.6-1.8,4.7-1.1,7
				c2.5,7.5,5.2,15,8.1,22.3c0.6,1.6,0.8,2.9-0.2,5.5c-2.7-6-5.1-11.3-8.1-18.1c-1,8.5-4.1,15.5-2.9,22.6c1.2,7.3-6.1,6.9-8.2,11
				c-0.1,0.1-1.2-0.1-1.6-0.5c-1-0.8-1-1.7-0.4-2.9c6.9-14.6,5.3-30.3,4.3-45.4c-1-14.4-8.1-27.4-14.3-40.4c-1.5-3.1-2.7-5.9-3-9.4
				c-0.2-2.3-1-5.3-4.6-5.6c-3.3-0.3-5.2,0.7-6.5,4.2c-1.4,3.6-2.1,7-2.3,10.9c-0.7,16.5,0.6,33-0.7,49.6
				c-0.5,6.2-0.4,12.1-3.5,17.4c-2.2,0.7,1.2-6.2-3.6-2.2c-2.8,2.4-3.1-2-5-2.7c-0.9-0.4,0.3-3.7-2.8-3.2c-1.1,0.2-1.6,0.7-1.6,1.7
				c0,2.1,1,3.3,3.1,3.7c0.5,0.1,1.1,0.4,2.1,0.9c-7,5-7.8-3.3-10.5-5.2c-3.2-2.3,3.7-7.4,0.3-12c-4,5-7.1,10.3-8.7,16.8
				c-1.9,7.5-7.7,12.9-10.9,19.8c-2.2,4.8-5.4,9.1-7,14.3c-0.3,1.1-1,3.8-3.8,1.9c-2.5-1.7-0.1-2.4,0.4-3.6c3.4-9.2,7.6-18.2,9.2-28
				c-3.8,5.5-6.5,11.7-8.3,18c-1.3,4.8-6.7,8-5.4,13.8c-4.1-0.9-5.5,6.7-6.6,4.6c-2.8-5.5-6.2-2.6-9.5-2.5c-0.9,0-1.8-0.3-2-1.3
				c-0.5-2,1.1-3.3,1.9-4.8c0.3-0.6,2.9-0.5,2.9-0.8c0.3-5.6,1.7-8.2,7.6-4.1c1,0.7,1.8-2.4,2.5-4c11.5-27,20-55.2,34.1-81.1
				c1.5-2.7,2.9-5.6,4.9-7.9c3.7-4.5,0.7-9.2,0.9-13.8c0.1-2.1-2.4-1.5-3.8-1.5c-4-0.1-8.1-0.1-12.1,0c-5,0-11.5-1.6-9.4,7.4
				c0.5,2.1-3.3,1.8-2.1,4.4c3.9-0.1,6.9-3.8,10.9-3.3c0.1,0.6,0.3,1.4,0.3,1.4c-8.8,3.1-12,10-13,18.7c-2.2,18.9-6.1,37.4-9.6,56.1
				c-0.6,3.2-1.7,6.4-4.7,8.8c6.6-23.4,5.2-47.4,8.2-72c-5.8,1.4-8.3,5.3-11,8.5c-10.6,12.8-16.3,28.5-25,42.5
				c-2.1,3.4,3.3,2.6,2.1,5.2c-6.2,0.9-12.6-2.3-18.9,0c-1.6,0.6-3-0.5-4-1.8c-2-2.5-4.4-2.7-7.2-1.7c-0.4,0.2-0.9,0.6-1.2,0.5
				c-3.2-0.7-8.9,0.3-9-2.9c-0.2-4,4.9-1.5,7.6-2c1.9-0.4,4-0.1,6.6-0.1c-2.4-5.4-0.1-7.3,4.7-6.6c3.4,0.5,4.2-1.8,5-4
				c3.8-9.7,8.2-19,14.6-27.3c7.1-9.3,5.5-21.1,8.2-31.7c1.5-5.7,2-11.7,3-18.4c-5.7,7.9-3.5,17.7-8.8,24.8c-1-1-2.6-1.6-2-3.2
				c6.2-16.4,5.1-34,9.1-50.9c3.4-14.4,5.4-29.1,8.1-43.7c1.1-6.1-0.5-7.9-6.6-8.3c-17.2-1-34.4-2.3-51.6-3.5
				c-8.2-0.6-16.9-1-25.1,0c-6.7,0.8-11.1,6.5-12.7,12.9c7.4,4.4,18.6-0.5,22,11.2c-2.3,2.6-7.2-1.7-9.1,2.6
				c-0.9,2.1,1.2,2.4,4.1,2.6c-4,1.8-7.1,0.3-9.4,2.2c-0.9-1.7-2.2-1.4-3.1-0.3c-3.2,3.6-7.4,6.3-9.1,11.1
				c-7.9,6.1-11.1,15-14.4,23.8c-3.3,8.9-5.9,18.1-8.7,27.2c-1.7,5.3,1,8.6,6.4,7c5.4-1.6,10.8,2.3,16-0.8c0.5-0.3,1.7,1.6,2.4,2.4
				c1.8,2.2-2.9,1.1-2.1,3.3c4.6,0,9.2,0,13.8,0L1176.4,623z M1150.8,549.4c-6.4,14-9.6,28.7-8.2,44.2c3.7-9.8,6.9-19.7,9.9-29.6
				c1.1-3.7,2.3-7.6,1.6-11.6c4-1.9,2.8-6.7,4.9-9.4c1.6-2.1,0.4-3.3-0.8-4.3c-1.7-1.5-3.1,0-4.3,1.1
				C1150.9,542.3,1151,545.9,1150.8,549.4z M1266.2,472.3c3.4-1.8,2.8-5.1,3.3-8.1c1.8-10.8-3.8-20.9-2.8-31.6
				c0.3-2.7-1.8-2.4-3.6-2.7c-17-3.2-34.1-2-51.1-0.9c-8,0.5-8.3,2.2-5.9,10.3c0.3,1.1,0.6,2.5-0.3,3.4c-3.2-1.5-1.2-5.1-3.1-7.8
				c-0.8,5.4-1.9,10.1-1.9,15.1c0.1,18.5,0.7,37.1-1.2,55.5c-0.2,1.7,0.3,4.4-1.8,4.3c-2.9-0.1-1.1-2.5-1-4.1
				c1.6-20.5,1.7-41,0.7-61.6c0.2,3.6-2.4,6.6-2,10.1c2.1,17.6-3.3,35-1.5,52.5c0.3,2.7-1.3,3.1-3.7,3c-2.7-0.1-2.5-1.2-2.2-3.3
				c0.8-5.5,1.5-11.1,1.7-16.6c0.3-9.1,0.1-18.1,0.1-27c-7,14.3-10.4,30.1-16.1,45.2c-1.5,3.9-1.4,5.5,3.5,5.4
				c9.6-0.2,19.2,0,28.8,0.3c3.4,0.1,4.2-1.1,4.2-4.2c-0.1-8.9-0.2-17.9,0-26.8c0.1-4.1,0.4-4.4,4.1-2.4c2.6,1.4,3.3,0,3.8-1.8
				c0.6-2.5-0.6-4.5-1.4-6.3c-3.2,0.2-1.3,4.6-5.7,4.3c3.1-6,6.2-11.1,12.9-13c-1.4,2.8-5.1,4.1-5.1,8.2c2.6-1.9,5.9-2.3,7.7-5.5
				c2.8-4.9,5.5-2.2,7.5,0.7c1.1,1.7,1.3,4.1,1.6,6.3c0.4,3.2-0.7,5-4,2.8c-3.2-2.1-6.3-0.8-9.3,0.3c-0.6,0.2-1.2,1.5-1.1,2.1
				c0.3,1.6,1.5,1.4,2.5,0.6c4.1-2.9,3.4,0.2,4,2.8c1.5,6.3,1,11.7-7.8,14.4c9.2,2,10.9,4.2,11.6,11.4c0.2,1.6-1.1,4.8,2.4,4.2
				c3.1-0.5,0.9-2.7,0.8-4.2c-0.2-4-2.3-8.8,4.8-9.4c1.9-0.2,2.7-2.7,2.9-4.7c0.1-1.5-1-3-2-3.2c-2.4-0.4-2.2,2.3-3.2,3.6
				c-1.5,2-3.3,2.3-5.3,1.7c-2.5-0.7-1.5-2.7-1.3-4.4c0.1-2.3-0.3-4.7-0.1-7c0.2-2.1-1.1-6.2,2.5-5.4c2.4,0.5,8.1-0.7,7.2,5.4
				c-0.2,1.4-0.9,3.3,1.9,3.4c0.5-6,2.7-10.1,10.3-8.4c-1.6-4,1.1-7.7,0.1-12.3c-1.3,1.1-2.2,1.5-2.5,2.2c-1.5,3.5-4.5,5.6-7.8,5
				c-3-0.6-4.6-3.7-5.3-7c-0.6-3.1-2-6.1-3.1-9.5c-3.2,2-6.2,3.8-9.1,5.7c8.1-13.8,21.6-11.4,32.6-4.5
				C1262.8,462,1262,468.7,1266.2,472.3c-5.2,4.5-5,5.7,1.6,10.7C1268.8,479.2,1268.1,475.7,1266.2,472.3z M1417.1,468.7
				c7.5,3.8,8.8,6.4,6.2,11.3c-1.2-1.3,0.5-3.6-1.6-4.9c-3.4,13.7-1.8,27.5-1.5,41.2c0.1,3,3,5.2,5,4.9c5.7-1,8.4,2.6,10.3,6.4
				c1.3,2.6,1,6.4,0.3,9.4c-0.9,3.6-4.1-0.8-5.5,0.8c-1.7,1.9-6.5-1.6-6.1,3.9c0.5,7.6,0.5,15.2,0.9,22.8c0.3,5.2-2.2,7.7-7.4,6.4
				c-6.7-1.7-13.7-0.8-20.2-3.5c-2.2-0.9-3,1.3-4.4,2.8c-2.8,2.8-2.1,9.6-9.1,8.1c8.8,2,17.4,2.2,26,2.5c6.4,0.2,13.2-1.8,19.4,2.8
				c3.7,2.7,9.5,0,9.6-3.9c0.3-11.6,0-23.1,1.2-34.7c1.1-10.9,0.1-21.9,1.4-32.8c1.3-11-1.6-22.5,3.8-33.1c0.2-0.3-0.3-1.4-0.6-1.5
				c-5.7-1.9-2.8-6.3-2.4-9.4c1.4-10.7,1-21.4,0.3-32.1c-0.1-2.3-1.1-4.4-3.3-4.2c-3,0.3-1.7,3.3-1.5,4.9c0.5,4.9,1.6,9.7,1.1,14.7
				c-1.6,15.1-2.6,30.2-2.6,45.4c0,4.5-0.2,8.9-1.9,13.3c-1-1.9-1.7-3.6-1.7-5.7c0.1-19.6-0.3-39.3,2.1-58.9
				c1.9-15.3,0.4-16.4-15-16.7c-8.5-0.2-17.1,2-25.4,1c-16.6-2-33.2-2.4-49.8-3.4c-18.4-1.1-36.9-0.3-55.3-0.2c-2.7,0-5.3,0.1-8.1,3
				c38-1.7,74.9,1,111.8,4.1c-16.6,2.2-32.9-1-49.3-1.7c-19.4-0.8-38.9,0.9-58.3-1.2c-2.6-0.3-4.8,0.5-4.9,4
				c-0.3,12.9-2,25.8-1,38.6c2,24.6-0.1,49-0.3,73.5c0,0.9,0.2,3.2-0.9,2.6c-4.3-2.6-2.8,1-3.2,2.7c-1.8,7.5-3.2,15.1-5.4,22.5
				c-2.9,9.8-3.2,9.7,7.3,11c0.2,0,0.4,0.6,1.2,2.1c-11.3-1.1-17,3.3-17.6,14.8c-0.5,9.5-2.8,19-4.3,28.4
				c5.3-12.5,9.3-25.2,10.9-38.7c2.8,8-2.1,15.6-1.1,24.2c4.7-3.1,5.1-8.8,10.1-11.3c0.3,4.1-2.4,6.1-3.5,8.9
				c-0.5,1.3-2.5,2.5-0.1,3.7c1.6,0.8,3.4,1.9,4.7-0.2c4.5-7.4,7.7-15.2,7.1-24c-2.7-0.5-1.9,3.9-5.1,2.6c0.7-9-1.7-18.2,0.4-27.1
				c3.1,6.4,1.8,13.5,3.5,20.3c2.6-12.2,6.5-24.3,2.8-37.2c-2.2,1.1-2.1,4.8-5.3,4.3c-0.2-0.5-0.6-0.9-0.5-1.3
				c3.5-13.8,3.7-28,4.2-42c0.5-15.6,2-31.2,1.7-46.8c-0.1-4.6,1.8-6.5,6.5-6.1c2.8,0.2,5.5,0.2,8.3-1.4
				c17.4-9.6,36.5-12.7,55.9-14.6c13.3-1.3,24.6,4.8,36.2,9.6c9.1,3.8,18.9,6.8,24.7,15.9c-2.6,0.4-4.7-0.7-6.8-2
				c-1.6-1-2.9-3.4-5.5-1.2c-3.3,2.8,1.8,3.4,1.4,5.2c-1.8,1.4-3.1,0.4-4.5-0.2c-2.6-1-4.7,0.2-6.8,1.5c-0.2,0.1-0.1,1.3,0.2,1.7
				c1.7,2.5,3.9-0.1,5.9,0.4c0.9,0.3,2.1-0.4,3.2-0.7c5.1-1.4,8,1.1,9.7,5.5c0.7,1.8,0.7,3.7,1.1,5.6c0.9-3.2,0.1-8.1,1.6-9
				C1421.2,472.9,1418.4,471,1417.1,468.7z M1358.2,247.3c1.6,0.7,2.6,1.6,3,1.3c3.3-2,9.1,4.9,10.7-3c1.3,3.6,2.8,1.4,4.2,0.1
				c6.3-5.9,12-0.3,20.1,0.2c-11.4,5.1-0.4,7.3-1.1,10.7c-0.4,2.4-5.3,0-4.2,3.8c0.9,3.4,3.7,1.4,5.6,1.8c1.2,0.2,2.8-0.6,3.1,1.8
				c-3.4,1.6-7.1,1.6-10.6,2.5c-5.3,1.5-9.9,3.5-9.9-4.9c0-0.2-0.7-0.3-1.5-0.6c-1.2,2.2-0.7,4.7-0.7,7c0,2.2-1.7,2.7-3,3
				c-2.6,0.6-2-1.8-2.2-3c-0.6-4.2-0.9-8.4-1.5-12.6c-0.2-1.4,0.9-4.2-2.4-3.5c-2.2,0.5-4.3,2.4-3,4.2c2.9,3.8-1.4,7.4,0.4,11.1
				c0.1,0.3,0.8,4.7-2.5,4.2c-1.8-0.3-3.6-1.6-3.4-4.2c0.2-3.1-0.3-6.3,0.1-9.4c0.5-3.9-4.1-5.6-3.4-9.4c-2.7-0.2-4.2,2.2-6.3,3.2
				c-11.8,5.9-21.9,14.7-33.9,20.4c-3.3,1.6-6.2,4.8-6.9,8.7c-0.5,3.2,4.3,2.6,5,5.4c0.1,0.4,1,0.7,1.6,1c2.5-7.7,9.3-8.6,16.5-2.2
				c1.7-4.1,1.1-11.3,9.2-7.4c3.4,1.6,6.8,4.2,10.2-0.4c0.9-1.2,2.8,0.8,4.2,1.4c2.1,0.9,4,2.2,6.1,3.5c0.2-1.1,0.2-1.5,0.3-2
				c0.3-1.8-0.9-4.5,2.4-4.5c2.6,0,5.6-0.8,7.5,1.5c0.3,0.4-0.2,2.8,0.2,4.5c0.4,1.7-4.6-0.9-3.9,2.5c0.6,2.7,3.6,0.1,5.2,1.4
				c1.3,1.1,0.9,2.5,0.5,3.7c-0.7,2.4-4.1,0.3-4.8,2.9c0.4,1.9,3.2,1.5,3.7,3.2c0.6,2.2-2.7,1.2-3.2,3c8.5,0.5,8.5,0.5,8.5-7.7
				c0-3.4,0.2-6.7,0-10.1c-0.2-3.6,0.7-6.6,4.4-7.1c3.1-0.5,6.6-1.6,9.3,1.8c2.7,3.4,0.5,6.7-1.2,8.4c-3.6,3.6-2.6,6.3-0.2,9.6
				c0.8,1,2.2,3.8,0.2,3.7c-5.5-0.4-8.6,5.5-14.2,4.5c-2.6-0.5-5.5-0.4-7.9,0.5c-5,1.9-7,0.3-6.6-5.4c-2,1.6-3.3,2.8-4.7,3.8
				c-3.1,2.4-5.6,5.8-10.5,2.2c-1.6-1.2-5-0.6-7.2-2.3c-0.2,5.8-4.9,2.2-6.8,3.4c-7.5,4.6-11.5,0.5-15.5-4.9
				c-2.2,6.2-8.7,11.9-12.4,10.5c-5.2-2-2.4-6.9-3.1-10.5c-0.5-2.5,1.3-6-1.6-7.3c-2.2-1-4.4,1.5-6.4,2.9
				c-7.8,5.3-13.7,13.4-23.7,15.4c-3.9,0.8-7.8,1-11.8,2.2c-9.3,2.9-18.2,7.9-28.5,7c-0.7-0.1-2.2-0.3-1.6,1.1
				c1.4,3.3-1.5,3.5-3.1,4.5c-2.5,1.5-3.9,2.9-2.9,6.4c0.9,2.9,0.8,6.3,0.2,9.3c-2.6,14.9-0.4,29.9-1.3,44.8c-0.3,5.1,2,5.6,6,4.8
				c24.2-5.1,48.9-5.3,73.4-7.5c0.3,1.1-0.6,0.8-1.1,1c-0.7,0.2-1.9-0.3-1.8,1.2c5,3.6,6,3.6,9.1-1c1-1.5,2.1-1.4,3.4-1.4
				c8.5-0.4,16.9-1,25.4-1.3c14.6-0.5,29.3-0.9,43.9-1.4c4-0.1,8.2-2.9,11.8-1c6.2,3.3,12.5,1.3,18.2,0.6c20.8-2.8,41.7-3,62.6-3.4
				c11.8-0.2,23.5-1.6,35.3-1.7c1.4,0,6.4-2.5,3.7,3.1c-0.7,1.5-0.1,2.1,1.2,2.3c1.6,0.3,2.6-0.6,2.6-2.2
				c-0.3-9.8-0.5-19.6-0.9-29.4c-0.8-17.8-1.7-35.6-2.5-53.4c-0.1-2.8,3.5-8.5-4.3-5.1c-0.7,0.3-2.9-1.8-3.9-3.2
				c-2.6-3.7-5.8-5.3-10.4-6.4c-3.5-0.8-7.4-1.2-10.5-2.6c-6.4-2.8-13.2-6-18.3-10.7c-8-7.2-17.8-10.8-27.3-13.2
				c-16.5-4.1-32.4-10.2-49.1-13.2c-3.4-0.6-6.8-3.7-10.1-2.2C1371.1,240,1364.3,242,1358.2,247.3z M932.3,375.1
				c7.4-12,18.5-18.7,31.1-6c3.1,3.1,3.4,8.7,0.6,11.9c-3.1,3.6-5.7,1.1-6.8-1.1c-2.3-4.7-6.1-4.3-9.7-3.2
				c-4.9,1.4-5.1,6.3-5.8,10.3c-0.7,3.9,0,7.5,4.2,9.6c4.6,2.3,9.1,0.6,10.4-4.7c0.5-2.2,1.4-3.4,3.4-3.2c8.1,0.9,8.3-4.3,8.9-10.2
				c1-9.9,12.3-19.3,21.1-18.3c6.3,0.8,10.5,5,14.5,10.9c0.3-2,0.4-2.8,0.5-3.6c0.1-2.7-0.5-5.6,2.7-7c3.2-1.4,4.2,1.8,5.8,3.4
				c6,5.8,11.5,12.1,19.8,17c0-4.5,0.5-8.1-0.1-11.5c-0.9-4.8,0.8-6.7,5.5-6.6c1.3,0,3.1,0.2,3.8-0.6c5-5.5,7.4-1.1,10.1,2.4
				c5,6.4,10.8,11.9,18.4,16.6c0-5.1,0-9.4,0-13.6c0-3.6-0.1-8,4.6-8c4.5,0,9.7,0.7,8.8,7.9c-1.7,13.1,0.2,26.2,0,39.3
				c0,0.9-0.1,1.8-0.2,2.7c-0.2,1.3,0.5,3-1,3.6c-1.8,0.8-2.7-1-3.8-2c-7.7-6.7-16.6-12-22.8-22.3c-1,9.5,0.5,17.1-1.2,25
				c9.8,0.1,19.6,1,29.4,1.1c15.6,0.3,31.2-0.1,46.8-0.5c12.6-0.3,25.3-0.6,37.9-0.7c4.1,0,9,0,11.6,2c3.6,2.7,6.5,1.5,10.2,2
				c-1.7-2.2-4.8,0.2-6.4-3.9c4.9,0,9.4,0,13.8,0c2.2,0,3.8-0.1,3.9-3.1c0.8-16.4,1.2-32.8-0.8-50.7c-0.4,2.5-0.7,3.6-0.6,4.6
				c0.6,5.8,0.9,10.7-7.5,6.5c-2.7-1.4-3.8,0.2-3.6,3.8c0.6,10.3,0.3,20.6,0.4,30.9c0,1.2-0.6,3.7-0.9,3.3c-3.4-4-5.8,1.6-8.9,0.6
				c-3.5-1-8.9-0.1-4.2-6.5c0.8-1,0.8-3.1,0.4-4.5c-1.5-5.3-1-10.7-1-16c-0.1-12.7-1.6-14.1-14.2-12c-1,0.2-1.9-0.3-2.5,1.8
				c-1.8,6.7-5.4,7.2-10,2.2c-2.3-2.5-4.8-5-8.6-3.5c-3.5,1.4-4.9,4.5-5.1,8c-0.1,3.1-0.4,6.1,0.6,9.2c1.6,5,4.6,7.8,9.8,6.4
				c3.3-0.9,9.2-0.8,4.9-7.2c-0.1-0.1,0.3-0.7,0.5-1c3.3-2.5,6.3,0.7,9.5,0.7c2.1,0,2.9,1.9,2.7,4.5c-0.4,4.3-4,6.8-5.1,10.4
				c-3.4,11.3-16.3,12.2-23.6,8.5c-10.2-5.2-16.2-19.6-13.7-32.9c1.1-6.2,3.4-11.9,8.7-15.8c8.6-6.3,20.3-5.1,28.5,2.6
				c1.3,1.3,2.3,4,4.7,3c2-0.9,0.7-3.2,0.7-4.9c0-2.6,0.5-3.7,3.6-4.2c10.2-1.5,20.5-1.1,30.7-1.3c1.4,0,4.2,1.8,4.4-0.8
				c0.2-3.3-3-1.6-4.6-1.8c-19.3-1.3-38.4,2.2-57.9,0.4c-16.8-1.6-33.9-1.6-50.9-1.8c-10.1-0.1-20,1.8-30.1,1.4
				c-6.7-0.2-13.6-1.3-20,2.5c-1.4,0.8-3.4,1-5,0.9c-14.6-1-29.3-2.2-44-2.1c-26.1,0.1-52.2,0-78.3,0c-3.2,0-6.6-0.8-8.4,3.3
				c-0.5,1.2-3.8,1.5-2.9-0.2c1.9-4-0.8-2.9-2.4-2.9c-11.4-0.1-22.8-0.1-34.3,0c-1.4,0-2.2-0.4-3.1,2.3c-3.3,9.7-0.5,19.2-1.8,29.5
				c3.5-2.4,2.8-5,2.9-7.4c0.1-4.5-0.2-9,0.1-13.4c0.5-6.2,9-10.1,14.1-6.6c0.8,0.5,1.6,2.2,1.3,2.8c-2.1,4.1,1,3.3,3.1,3.5
				c6.5,0.7,13.4,0.7,16.9,8.1c0.6-1,1.1-1.5,1.2-2.2c1.3-5.1,2.4-9.2,9.9-7.9c2.2,0.4,7.9,3.2,9.7-1.4c2.8-6.8,8-3.4,12-3.1
				c3.6,0.2,2.7,4.4,2.8,7.2C932.4,369.6,932.3,371.6,932.3,375.1z M1427.7,421.6c1.9-2.6,7.6,1.3,6.7-3.4
				c-1.5-7.8-0.1-15.6-1.6-23.3c-0.6-2.8-2.3-5.6-5.2-5.1c-4.2,0.8-8-4.5-12.4-0.3c-0.9,0.8-2.2-1.2-1.8-2.6
				c0.5-1.6,1.2-3.1-0.9-3.7c-1.8-0.5-3.2-0.4-5.1,1.5c-4.1,4.2-8.8,3.4-11.8-1c-0.6-0.9-2-0.9-2.2-0.2c-2.2,7.2-9,5.2-13.5,5.9
				c-18.4,2.8-36.3,8.7-55.3,7.9c-5-0.2-10.2-0.9-14.5-2.4c-6.2-2.1-12-3.1-18.3-2.4c-6,0.6-11.4,1.6-11.1,10
				c0.1,3.4-0.2,7-0.4,10.6c-0.6,11.2-0.4,11.2,10.4,10.4c0.9-0.1,1.8-0.1,2.7,0c14.6,0.7,29.2,0.3,43.8,0.8c31,1.2,62.1,1,93.1,1.8
				c1.5,0,3.6,0.7,4-1.8C1432.6,421.9,1429.2,424.9,1427.7,421.6z M722.1,558c-1.2-2.3-2.2-2.9-3.3-2.9c-7.8-0.1-15.6-0.1-23.4-0.3
				c-5.9-0.2-11.7-0.8-17.6,0.2c-1.5,0.2-3.6,0.3-3.8-1.7c-0.3-2.5,2.2-2.4,3.8-2.7c1.5-0.3,3.1-0.4,4.7-0.4
				c11.7,0.3,23.4,1.6,35.1,1.1c1.7-0.1,4.3,1.2,3.1-1.8c-0.7-1.7,3.1-5.1-2-5.4c-11.3-0.6-22.6-1.6-33.9-2.7
				c-4.1-0.4-7.7,1.7-12.3,0.7c-7.7-1.8-15.9-1.4-23.9-1.9c-2.4-0.2-3.2,0.6-3.8,3.3c-2.5,12.1,0.2,24.5-2.5,36.6
				c-0.2,0.8-0.6,2,0.8,2.7c3.8,2.1,6.5,11.7,4.4,15.3c-2.7,4.7-1.6,6.9,3.6,7.3c19.6,1.4,39.3,0.4,59,0.6c3.1,0,6.2-0.6,9.2-1.4
				c4-1.1,2.7-5,3.4-7.7c0.7-2.7-1.8-3-4-3c-5.6,0.1-11.3-0.6-16.7,0.5c-13,2.6-25.7,2.9-38.6-0.4c-1.4-0.3-3.2-0.8-3.1-1.9
				c0.2-1.8,2-2.1,3.7-1.6c7.8,2.1,15.9,1.9,23.9,2.3c10.7,0.5,21-4.6,31.8-1.6c3.4,0.9,3.2-2.1,3.2-4.3c0-7.2-0.2-14.3,0.1-21.5
				c0.2-4.1-1.1-5.3-5.3-5.2c-13,0.3-26,0.4-38.9,0c-8.4-0.2-16.7-1.6-25.1-2.8C676.2,557.9,698.9,560.9,722.1,558z M1592.2,554.8
				c3.9-4.6,7.4-7.8,9.6-11.8c3.8-6.9,10.6-12.6,11.5-20.7c1-8.8,0.1-17.9,0.3-26.8c0.1-3.4-3.3-5.4-2.5-9.6
				c2.8-14.5,4-29.2,0.1-43.7c-1.1-4.2,3.1-10.5-4.1-12.5c-4.7-1.4-9.5-2.6-14.4-2.3c-0.9,0.1-1.8,0-2.7,0
				c-15.6-0.6-31.3,1.2-46.8-1.2c-3.1-0.5-6.3-0.1-9.4-0.1c5.6,4,10.8,7.4,16.1,10.5c5.5,3.3,11.6,5.5,17.2,8.7
				c4,2.3,7.3,7,11.4,7.8c9,1.7,1.5,6.9,2.9,10c0.6,1.2,0.9,2.5,1.3,3.7c1.3,3.8,3.8,7.1,5,10.7c3.7,10.9,0.9,23.1,5.5,34
				c0.6,1.5-0.1,3.5-0.2,5.3C1591.8,528.9,1591.7,541.1,1592.2,554.8z M1496.4,409.9c22.1-3.2,46.1,0,69.8-2
				c-8.4-1-16.8-2.2-25.2-1.9c-5.7,0.2-11.4,2-17.1,1c-20-3.2-40-5.2-60.2-6.5c-3.6-0.2-5.5,0.7-6.2,4.9c-0.9,6-1.1,11.9-1.2,17.9
				c-0.1,4.6,1.5,5.7,6.1,4.9c15.5-2.7,31.1-5,46.9-4.9c31.7,0.2,63.5-0.8,95.2,1.2c5.9,0.4,12.4,0.7,10.8-8.7
				c-0.2-1.4,1.5-2.8-0.9-5.6C1575.2,409.8,1535.1,412.9,1496.4,409.9z M1336.4,471.6c-6.6-2.6-12.7-3.4-15.5,2.3
				c-0.9,1.9-1.6,5.1-2.9,7.3c-5.5,8.9-7.5,19.1-10.4,28.9c-1.1,3.7-1.9,8.2,0.1,11.1c6.6,9.3,11.7,20.1,25.4,22.4
				c6.7,1.1,12.4,1,19.1-0.2c14.4-2.7,14.4-3.9,18.5-11.9c8-15.7,6.7-31.1,0.4-46.3c-1.9-4.5-1.9-6.3,2.6-9.2
				c-5.1-0.8-7.7,3.3-12.3,1.7c-9-3.2-18.4-4.8-27.9-0.8c-1.4,0.6-3.2,0.1-6.6,0.1C1331,474.7,1333.2,473.5,1336.4,471.6z
				 M1515.9,576.3c-1.2-6.4-6.1-4.1-9.2-3.3c-4,0.9-1.5,4.3-0.8,6.6c2.4,7.1,4.8,14.2,7.3,21.3c1.5,4.3,2.1,9.7,5.1,12.6
				c3.4,3.3,8.6-0.4,13.1-0.7c1.3-0.1,2.7,0.1,4,0c8.3-0.7,14.6-5.7,15.9-13.2c0.4-2.2,1.8-1.4,2.9-1.7c7.8-2.2,12.4-8.9,15-15.2
				c1.5-3.6,0.4-10.2-0.6-15.3c-0.2-1.2-1.6-1.9-2.6-1.5c-4.3,1.7-9.2,0-13.1,1.6c-7.5,3.1-14.9,1.2-22.2,0.7
				c-6.1-0.4-7.1-0.3-8.9,6.2c-0.8,2.8-0.2,6.3-3.2,8.7c-2-3.9,2.9-8-0.4-11.6C1515.9,572.5,1517.4,575,1515.9,576.3z M1457.4,396.4
				c12.8-0.4,25.1,2.2,37.5,3.4c12.5,1.2,25.2,0.5,37.6,2.3c12.1,1.7,24.3,1.1,36.5,3.1c12.1,2,24.7,2.8,37.2,1.4
				c-33.3-9.1-63.9-21.7-78.1-57.3c-0.5,9.8-0.6,19.1-0.5,28.5c0,3-4.5,7.2,4.4,8.7c-5.2,0.4-8.8,3.5-9.8-2.2
				c-0.2-1.2-1.5-1.6-1.9-1c-2.2,3.6-8.3,1-9.5,6.1c-0.3,1.3-2,2-3.3,1.6c-10-3-19.7,0.5-29.5,1.7c-5.4,0.7-10,2.2-12.9-4.9
				C1467.6,396.4,1458.9,392,1457.4,396.4z M722.7,446.1c-8,0.9-16.3-0.4-24.5,1.3c-3.8,0.8-5.2,2.2-5.1,6.2
				c0.2,7.1,0.6,14.2,1.2,21.3c0.4,4.4,1.9,6.4,5.8,7.4c15.6,3.9,30.4,2,44.9-4.8c2.4-1.1,2-2.7,2-4.2c0.1-7.4-0.1-14.8,0-22.1
				c0-2.5-0.9-3.2-3.3-3.8C736.7,445.3,729.8,446.6,722.7,446.1z M649.8,470.3c-1,0.7-1.9,1.3-2.6,2c-5.6,6.4-11.1,12.8-16.7,19.1
				c-1.7,2-2,4.3-1.9,6.9c0.5,9.1,1.1,18.3,1.3,27.4c0.1,4.3,2.2,4.2,5.1,3.3c1.6-0.5,3.1-1.6,4.7-2.4c15.4-7.9,28.8-18,37.5-33.6
				c3.2-5.7,1.9-8.3-4.3-9.3c-2.7-0.4-4.8-2.1-7-3.6C660.7,476.7,655.3,473.7,649.8,470.3z M696.2,490.6c5,25.1,23.2,35.2,45.4,41.2
				c-3.1,0.1-5.5,1.1-8.7,2.8c3.2,0.5,5.9,0,6.9,2.5c-0.8,2.9-3.6,0.2-5.3,2.6c3.9,0.6,8.5,1.2,9.1-2.5c1.2-8,3.2-16.2,1.8-24.4
				c-1.4-7.9,0-15.5,1.2-23.2c0.5-3.3,0.7-6.6,0-10.5C731.3,489.8,714.2,490.3,696.2,490.6z M775.7,337c0.3,5.4,3.1,10,4.6,15
				c5.8,19.1,16.2,35.5,29.6,49.8c3.2,3.4,5,9.6,11.5,9.6c9.4-0.1,18.8,0.1,28.2,0c2.1,0,4.9,0.5,4.8-3c0-2.6,0.8-5.4-2.6-6.8
				c-12.9-5.6-25.6-11.4-36.4-21c-8.7-7.6-18.3-14-25.4-23.5C785,350.5,780.4,343.8,775.7,337z M1434.8,610.9c0-2.4-0.3-4.9,0.1-7.3
				c0.8-5.5-1.1-7.3-6.8-7.1c-12.3,0.5-24.6,0.2-36.9,0.1c-1.5,0-3.7,1.1-4.5-1.5c2.1-2,4.5-2.5,7.3-2.4c5.8,0.1,11.6,0,17.3,0
				c1.2,0,2.9,0.5,3.2-1.4c0.2-0.8,0-1.8-0.4-2.5c-1-1.8-2.1-0.9-3.1,0.2c-0.3,0.4-1.3,0.8-1.4,0.7c-7.8-8.2-16.7-1.1-25-1.8
				c-2-0.2-4,2.3-3.4,4c1.4,4.1,0.3,8-0.4,11.6c-1.4,7.6,3.3,11.2,8.6,14.1c3,1.6,6.7,2.1,10.3,2c12.9-0.2,25.8-0.1,38.8-0.1
				c0-8.2,0-15.4,0-22.7C1436.3,601.3,1438.3,606.4,1434.8,610.9z M1512.9,426c-2,0-3.9-0.1-5.9,0c-15.1,1.3-30.1,2.9-45.2,3.9
				c-4.2,0.3-5.6,0.7-4.7,5.6c0.9,4.3,1.7,8.7,3.1,12.8c1.8,5,2.6,11.7,6.2,14.1c2.4,1.6,8.9-3,13.7-4.7c4.6-1.7,8-3.9,10.4-9
				C1495.2,438.9,1502.5,431,1512.9,426z M1487.6,457.4c-6.7,2.2-12.2,3.9-17.5,5.7c-3.3,1.1-3.4,3.3-2.3,6.4
				c4.7,12.9,9,25.9,13.6,38.9c0.5,1.4,0.1,4.4,2.9,3.1c1.9-0.8,5-0.1,5.4-3.1c1-9.7,1.8-19.5,2.8-30.4c-4.9,3.4-5.7,8.8-11,11.4
				c1.8-8.5,8.3-13.2,11-19.6c2.9-6.8,12.8-6.9,13.1-15.4c-11-2-17.9,2.4-21.1,13.1C1485.4,464.8,1486.2,461.9,1487.6,457.4z
				 M1268.9,396.5c-1.5,0-3.4-0.4-5,0.1c-7.9,2.2-15.8,2.1-23.9,1.7c-5.2-0.3-12.4-3.3-15.3-0.1c-6.9,7.7-11.3,0.2-16.7-0.9
				c-0.8-0.2-1.6-0.7-2.8,0c-0.1,4.8-0.5,9.9,0.1,15c0.3,2.9,1.2,3.3,3.6,3.1c5.7-0.5,11.5-1,17.2-1.5c11.9-0.9,23.9-1.8,35.8-2.7
				c1.4-0.1,3.4-0.3,3.2-1.7C1264.5,404.6,1270.1,402,1268.9,396.5z M638.2,437.9c1.2,3.4,3,2.8,4.5,3c15.4,1.5,30.8,2.8,46.3,1.8
				c6.4-0.4,12.8,0.5,19.2,0.8c10.9,0.5,21.9-1,32.7,1.3c5.3,1.1,7.9-1.1,7.4-6.9c-0.4-4.7-0.2-9.4-0.1-14.1
				c0.1-3.9-1.5-5.2-5.4-4.3c-5.8,1.4-11.7,2.6-17.6,3.8c-1.6,0.3-3.6,0.3-4.1,1.7c-0.8,2,1.5,2.9,2.6,4.2c5.3,6,13.2,7.9,19.8,12.7
				C708.6,440.5,673.7,439.2,638.2,437.9z M1337.7,572.7c0.4,3,1.2,5.9,1.1,8.7c-0.5,13.5,5.9,24.7,12.2,35.9
				c2.5,4.5,6.3,1.8,9.5,2.2c1.4,0.2,3-0.4,2-2.2c-2.5-4.9-0.2-10.3-1.7-15.2c-0.6-2.1-1.6-5.6-2.7-5.8c-6.3-0.9-6.2-6.6-8.5-10.4
				c-2.8-4.7-5.3-9.6-7.9-14.5c-2.1-4.1-6-4-9.7-4.2c-2.5-0.1-2.4,1.9-1.6,3.2c1.2,2.1,1.2,5.1,3.2,6.4
				C1336.4,576.5,1334.3,573.1,1337.7,572.7z M1290.9,619.5c7.5,0,12.7,0.4,17.7-0.1c5.3-0.6,10.5-1.8,9.4-9.5
				c-0.5-3.4-0.1-7,0.7-10.6c2.3-9.9,1.9-19.8-0.3-30.6C1308.5,585.1,1305.4,604.2,1290.9,619.5z M768.5,331
				c-6.3,7.2-10.5,13.7-17.5,17.1c-0.5,0.2-1.1,1.1-0.9,1.4c2.4,5.8,0.5,11.8,0.8,17.7c0.4,9.2,0.1,18.3,0.1,29
				C765.5,376.2,766.4,354.4,768.5,331z M685.3,457.2c0-2,0.1-4,0-6c-0.2-6.8-2.2-8.1-8.1-4.4c-4.7,2.9-8.8,6.7-13.2,10.1
				c-6.8,5.4-6.5,5.1,0,10.8c5.6,4.9,12.6,7.3,18.3,11.8C684.2,472.1,685.4,464.7,685.3,457.2z M1274.2,620.1
				c-5.7-0.9-5.7-1-8.3,3.6c-3.3,6-6.7,12-9.8,18.1c-7.8,15.4-18.6,29.2-24.6,45.6c-0.5,1.5-1.8,3.1-0.4,4.2c2.1,1.5,3.1-0.6,4-2.1
				c3.6-5.8,7.2-11.7,10.8-17.6C1256.1,655,1267.3,638.7,1274.2,620.1z M1290,704.8c11-19.5,21.3-39.4,33.9-57.9
				c4.9-7.1,4.9-13.9,2-22.4C1309.7,649.9,1300.1,677.4,1290,704.8z M1576.5,453.6c-17-10.1-32.7-18.9-49.3-26
				c-3-1.3-7.6-1.6-8.3,4.5c-0.3,3.1-0.8,6.1-0.9,9.3c-0.1,7.2,0,7.3,6.4,3.5c4.5-2.7,9.5-4.6,14.4-3.8c9.5,1.6,19.2,3.7,26.7,10.5
				C1568.4,454,1571.3,454.7,1576.5,453.6z M1204.4,419.6c13.1,4.3,24.8,1.3,36.2,3.6c7.4,1.5,15,1.7,22.6,1.6c3.8,0,4.8-3,3.4-4.4
				c-2.1-2,0.9-7.3-4.5-6.5c-9.5,1.5-19.1,0.9-28.6,1.4C1224.3,415.9,1215.1,416.6,1204.4,419.6z M1370.3,654.5
				c-3-3.4-2.2-7-2.3-10.4c-0.3-6.4,0.5-12.9-2.2-19.1c-2.1-4.8-6-2.7-9.2-2.6c-4,0.2-1.8,2.9-1.5,4.9c1.6,10.4,8.8,18.5,11.4,28.6
				c0.7,2.8,3.7,2.8,5.1-0.4c2.1-4.5,1.6-9.3,1.2-13.8c-0.5-5.1,3.2-9.4,2.1-14.4c-0.4-2-0.3-4.6-2.8-4.7c-3.4-0.1-1.8,3-1.8,4.5
				C1370.2,636.2,1370.3,645.4,1370.3,654.5z M1539.6,512.7c0,7,0.2,13,0,19c-0.2,6.2,0.5,12.3,1.8,18.4c5-1.9,10.2,0,15.4-0.4
				c4.5-0.3,10.1-1.3,7.8,7.5c3.5-4.2,2.6-8.6,1.5-11.7c-1.1-3.1-4.9-0.7-7.6-0.1c-2.4,0.5-4.9,0.2-7.4,0.2c-2.7,0-6-0.6-7-2.6
				c-2.1-3.9-1.2-8.4,1.5-11.8c2.7-3.4,7.3-6.1,11-3.8c3.9,2.4,5.7,0,8.1-1.2c0.6-0.3,0.9-3,0.3-3.7c-2-2.3-4.8-1.2-7.3-0.7
				c-0.2,0-0.4,0.3-0.6,0.3C1546.7,524.7,1543.7,523.1,1539.6,512.7z M627.3,489.4c6.5-7.3,11.8-13.2,17.1-19.1
				c1.2-1.4,3-2.6,0.6-4.2c-5.9-4.1-9.2-10.5-14.9-16.1C628.6,463.1,627.4,475.3,627.3,489.4z M1291.5,612.8
				c4.3-4.9,6.6-9.6,8.9-14.2c6.4-12.8,12.7-25.7,19.2-38.4c0.9-1.8,1.7-4.9,4.1-4.7c2.4,0.2,3,3.3,3.3,5.3c0.8,4.1,2.6,4.6,6,2.8
				c1.4-0.7,3.1-0.8,4.7-1.3c-8.8-13.4-15.1-13.5-22.5-0.5c-7.9,13.9-15.3,27.9-23.1,41.8C1290.8,606.2,1290.8,608.7,1291.5,612.8z
				 M1018.3,389.2c0,5.4-0.4,9.2,0.1,12.9c0.9,6.2-2.3,8.5-7.6,9c-5.1,0.5-8.3-1.7-7.2-8.6c-3.1,4-5.3,6.7-8,10.2
				c15.6,0,30.2,0,46.4,0C1032.5,405.3,1025.7,398.2,1018.3,389.2z M1490.7,452.7c2,0.1,3.1,0.3,4.1,0.2c3.5-0.6,8.5-0.1,10-2.2
				c3-4,5,0,7.4-0.5c1.8-0.4,3-1.4,2.9-3.1c-0.3-6,2.8-11.8,1.1-17.8c-8.2,0.5-3.4,8.7-7.3,11.8c-0.1-0.8-0.3-1.6-0.2-2.5
				c0.2-1.9,2.6-4.1,0.5-5.4c-2.1-1.3-3.9,1.1-5.6,2.5C1498.3,440.1,1494.7,445.8,1490.7,452.7z M674.1,446.2
				c-11.4,0.6-21.8-5.1-33.1-2.4c3.1,4.3,5.6,8.3,8.6,11.8c2.1,2.4,4.5,5.9,8.3,3.2C663.5,454.8,668.7,450.4,674.1,446.2z
				 M1329.5,654.2c-8.7,9.4-12.5,22.6-10.3,34c0.5,2.6,2.5,3.4,3.5,1.9c3.9-6,3.8,0.4,4.9,1.5
				C1332.1,679.6,1330.6,667.3,1329.5,654.2z M599.6,426c0,0.1,0,0.3,0,0.4c6.9-0.3,13.8-0.8,20.7-1c2.5-0.1,5-0.6,5.3-3
				c0.3-2.9-3-2.2-4.5-2.4c-13-1.9-26,0.1-39-0.7c-1.9-0.1-3,1-3,2.8c0.1,2.3,1.3,3.8,3.8,3.8C588.5,426,594.1,426,599.6,426z
				 M948.2,439.4c1.4-5.6-0.9-9.9-5.8-9.1c-5.1,0.8-8.1-3.8-12.9-3c-1.7,0.3-5.1-0.7-5.4-1.8c-1.5-5-6.7-4.5-8.5-3.7
				c-5,1.9-8.3-0.8-12.2-2.3c-0.5-0.2-1.3,0.2-2.7,0.4c2.2,1.9,3.8,3.7,5.8,5C919.2,433,934.8,432.7,948.2,439.4z M1324.6,559
				c-2.8,1.9-3.6,3.6-3.5,5.7c0.7,15.9,4.8,31.7-0.3,47.6c-0.7,2.3-0.9,5.9,3.3,5.8c3.6,0,3.3-2.9,3.3-5.4c0-8.9-0.3-17.9,0.1-26.8
				c0.2-4.5,3.2-8.8-0.1-13.5C1324.8,568.8,1324.1,564.3,1324.6,559z M1356.2,582c1,5.8,4.7,7,10.8,5.3c-4.8,4-4.7,11.7-0.1,13
				c6.3,1.7,4.3,4.8,3.5,8.5c-0.4,1.7-0.2,3.6-0.1,5.3c0.1,1.6-0.8,4,2.2,3.8c2.4-0.1,1.8-2.2,1.8-3.6c0-8,0-16,1.3-23.9
				c0.2-1.6,1.1-4-1-4.8c-3-1.2-2.2,2.8-4.3,3.9c0.3-2.7,0.6-5,1-7.9C1366.1,583.8,1361.1,583.6,1356.2,582z M1515.6,362.4
				c2.5-1.1,4.3-1.9,6.1-2.7c0.2-0.1,0.5,0.1,0.7,0.1c2.7-1.1,3.3-2.8,1.4-5.1c-3.3-4-3.2-5.5,0.2-8.8c0.9-0.9,1.4-2.2,0.2-2.7
				c-3.6-1.6-2-4.4-2-6.9c0.1-5.3-0.1-10.6-1.3-15.9c-0.4-1.7-0.8-3-2.7-3.1c-2.5-0.2-2.3,1.7-2.4,3.2c-0.2,2.9-0.2,5.8-0.3,8.7
				C1515,339.9,1518,350.7,1515.6,362.4z M599.7,526.4c6.2,3.6,6.4,6.6,1.6,12.9c-1.6,0,0.1-5.8-3.4-2c-1.3,1.5-1.6,3.5-4.4,2.3
				c-2.4-1-2.5-2.7-2.5-4.8c0.1-2.7,0.1-5.4,0.1-8c0-1.9-0.7-3.9-2.9-3.7c-2.2,0.3-1.5,2.6-1.1,3.9c0.8,2.7,0.6,4.8-1.9,6.6
				c-2.4-3.8,0.8-8.5-2.7-11.9c-1.7,2.1-0.1,4.6-1.9,6c-4.6,3.5-2.3,6.5,0.9,9c2.6,2.1,5.4,3.8,8.6,4.9c15.9,5.4,16.9,4.6,15.8-12.3
				C605.7,524.8,604,524.7,599.7,526.4z M1417.3,381.7c2.2,0,4.3,0,6.5,0c18.7,0.4,37.4-2.6,56.2-0.2c7,0.9,14.3-0.7,21.4-1.2
				c1.7-0.1,3.2-0.7,3-2.7c-0.2-2-2-1.3-3.2-1.4c-4.9-0.3-9.8,1.3-14.6,1.2c-17.3-0.4-34.4,1.8-51.6,1.5
				C1429,378.8,1423.2,380.5,1417.3,381.7z M1586.2,595c-4.9,0.7-9.4,2.1-14.1,1.7c-1.9-0.2-2.9,0.8-2.9,2.8c0,2.4-0.8,4.9,0.9,7
				c0.7,0.9,1.7,0.3,2.4-0.2c0.5-0.4,1.5,0,1.5-1.5c-0.1-4.3,2-6,5.9-3.8c2.5,1.4,3.6,0.8,5.3-0.3c6.6-3.9,7.7-3.1,8.2,4.9
				c0.1,1.6-1.9,4.5,2.2,4.7c2.4,0.1,4.8,2.2,6.4-1.7c1.7-4.1,0.6-7.1-2.2-9.7C1595.7,595.4,1590.4,596.7,1586.2,595z M635.3,555.7
				c0.7-3.8-0.2-8.4-1-12.9c-0.3-1.5-0.5-2.5-2.2-2.5c-1.8,0-3.1,0.5-3.2,2.5c0,2,0.2,4,0.1,6c-0.5,10.8,3,21.7-0.8,32.4
				c-1,3,1.8,2.4,3.1,3c2,0.9,3-0.5,2.7-2.4C633,573.3,635.9,565,635.3,555.7z M1291.2,590.6c2.3-0.4,2.9-1.9,3.8-3.1
				c7.7-9.8,11.4-21.6,17.5-32.3c0.9-1.5,3-3.8,0.5-5.1c-2.2-1.2-3.4,1.5-4.4,3.1c-4.7,7.5-9.2,15.1-14,22.5
				C1291.6,580.3,1291.5,585.4,1291.2,590.6z M890.2,415.3c32.7,0.1,65.3,3.5,98,1.4C955.5,414.8,922.9,416.1,890.2,415.3z
				 M994.2,386.6c0-1.4-0.1-2.3,0-3.1c0.7-4.7-2.4-6.5-6.1-7.1c-4.2-0.7-5.2,2.9-5.8,5.9c-0.6,2.6-0.3,5.3-0.4,8
				c-0.1,2.8,1.5,4.6,4,5.6c2.5,1,4.2-0.5,6-1.8C994.7,392.1,994,389,994.2,386.6z M1373.1,577.9c3,0.4,5.9-0.6,5.3-5.3
				c-0.6-5.1-3.3-3-5.8-1.5c-1.1,0.7-0.5-0.7-1-0.7c-5.9-0.2-11.7-2.1-17.6-1c-1.2,0.2-4.6-2.5-4.2,1.6c0.3,2.9,3.5,6.9,4.6,6.4
				C1360.7,573.9,1366.3,577.9,1373.1,577.9z M1258.8,581.3c9.7-30.4,10.5-61.7,8.1-93.2C1266,519.4,1267,550.7,1258.8,581.3z
				 M1515.4,506.6c2.8-0.5,5-0.9,7.1-1.4c1.4-0.3,2.3-0.8,1.5-2.7c-3.6-9.1-6.2-18.2,3.1-26.1c-10.3-1.4-13.4,0.8-11.5,8.6
				C1517.3,492,1516.9,498.8,1515.4,506.6z M1262.9,583c5.8-10.4,14.2-51,12.1-60.6C1271.2,543.3,1265.2,562.3,1262.9,583z
				 M1308.9,385.7c21.5,1.6,42.9-0.4,64.2-3.1C1351.8,385.8,1330.2,380.8,1308.9,385.7z M857.2,562.7c0.3-10,3.8-19.8,2.4-29.8
				c-1-7.1-1.7-13.8,1.2-20.9c1.2-3,1-6.9,1.5-10.5c0.2-1,0-2.4-1.4-2.6c-1.2-0.2-2.2,0.7-2.5,1.7c-0.6,1.7-1.2,3.4-1.2,5.2
				C857.2,524.8,857.2,543.8,857.2,562.7z M693.9,437.4c10.9,0,21,0,30.7,0C712.9,426.5,709.6,426.4,693.9,437.4z M1409,565
				c8.2,3.6,12.3,2.9,12.2-2.1c-0.2-8.8-0.9-17.5-1.5-27.4c-6.1,5.5-3.7,11.6-3.6,16.9C1416.2,561.2,1416.7,561.2,1409,565z
				 M762.9,498.2c4.1-5.5,3.3-11.7,3.1-17.6c-0.2-5.3-0.4-9.2,6.9-8c-10-1.7-10.5-3.1-6.3-17.7c-2.9-1.1-5.6-3.4-9.8-0.4
				c6.9,4.1,6.5,10.2,6.2,16.6C762.6,480.1,762.9,489.2,762.9,498.2z M1618.5,474.9c-0.8,14.6-3.8,29.2-1.1,44
				C1620.3,504.4,1622.3,489.8,1618.5,474.9z M1263.4,300.8c7.2,2.3,11.9,1.3,16.5-3.9c2.5-2.8,4.6-6.9,9.3-7.8
				c0.8-0.2,3.4-1.3,2-3.3c-1.3-2-2.8-0.2-4,0.5C1279.7,290.9,1272.2,295.5,1263.4,300.8z M1539.5,615.8c-6.6-0.9-12.4,0.1-17.5,2.4
				c-4.5,2-0.2,5.6,0.3,8.5c0.4,2.9,2.3,1.7,3.8,0.5C1530.6,623.8,1535.5,621.1,1539.5,615.8z M968.6,397.9
				c-4.1,4.4-7.7,8.5-11.8,12.9c6,0.9,11.6-0.5,16.9,1.6c0.7,0.3,1.9-0.1,2.4-0.6c0.7-0.7,0.3-1.7-0.6-2.3
				C971.8,406.9,970.6,402.5,968.6,397.9z M1321.8,453.9c3.6-2,7.5,0.7,10.2-0.3c6.8-2.6,6.4,3.4,5.7,5.3c-3.8,10.1,3.6,4.6,7.2,6.9
				c-1.8-4.8-2.1-7.9-1-10.9c0.9-2.2,0.9-2.9-1.7-3.5C1335,449.5,1328.2,449.6,1321.8,453.9z M1264.6,493.4
				c-2.5,0.5-4.3,1.3-5.8,0.9c-1.6-0.4-4.5-1.9-2.9-3.8c1.9-2.5,0.8-5.2,2-7.5c1.1-2,1.5-3.8-0.5-5.3c-0.8-0.6-2.4-0.9-3.1-0.5
				c-2.3,1.4-1.2,3.6-0.4,5.3c1.5,3.4-0.5,6.6-1,9.7c-0.3,1.9-4,0.7-6.1,0.9c-1.4,0.1-3,0-2.5,2c0.3,1.2,1.4,3.2,1.9,3.1
				c5.8-0.5,11.5-1.3,17.2-2.1C1263.8,496.1,1263.9,495,1264.6,493.4z M1442,427.5c2.2-11.8-1.8-21.2-2.1-30.9c0-0.5-1.2-1.2-2-1.3
				c-1.5-0.3-1.8,0.9-1.8,2.1c0,2.4-0.5,5,0,7.3C1437.7,411.7,1437,419.4,1442,427.5z M765.3,506.5c-3.8,9.8-3.1,22.6,1.4,25.6
				c0.1-1.2,0.5-2.3,0.4-3.3c-0.6-4.2-2.6-8.5-0.9-12.4c2.1-4.8,7.5-2.1,11.3-3.4c0.2-0.1,0.5,0.1,0.7-0.1c1.9-1.3,1.3-3,0.3-4.4
				c-0.8-1.2-1.9-3-3.4-0.6C771.2,513.7,767.9,512.5,765.3,506.5z M1387.4,673.9c-2.3-6.2-4.3-12.5-9.5-17.4c-1.6,3.1-0.8,6-0.8,8.8
				C1376.9,675.3,1377,675.3,1387.4,673.9z M1240.5,390.6c9.3,0.7,18.2,0.1,27.4-1.5c4.2-0.8,9.4-5.2,14.4-0.9
				c0.6,0.6,1.9-0.1,2-1.1c0.2-1.7-1.2-1.5-2.2-1.5C1268,385.9,1254.1,387.2,1240.5,390.6z M879.3,401.6c-1.4,1.8,0.4,5.9-4.2,4.5
				c-2-0.6-1.8,1.2-1.9,2.5c-0.1,1.9,0.4,2.5,2.7,2.2c6.1-0.7,12.2-0.7,18.3-1c1-0.1,2.4,0.2,2-1.7c-0.3-1.4-0.6-2.7-2.5-2
				C887.9,408.4,883.7,405.3,879.3,401.6z M1282.4,623.6c-0.6-0.3-1.2-0.7-1.7-1c-7.9,13-15.7,26.1-23.6,39.1c0.6,0.3,1.2,0.7,1.8,1
				C1265.9,649.2,1276.5,637.8,1282.4,623.6z M1379.4,474c4.1,0.4,7.9,2.8,13.3,0.6c-8.5-2.8-6.1-9-6.2-14.4c0-1.1,2-2.4-0.2-3.1
				c-1.2-0.4-2.5-1.4-3.7-0.4c-1.3,1.1-0.2,2.5,0.1,3.7C1383.8,465.4,1382.7,469.9,1379.4,474z M1616.8,609c3.2-1.5,5.3-2,6.8-3.2
				c3.4-2.7,2.6-6.6,1.2-9.6c-1.8-3.8-3.7,1.8-5.9,0.6c-1.2,3.5-4.4,0.4-6.7,1.9C1615.4,601,1619.1,603.1,1616.8,609z M1565.5,504.2
				c-1.4-3.9-1.4-3.9-5.9-1.5c-1.3,0.7-1.7-0.3-2-0.8c-1.8-3.3-5.2-1.7-6.5-0.8c-5.5,3.8-6.4,0.1-7.4-3.9c-0.4-1.3,0.7-3.2-2.2-4.3
				c0.1,4.1-2.2,9.9,1.8,10.8C1550.4,505.3,1558.2,504.2,1565.5,504.2z M1557.5,609.5c2.3-2.4,7.6,1.7,8.8-2.8c0.9-3.5-3.1-8-5.2-8
				c-4.5,0-5.2,5.1-6.3,8.9C1554.2,609.8,1555.9,609.5,1557.5,609.5z M1363.8,544.4c-8.8,5.9-17.5,0.9-26.8,3.2
				c6,2.3,12,1.6,16.1,3.8C1360.8,555.6,1361.5,551,1363.8,544.4z M578.7,480.4c-1.5,9.9-4,19.9-0.7,29.8
				C578.1,500.2,582.5,490.3,578.7,480.4z M1399.4,487.7c-3.8,10.2-1.8,19.4-2.2,28.3c-0.2,4.3,0.1,4.3,5,3.1
				C1397.5,509.5,1400.5,499.1,1399.4,487.7z M1447.1,504.1c5.5-11.4,4.8-22.9,1.7-34.6C1447.8,481,1449.1,492.6,1447.1,504.1z
				 M859.2,456.7c1-11.8-0.2-23.8,0.5-35.8C856.5,432.7,856.4,444.6,859.2,456.7z M1254.3,509.4c-2.2,0.7-4.4,2.1-5.8,1.6
				c-3.2-1.3-7.4-1.6-8.2,0.7c-1.6,4.7,3.8,2.4,5.9,3.8c2.1,1.5,5.2,3.1,7.5,1.5C1255.9,515.4,1254.7,512.2,1254.3,509.4z
				 M589.9,414.1c10.5,3,21.3,2,32,2.5C611.2,416.3,600.9,410.4,589.9,414.1z M898.3,409.9c3.4,0,5.9-0.2,8.3,0
				c2.4,0.2,4.8,0.8,7.2,1.1c1.3,0.2,3,0.3,3.2-1.4c0.1-0.9-0.5-2.2-1.2-2.9C913.7,404.4,901.4,406.1,898.3,409.9z M1397.5,538.1
				c0.3,2.5-2.1,5.6,1.9,6.1c3.7,0.5,7.5-1.3,11.1,1.2c1,0.7,2.7-1.1,3-2.8c0.4-1.8-0.7-3.1-2.3-3.5c-1.7-0.4-3.5,0.5-5,0.5
				C1403.4,539.5,1399.7,543.5,1397.5,538.1z M1575.1,483.8c5.8-2.4,7.9-6.3,5.8-10.8c-0.8-1.7-2.1-3.2-4.1-2.7
				c-1.3,0.3-2.3,1.6-3.5,2.5C1579.2,475.6,1572.7,480.4,1575.1,483.8z M1582.3,520.3c-3,0-1.4,6.2-5.8,3.6
				c-2.1-1.3-3.7-0.6-4.3,0.9c-0.7,1.4-0.7,3.7,0,5.1c1,1.8,3,0.8,4.7,0.3C1582.2,528.6,1583.6,525.1,1582.3,520.3z M780.5,464.6
				c0,2.3,0.2,4.1-1.3,5.5c-1.1,1.1-2.2,2.3-0.8,3.9c0.3,0.3,1.3,0.4,1.8,0.2c2.1-0.6,1.1-2.6,1.6-3.9c1.1-2.8-3.1-7.8,3.4-8.5
				c0.7-0.1,0.5-1.7-0.5-2c-2.6-0.8-4.6-2.5-6.6-4.2c-1.2-1.1-2.6-1.8-3.9,0.2c-1.6,2.4,0.8,2.5,1.9,3
				C779.1,460,781.4,461.5,780.5,464.6z M1434.7,591.2c0.3-2.7-1.7-2.2-3.4-2.7c-4.2-1.4-8.1,3.4-12.3,0.3c-1.1-0.8-1.7,0.9-1.7,2.1
				c-0.1,1.5,1,1.8,2.2,1.7c4.2-0.2,8.4,0.1,12.5,1.2C1434,594.3,1434.8,593.2,1434.7,591.2z M1495.5,543.9c3.4-1.8,3.3-5.6,1.8-6.9
				c-5.8-5,0.6-5.5,2.4-7.3c1.2-1.2,3.7-0.9,4.7-3C1492.3,526.8,1492.3,526.8,1495.5,543.9z M1450,430.6c-1.7,9-2.5,18.5,0,28.1
				C1450,449.2,1450,439.7,1450,430.6z M1571.9,550.5c3.5-2,3.5-2.1,7.4-1.3c1.7,0.3,3.3,0.8,3.2-1.6c-0.1-1.7,1.4-4.1-1.5-5
				C1576.2,541.1,1571.7,544.7,1571.9,550.5z M626.5,613.6c4.4-7,7.1-14.4,8.4-22.4C631,598.3,627,605.4,626.5,613.6z M1521.6,522.4
				c-1.3-3.7-1.5-7.4-0.7-10.6c0.8-3.2-0.6-2.7-2.4-2.7c-2,0-3.5,0.1-2.2,3c0.6,1.5,0.7,3.7,0,5.2
				C1513.7,523,1516.6,523.3,1521.6,522.4z M681.4,522.5c4.8-5.2,2.6-11.6,4.9-16.9c0.2-0.5-2.1-2.6-3.5-3.1
				c-1.6-0.5-2.1,1.1-1.9,2.6C681.2,510.7,682.6,516.3,681.4,522.5z M1337,617.7c5.6-6.2,5.3-12.1,0-18.8
				C1337,605.6,1337,611.5,1337,617.7z M1489.8,530.9c0-6.1-0.1-10.3,0-14.6c0-2.1-0.4-3.3-3-3.1c-2.8,0.2-2.6,1.9-2.3,3.7
				C1485.5,521.2,1486.8,525.4,1489.8,530.9z M1317.9,454.4c-5.6,2-10.7,3.8-15.8,5.6c3,1,6.1,0.2,8.4,1.2
				C1318.1,464.3,1317.3,459.3,1317.9,454.4z M736.5,375.2c3.9-2.6,4.5-8,9.1-9.4c0.2-0.1,1.8-2.3,0.2-3.2c-0.7-0.4-2.4-1.6-3.3,0.4
				c-0.7,1.7-1.9,2.7-4.1,2.6c-3.4-0.1-3.8,2.1-2.1,4.2C738,371.7,735.7,372.9,736.5,375.2z M1557.6,508.1c0,2.7,3.3,4.6,1.3,7.6
				c-0.7,1-1.1,2.7,0.9,3.1c1.9,0.4,3.1-0.8,3.5-2.4c0.6-2.8,0.6-5.7,3.3-8.3C1562.9,508.1,1560.3,508.1,1557.6,508.1z M916.7,396.5
				c1.6-0.7,4.5,1.3,4.7-1.9c0.2-3.4-2.7-3.8-5.1-3.4c-2.8,0.4-7.5-0.1-7.4,2.7C908.9,396.3,913.7,396.2,916.7,396.5z M798.7,524.3
				c-0.8,1.6-0.5,4-3,3.7c-3.3-0.3-6.3,2.6-9.5,0.9c-1.4-0.7-2.1-0.2-2.5,0.9c-0.3,0.7-0.5,1.9,0.6,2.1c4.6,0.7,9.3,0.5,13.6-1.2
				C800.8,529.5,798.8,526.5,798.7,524.3z M1157.6,564.8c1.1-6.4,5.3-8.8,8.3-12.2c0.9-1.1,4-1.9,1.6-4c-1.3-1.1-4.6-0.7-4.8,0.2
				C1161.2,553.7,1155.9,557.2,1157.6,564.8z M1384.8,235c8.2,2.4,16.4,4.8,24.5,7.2C1402.4,235.5,1393.5,235.7,1384.8,235z
				 M1257.9,298.6c-6.9,2.4-12.6,6.5-18.5,10.3c-1.6,1-1.6,1.9-0.7,3.1c0.8,1,1.6,1.5,2.5,0.1
				C1245.4,305.7,1252.9,303.7,1257.9,298.6z M1500.3,549.6c-1.8-1.3-3.1-1.9-4.4-0.2c-0.8,1.1-0.5,2.1,0.2,3
				c1.4,1.9,2.8-0.1,4.2-0.2c3-0.2,6-0.9,9.1-1.4c1.3-0.2,2.1-0.8,1.7-2.1c-0.3-1.2-1-2-2.4-1.3C1506,549,1502.6,547.4,1500.3,549.6
				z M585.8,454.4c0.2,9.8-2.6,17.8-1,26C585.7,472.3,589.5,464.3,585.8,454.4z M587.3,574.5c6.1,5.5,13.5,7,21.4,6.9
				C601.7,578.6,594.3,577.1,587.3,574.5z M1324.4,291c0.2,2-0.2,4.6,2.7,4.5c2-0.1,3.9-1.3,3.3-3.9c-0.5-2.2-0.4-5.4-3.9-5.2
				C1323.3,286.5,1325.3,289.5,1324.4,291z M909.1,377.4c3.9,3,8,1.2,11.8,1.4c1.1,0,1-4.4-0.7-10
				C922.4,380,913.4,374.7,909.1,377.4z M784.6,512.3c5.2,1.9,9.9,1.3,13.1,4.7C797.9,510,794.8,508.7,784.6,512.3z M932.3,401.1
				c0,3.4-0.1,6.2,0,9.1c0.1,2.1,1.8,2.4,3.4,2.2c1-0.1,2.6-0.2,2.9-0.8c0.7-1.2,0-2.2-1.2-3.3C935.6,406.4,934.3,403.9,932.3,401.1
				z M1273.6,462.8c0.3,0.1,0.6,0.1,1,0.2c0-10.4,0-20.9,0-31.3c-0.3,0-0.6,0-1,0c0,9.3,0,18.6,0,27.8
				C1273.6,460.7,1273.6,461.8,1273.6,462.8z M1274,503.2c-0.3,6.7-0.4,13.3-2.1,20.3C1279.4,516.9,1275.2,509.9,1274,503.2z
				 M1553.2,466.9c3.8-2.7,8-5.3,8.8-10.1c0.3-2.1-3.1-1.1-5.2-2.6C1558.3,459.6,1554.8,462.8,1553.2,466.9z M879.8,383.2
				c0.4,1.4-0.9,4,2.1,3.7c2.1-0.2,4.5-1,3.9-3.8c-0.4-1.9-0.5-4.9-3.4-4.9C879.4,378.3,880,381.1,879.8,383.2z M1249.5,670.9
				c-3.2,5.4-6.5,10.7-10.3,17.1C1246,683.8,1246.7,682.8,1249.5,670.9z M1414.3,501.4c0-4.3,0-7.4,0-10.6c-1.1,3.2-3.1,3.8-5.8,1.9
				c-1.2-0.8-2.3-0.3-2.7,0.7c-0.5,1.3,0.7,2.3,1.7,2.2C1410.9,495.5,1411.8,498.7,1414.3,501.4z M1264.2,500.8
				c-2.1,4.4,0.1,9.8-3.9,14c-0.8,0.9-0.3,3.2,1.8,3.5c2,0.3,2.1-1.2,2.1-2.5C1264.2,510.9,1264.2,505.9,1264.2,500.8z
				 M1605.4,604.9c0.1,1.9-0.6,4.3,2.7,3.9c1.6-0.2,4-0.2,3.3-2.5c-0.5-2-0.1-5.2-3.8-5.1C1604.6,601.2,1605.7,603.5,1605.4,604.9z
				 M1559.9,475.6c-0.6-1.3-0.7-1.7-1-2c-0.7-0.8-11.5-0.8-12.2,0.1c-0.7,1-0.1,3,0.2,2.8c3.7-2.2,7.3,0.9,10.9,0.1
				C1558.7,476.5,1559.4,475.9,1559.9,475.6z M583.3,505.5c-3.4,2.9-3,6.6-3,10.2c0,1.5-0.1,3.4,2.3,3c2.3-0.4,1.9-2.4,1.5-3.7
				C583.1,511.9,582.5,508.9,583.3,505.5z M1291.6,599.6c3.6-4.4,6.7-9,8.2-14.5C1296.1,589.5,1292,593.5,1291.6,599.6z
				 M1391.2,478.9c-7.2-2.2-11.9,1.7-16.3,6.3C1380.2,483.1,1385.5,481.1,1391.2,478.9z M722.6,535.7c0.1-0.4,0.2-0.9,0.3-1.3
				c-4.3-1.1-8.6-2.2-13-3.1c-0.7-0.2-1.8,0.3-1.9,1.4c-0.2,1,0.3,1.9,1.3,2C713.6,535.1,718.1,535.3,722.6,535.7z M1517.6,534.4
				c1.5-2.7,3.6-5.3,1.9-8.4c-0.6-1.1-2.6-1-3.6-0.2C1511.9,529.6,1518.4,531.2,1517.6,534.4z M780.2,523.7c-0.4,4.9-6.6,9.7,0,14.6
				C780.2,533.2,780.2,528.4,780.2,523.7z M1214.7,504.7c5.5-8.2,5.5-8.2,3-11.2C1214.6,496.4,1213.5,500,1214.7,504.7z
				 M1212.2,357.6c-2.4-2.4-4.8-3.7-6.2-2.4c-2.2,2.2-0.9,5.4-0.8,9.9C1207.8,361.5,1208.3,358.3,1212.2,357.6z M1365,461.4
				c-1.8,2.8-2.7,4.9-3.1,6.3c-1.1,4,3.8,4.5,4.9,3.3C1369.1,468.4,1365.6,465.7,1365,461.4z M1497.5,476.2
				c5.4-3.6,5.1-9.2,7.9-13.1C1501.3,466.2,1498.3,470,1497.5,476.2z M1582.8,489.2c-3.7,7,0,13.6-2.4,18.9
				C1583.4,502.8,1582,496.5,1582.8,489.2z M693.8,505.5c-0.2,0.4-0.6,0.7-0.6,1c0,0.4,0.3,0.7,0.5,1.1c0.2-0.3,0.6-0.7,0.6-1
				C694.3,506.3,694,505.9,693.8,505.5z M715.1,366c-0.1,0.1-0.1,0.3-0.2,0.4c0.3,0,0.5,0,0.8,0c-0.1-0.1-0.1-0.3-0.2-0.4
				C715.4,365.9,715.2,366,715.1,366z"/>
			<path d="M784.7,678.5c-3.9,5.4-3.2,11.8-4.1,17.8c-0.1,0.9,2.7,2.1-0.2,2.6c-1.2,0.2-2.6,0.9-3.5-0.7c-1-1.7-2.7-3.3-2.9-5.1
				c-0.7-7.3-4.2-7.2-9.4-4.2c-1.1,0.7-2.5,2-4.7,1c2.1-1.2,3.9-2.2,5.8-3.2c1.5-0.7,3-1.2,2.1-3.3c-0.9-2-1.9-2.4-4.1-1.5
				c-10.6,4.3-21.3,8.4-32.1,12.3c-28.3,10.1-56,21.9-85.1,29.4c-0.8,0.2-1.7,0.3-2.7,0c42.5-14.4,83.7-32.1,125.6-48.1
				c-6.1-1.6-11.3,1-16.7,2.5c-34.4,9.5-67.1,23.7-100.6,35.5c-30.1,10.7-61,17.9-92.3,23.7c-9.5,1.8-19.5,1.9-28.9,4.4
				c-5.6,1.5-10.9,4.2-16.8,5.3c-9.5,1.8-18.9-0.6-28.4,1.1c-18.3,3.2-37.1,3.7-55.5,6.4c-11.2,1.6-22.6,1.4-33.8,3.2
				c-16.8,2.7-33.8,4.4-50.3,8.8c-3.2,0.9-6.5,0.5-9.8,1.8c-5.1,2.1-10.6,3.3-13.2,10.2c-1.7-6.2,1.8-7.9,4.9-9.8
				c7.9-4.7,17-5.1,25.6-6.7c22.4-4.3,44.8-8.1,67.7-9.9c23-1.7,45.9-5.1,68.9-7.6c36.1-4,71.8-10.2,107.3-17.7
				c33.2-7,64.9-18.4,96.4-30.8c31-12.2,62.7-22.6,95.7-28.7c15.9-3,31.3-9.3,45.2-18.3c3.6-2.3,8.1-2.7,12-4.8
				c30.2-16.3,61.3-31,93.1-43.8c1.2-0.5,2.2-1.6,4.4-0.4c-18.5,9-37.6,15.8-55.2,25.7c20.2-5.3,37.4-19.9,60.7-19
				c-7.4,2.7-13.9,4.9-20.4,7.4c-32.1,12.6-64.2,25.3-95.2,40.6c-7.2,3.6-13.7,9.1-21.7,11.9c-2.6,0.9-5.1,1.3-7.7,1.5
				c-9.2,1.2-16.9,6.2-25.6,8.6c0.2,0.6,0.3,1.1,0.5,1.7C781.3,678.5,783,678.5,784.7,678.5z"/>
			<path d="M1079,678.3c4.6-2.1,8.8,0.6,13.2,1.1c2,0.2,1.6,3.6,1.1,5.4c-1,3.6-3.2,6.5-7.1,7c-2.4,0.3-5,0.6-7.2-0.7
				c-1.5-0.9-2.4-0.8-3,1c-0.5,1.6-1.7,3.1-3.4,2c-1.6-1.1-0.1-2.7,0.3-4.1c0.5-1.7,0.4-3.5,0.5-5.3c0.1-2.6-0.9-4.2-3.6-4.7
				c-3.4-0.6-2.8,2.4-3.6,4.1c-1.5-2-1.3-5.7-5.1-5c-2.2,0.4-3.5,1.5-4.3,4c-8.9,26.1-18.6,52-25.5,78.7c-4.8,18.3-7,37.1-2.3,56
				c0.4,1.5,0.2,3.1,0.1,4.7c0,1-0.3,1.9-1.8,2.9c-1-9.4-2-18.8-2.9-28.2c-9.3,33.5-7.4,67.8-10.4,102.8
				c-3.7-70.2,12-136.4,30.5-202c0.9,8.4-3.6,15.7-3.6,24c4.3-11.5,8.5-23.1,13.3-36c-3.7,3.1-6.7,2.9-10.3,1.4
				c3.5-1,5.5-4.1,9.2-3.5c2.3,0.4,1.7-1.6,1.8-2.7c1.1-6.9,3.1-13.6,5.7-21.2c-3.6,2.8-3.2,6.6-6,9.8c7.7-23.4,15-45.9,22.4-68.3
				c2,0.4,2.3,1.9,1.7,3.4c-4.6,11.6-5.2,24.1-8.3,36c-2.5,9.4-6.4,18.7-9.3,28.2c-0.4,1.3-0.5,2.7-1.1,3.8
				c-1.5,2.8,0.7,3.7,2.5,4.1c2.2,0.5,3-1.3,3.1-3.3c0.1-1.3-0.1-2.8,0.3-4c0.9-2.2,2-5.3,4.7-5c2.4,0.2,0.9,3.7,1.8,5.1
				c2.1,2.9-1.7,11.1,7,8.4c-0.4,2.6-5,1.3-4.5,4.9c0.3,1.9-0.9,5,0.7,5.4c3.9,1.1,8,3.4,12.3-0.2c1.6-1.3,3.1-2.1,3.2-4.3
				c0.1-2.2-0.7-3.2-3-3.5C1085,679.9,1082,679,1079,678.3z M1068.6,668.4c-2.7,2.1-1.8,5.1-2,7.9c-0.2,2.3,1.4,2.3,3,2.3
				c2.4,0,2.3-1.3,1.7-3C1070.4,673.2,1071.1,670.2,1068.6,668.4z"/>
			<path d="M809.3,428.7c-2.2,12.3,2,23.5,0.4,35.6c-2.9-4.1-3.1-8.4-3.5-12.5c-0.3-3.6,0-7.2-0.2-10.7c-0.2-3,1.2-8.2-0.7-8.6
				c-6.7-1.5-13.4-7-20.4-3c-5.8,3.3-11.3,3.6-16.6,0.3c-3.7-2.3-7.9-2.3-11.6-4.4c1.1-2.1,3-1.1,4.8-1.2c9.7-0.5,19.1,2.5,29.2,0.1
				c7.6-1.8,16.1,0.3,24.3,0.3c2.5,0,6.1,1.8,7.1-2.7c0.1-0.5,0.5-1.2,1.4-0.5c6.4,4.7,13.5,1.3,20.3,1.3c1.9,0,3.4-0.1,4.6,1.4
				c0.5,0.6,0.5,2.4,0.5,2.4c-1.7,0.4-3.4,1.1-5,0.9c-9.5-1.1-10.8,0.2-11.1,9.8c-0.3,12.1,1.7,24.4-2.5,36.4c0-2.4,0-4.8,0-7.2
				c-0.2-11.4-0.4-22.7-0.6-34.1c0-0.8,0.1-2.5-0.5-2.2c-3.2,1.4-6.6,0.6-9.8,1c-3.6,0.4-2.3,3.7-2.5,5.9
				c-0.6,6.2-1.1,12.4-1.7,18.9C811.4,447.3,818.5,436.7,809.3,428.7z"/>
			<path d="M598.2,664c-4.5-2.2-8.9-2.1-13.2,0.5c-2,1.2-3.5,2.8-3.4,5.4c0,1,0.2,1.8,1.2,2.1c2.7,1,3.2-1.7,4.6-2.9
				c0.5-0.4,1.1-0.6,2.3-1.3c-0.2,2.9,1.1,5.1-1.8,7.2c-3.7,2.7-6.2-2.4-9.4-0.8c-0.9-2.2-0.5-4.4,0.5-6.3
				c4.1-7.8,11.8-8.9,19.3-9.2c6.6-0.3,11.1,3.8,13.4,10.1c0.7,2,1.9,4.1-0.1,5.3c-1.9,1.1-2.8-1.6-4.1-2.7c-1.1-1-2-2.3-2.9-3.5
				c1.2,0.3,2.4,0.6,4.7,1.3c-2.5-5.1-5.1-8.3-10.4-8C595.1,661.2,598.2,663,598.2,664z"/>
			<path d="M1229.8,545.3c-5.3,0-10.7,0-16.3,0c0.4-5,2.5-8.9,5.1-12.8c3.6,2.7-1.3,5,0.1,7.6c3.5,0.1,2.8-3.5,4.6-4.8
				c1.8-1.3,3.1-4.7,6-2.2c2.3,2,1.4,4.3-0.1,6.6C1228,541.4,1222.2,544.3,1229.8,545.3z"/>
			<path d="M1192.7,622.8c9.4-2.3,17.1,2.1,25.2,2.5c6.2,0.3,12.3,0.9,18.5,0.5c2.1-0.1,4,0,5.9,0.8c1,0.4,1.9,1.5,1.4,2.7
				c-0.2,0.5-1.5,0.8-2.2,0.8c-15.4-0.6-30.6-2.7-45.7-5.4C1195,624.5,1194.3,623.8,1192.7,622.8z"/>
			<path d="M423.6,768.6c21.9-7.6,44.8-12.4,67.7-16.6C468.7,757.6,446.1,763.1,423.6,768.6z"/>
			<path d="M1203.9,561.5c3.4-12.6,1.5-26.6,8.5-38.3C1209.7,536,1208.1,549.1,1203.9,561.5z"/>
			<path d="M801.2,700.8c-2.6,2.7-5.5,4.3-8.4,2.8c-4.1-2-4.9-6.5-5.5-10.6c-0.5-3.1,1.3-5.7,3.8-7.2c1.8-1.1,4.1-1,4.1,2.1
				c0,2.4,0.2,4.7-0.7,7.1c-0.7,1.8-4.9,2.2-2.3,5.1c2,2.2,4.3,1.4,6.7,0.3C799.3,700.3,800,700.6,801.2,700.8z"/>
			<path d="M567.9,574.4c-5.8,1.3-3.5,5.7-5,11c-1.9-12.7-6.8-5.6-10.7-4.3c-1.4-0.9-0.3-1.8-0.1-2.8c1.3-9.8,1.2-9.8,9.7-5.1
				C563.1,574,565,573.9,567.9,574.4z"/>
			<path d="M1243.4,588.9c-11.6,1.3-22.5-2.7-33.6-5.6C1221.3,583.1,1232.2,586.6,1243.4,588.9z"/>
			<path d="M1176.7,623.2c-1.9-2.3-5-2.2-7.5-2.9c-0.1-2.8,1.9-2.3,2.8-2c5.1,1.4,10,2.9,15.3,3.2c2.7,0.2,3.3,2.6,2.7,4.9
				c-0.7,2.5-2.9,0.4-4.2,1c-0.8-3.1-2.5-2.8-5-1.8c-0.6,0.2-2.4-2.3-4.4-2.6C1176.4,623,1176.7,623.2,1176.7,623.2z"/>
			<path d="M217.7,775.5c11.8-4.6,24.3-3,36.3-5.4c1.6-0.3,3.6-0.7,5,0.8c0.6,0.6,0.8,1.5,1.2,2.3c-0.8,0.2-2.1,0.9-2.4,0.6
				c-4.3-4.6-8.9-1-13.4-0.7C235.6,773.8,226.7,774.7,217.7,775.5z"/>
			<path d="M1042.5,608.9c-6,3.6-10.5,9.3-18.1,6.3c-2.7-1.1-2.1-3.3-2.3-5.9c4.2,3.2,7.4,8.3,11.5,0.4
				C1034.5,608,1038.8,606.3,1042.5,608.9z"/>
			<path d="M671.5,651.1c2.4,4.2,0.9,7.3-4,10.6c2.8-5.6,0.8-10.4,1.5-15.1c0.2-1.3-0.2-2.9,1.4-3.4c1.9-0.5,2.6,1.2,3.4,2.5
				c1.2,2.3,2.6,4.7,1.6,7.5C673.8,653.2,673.9,650.6,671.5,651.1z"/>
			<path d="M873.2,642.5c-9.2,6.4-20,8.4-30.9,10.4C852.6,649.4,862.9,645.9,873.2,642.5z"/>
			<path d="M1220.2,550.2c1.9,3.8,4.9,5.5,9,4.1c2.6-0.9,2.9,1,2.9,2.3c0,1.5-1.3,2.1-2.9,1.5c-3.3-1.2-6.3-2-9.7,0.6
				c-1.4,1.1-3.4-0.3-2.7-2.8C1217.4,553.8,1218.3,551.8,1220.2,550.2z"/>
			<path d="M1212.2,573.4c10.3,0.8,19.4,5.2,28.9,8C1230.7,581.6,1221.8,575.8,1212.2,573.4z"/>
			<path d="M937.3,632.3c3.8-9.4-4.9-6.8-8.8-9.2c4.7-0.8,9.7-2.5,12.5,2.7C942.4,628.3,943,632.1,937.3,632.3z"/>
			<path d="M1405.1,709.7c-4.4-5.9-5.2-12.3-5.7-18.7C1403.2,696.4,1404.9,702.5,1405.1,709.7z"/>
			<path d="M252.9,778.7c-6,0.7-11.9,1.8-17.8,1.9c-5.9,0.1-11.8,0.8-17.6,1.3C222.7,779.5,245.2,777.7,252.9,778.7z"/>
			<path d="M1243.7,542.6c-2.1,0.4-2.6-1.4-2.5-2.9c0.3-3.1,0.9-6.3,4.4-7.4c1.4-0.5,3.2,1.5,2.7,1.8
				C1244.5,535.9,1249.3,542,1243.7,542.6z"/>
			<path d="M784.8,752.4c6.8-3.8,13.6-7.5,20.4-11.3C800.7,746.9,796.3,749.3,784.8,752.4z"/>
			<path d="M513.6,614.4c-1.1-1.5,0.8-4.6-3.1-4.8c-2.6-0.2-2.6-3.1-2.7-5.4c0-0.8,0.1-1.8,1.2-2c3.1-0.5,2.7,2.4,3.7,3.9
				C516.2,610.8,516.1,610.8,513.6,614.4z"/>
			<path d="M1632.6,681.8c-10,1.7-12.9-8.4-20.9-11.9c4.5,0.1,4.4,0.1,10.4,5.9C1625.1,678.7,1628.1,681.8,1632.6,681.8z"/>
			<path d="M786.9,383.6c-6.8-5.6-3.4-16.7-11.8-21.5c2.6-1.5,4.3-1.1,5.6,2.6C783.1,370.9,783.7,377.6,786.9,383.6z"/>
			<path d="M1696.3,623.8c5.7,1.3,9.5,5.4,14.7,10.7C1703,632.9,1699.9,628,1696.3,623.8z"/>
			<path d="M1221.4,570.6c5.9-2.8,11.5-2.5,16.7,1.8C1232.5,571.8,1227,571.2,1221.4,570.6z"/>
			<path d="M1236.1,531.1c0,3.3,0,4.9,0,6.6c1.8-0.1,1.4-2.9,3.5-2.2c1.2,3.2-0.5,5.3-3,7c-1.2,0.8-2.3-0.2-2.7-1.1
				C1232.7,538.3,1232.6,535.1,1236.1,531.1z"/>
			<path d="M1326.3,731.3c-7.3,4.4-14.3-0.2-21.4-1.1C1312.1,730,1319.1,732,1326.3,731.3z"/>
			<path d="M1403.5,714.7c-5.5,2.6-11.1,5.3-15.5-1.8C1392.9,716.3,1398.5,713,1403.5,714.7z"/>
			<path d="M654.6,662c-4.7,1.7-6.1-1.9-8.4-3.9C650.8,657,650.8,657,654.6,662z"/>
			<path d="M1250.2,546.8c-5.7,0-10.4,0.6-14.9-1.3C1240,544,1244.7,543.5,1250.2,546.8z"/>
			<path d="M942.2,529.1c-2.7,6.6-1.4,12.5-2.1,19.1c-2.5-5.6-0.9-10.8-2.1-15.9c-3,7.9-0.3,16.6-2.4,24.6c-0.6,0-1.1-0.1-1.7-0.1
				c0-6.9,0-13.8,0-20.7c-0.4,0-0.9,0-1.3-0.1c-0.1,1.7-0.2,3.4-0.2,5.1c0,2.3-0.1,4.9-2.7,5.4c-3.2,0.6-2.1-3.2-3.7-4.6
				c-1,10.4-1,10.4,5.5,15.2c-17.9-2.2-33.5,0.8-49.8,3c-4.4-18.1-5.4-37.4-2.2-57c0.5-3.3-0.8-6.4,1.4-10c2.3-3.7,2.3-8.8,3.4-13.3
				c0.7-3,0.8-3-2.2-3.6c-0.3-0.1-0.6-0.6-0.8-1c-0.3-0.8-0.8-1.8,0.5-2.1c8.8-2.5,10.1-11.2,14.1-17.5c4.5-7.1,10.7-11.3,18-7.5
				c3.5,1.8,8.1,4.6,10.7,8.6c7.2,10.7,12.4,22.3,12.8,35.3c0.3,11.5,1.6,23.1-0.7,34.5C935.7,532.1,938.5,530.3,942.2,529.1z
				 M924.1,485.2c-0.9,7.5,1,15.2-1.3,22.8c0.7-0.1,1.9-0.1,1.9-0.3c0.8-7.5,2.6-15.1-0.9-22.4c0.3-1.1,0.3-2.3,0.9-3.1
				c0.8-1,1.3,0.3,2,0.6c1.2,0.6-1.7,4.7,2.3,2.7c1-0.5,2.3-1,1.6-2.3c-0.8-1.6-1.1-3.9-3.9-3.6c-2.8,0.3-5.7,0-8.6,0.2
				c-1.4,0.1-3.6-0.1-2.6,2.4c0.5,1.2,0.6,4.2,3.2,2.6C920.8,483.6,922.4,483.5,924.1,485.2z M898.8,511.2c-1.3,2-1.9,2.5-1.9,3
				c-1.4,12.6-1.2,25.2,0.6,37.7c0.2,1.4,1.1,1.8,2.3,1.6c2-0.4,1.4-1.4,0.8-2.8c-2.7-6.2-0.2-12.9-2.6-19.7
				C896.5,526.6,898.3,519.1,898.8,511.2z M910.6,471c-2.8-3.2-1.9-7.6-3.2-11.2c-0.5-1.2,0.3-4.1-1.5-3.5c-2.6,0.9-6-0.7-8,2.3
				c-0.5,0.8-0.7,1.9,0.4,2.1c6.3,1.1,8.2,5.6,8.9,11c0.2,1.7,1.4,1.4,2.4,1.3C910.9,472.9,910.6,471.9,910.6,471z M914.2,534.6
				c0.7-1.6,0.8-3.4-1.4-3.6c-2.5-0.2-1.9,1.9-2,3.3c-0.2,4.9,0.3,9.8-0.9,14.7c-0.3,1.2-0.7,2.8,1.2,3.2c2.4,0.5,2.3-1.4,2.4-2.9
				C913.7,544.4,914,539.5,914.2,534.6z M908.8,485.6c-0.8-2.4,3.1-6-1.2-7.6c-5.3-2-10.9-3.3-16.9-3.1c0.4,2.9,3.7,1.4,4,4.3
				c0.3,4.2,3,1.4,4.7,0.8C905.9,477.6,907.8,478.8,908.8,485.6z M893.3,497.6c-3.6,0.2-4.2,3.3-6.2,4.7c-1.6,1.2-0.1,3.2,0.6,4.8
				c0.9,2.2,3.3,1.3,4.6,1.4c1.7,0.1,0.9-2.5,1-3.9C893.5,502.4,893.3,500.2,893.3,497.6z M912.8,485.4c-3.1,7.1-1.6,12.6-1.8,17.9
				c0,1.3,0.8,2,2.2,1.7c1.4-0.3,1.7-1.4,1.4-2.5C912.8,497.6,914.1,492.4,912.8,485.4z M912.1,527.7c-0.7-6.4-1.1-12.8,0.8-19.2
				C910.2,514.8,911.8,521.3,912.1,527.7z"/>
			<path d="M1283.2,349.4c-0.4,6.8-2.3,12.8-5.5,18.6c-3.3,5.9-8.9,8.2-14.3,7.4c-5.1-0.8-8.3-5.1-9.1-11.6c-0.5-4.9,0-10.2-2-15.7
				c-3.4,2.5-6.5,4.7-10.6,4.6c-2.3,0-3.3,1.7-3.2,4.1c0.1,4.2-0.8,8.6-0.1,12.7c1,5.4-2.8,6-5.9,6.3c-4.4,0.4-3.5-3.6-3.4-6.3
				c0.4-11.4,0.8-22.7,0.1-34.1c-0.4-6.3,2.9-8.7,9.5-7.5c6.4,1.2,14.3,0.1,16.3,9.3c14.6-11,17.1-10.1,24.6-1.2
				c1.9-8.4,6.7-11.9,16-10.7c8.8,1.1,17.5-0.7,26.3-0.3c1.9,0.1,4.1-1.5,4,2c-0.1,2.2,3.4,5.5-1.4,6.4c-5.2,0.9-5.5,4-5.4,8.5
				c0.1,8.7,0.7,17.3-0.8,26c-0.6,3.6-3,3.9-4.9,4.1c-3.3,0.3-2.1-2.9-2.2-4.5c-0.3-9.8,1-19.6-1.3-29.3c-0.6-2.6-7.2-6.4-9.7-5.5
				c-1.2,0.5-2.5,0.7-3.7,0.9c-1.6,0.2-3.9-1.9-4.5,1.8c-0.4,2.8-1.8,5.5,1.4,7.6c2.2,1.4,4.5,2.9,6.7,4.3c5.7,3.7,7.5,9.8,5.2,15.2
				c-2.2,5.1-5.9,10.6-13,11c-2.2,0.1-4.4-0.1-6.6,0.7c-1.7,0.7-5,2-4.8-1.3c0.1-1.8-1.5-7.2,4.2-6c2.9,0.6,5.1-1.1,7.3-2.6
				c2.6-1.8,5.5-3.7,5.2-7.3c-0.3-3.8-4.3-3.2-6.7-4.5C1288.6,351.5,1286.1,350.6,1283.2,349.4z M1261.5,355.6
				c0,0.5-0.3,2.4,0.1,4.1c0.7,3.4,2.5,6.6,6.3,6.8c3.5,0.2,4.8-3.3,5.3-5.9c1.3-6.3,1.8-12.7-0.8-18.9c-1.8-4.4-4.3-3.9-6.9-0.9
				C1262.1,344.6,1260.2,349,1261.5,355.6z M1241.4,342.7c2.5,0.2,4.3-1.3,4.5-3.2c0.3-2.5-2.2-2-3.9-2.1c-2-0.1-3.5,0.2-3.4,2.8
				C1238.6,342.2,1239.6,342.9,1241.4,342.7z"/>
			<path d="M1370.3,348.3c-1,6.7-3.8,12.5-6.7,18.1c-2,3.8-5.2,5.9-9.6,5.8c-4.8,0-8.1-2.5-9.8-6.7c-4.6-11.8-5.3-23.7-0.4-35.7
				c1.5-3.6,3.7-6.3,8.4-6.2c5.2,0.1,9.8,0.8,12.4,5.9c1.5,2.9,2.5,6,3.9,9.5c0.2-1.3,0.4-2,0.4-2.7c0.6-14.7,5.6-18.6,20.2-15.7
				c5.1,1,2.3,5.7,3.1,8.4c1,3-2.5,1.6-4.2,1.4c-2.6-0.2-5.3-0.4-8.2-0.6c0.1,2.5,1.2,4.6,0.3,7.1c-1.1,2.9,0.8,4.4,3.7,5.1
				c6.1,1.5,6,1.6,7.3,8.2c-1.1,0.1-2.2,0.2-3.3,0.2c-4.9-0.1-8.7,0.5-7,7.2c0.7,2.5-0.2,5.4,0.2,8c0.6,5.4-2.4,6.1-6.8,6.5
				c-5.9,0.5-3.8-3.7-3.9-6.2C1370.1,360.2,1370.3,354.3,1370.3,348.3z M1362,345.1c1.1-3-0.1-6.5-1.5-9.8c-2.2-5.3-5.9-5.7-9.1-0.8
				c-4.9,7.5-3.4,15.9-2.1,23.9c0.8,4.4,6.6,4.5,9.6,0.7C1362.2,355,1361.7,350.3,1362,345.1z"/>
			<path d="M1425.4,282.1c0-2.2-0.4-3.8,0.1-4.9c1.2-2.7-0.1-7.4,3.4-8c3.4-0.7,2,4.7,4.7,6.2c2.6-2.3,0.7-4.3-0.9-6.4
				c4.4,1.4,8.3,2.1,12.6,1.3c6-1.1,9.5,3,10.6,8c1.2,5-0.7,10.2-5.5,12.6c-8.3,4.3-17.8,2.2-26.7,4c-1.3,0.3-1-1.7-1.6-2.5
				c-0.9-1.2-0.3-3.8-3.1-3.4c-2.2,0.3-2.7,1.7-3.2,3.6c-0.6,2.4-1.8,3.4-4.9,2.5c-2.2-0.6-4.9,1.1-7.5,1.7
				c-6.3,1.4-9.5-1.1-8.7-7.4c0.6-4.4,1.2-8.8,1.1-13.3c0-1.2-0.4-2.9,1.5-3.1c2-0.1,3.6,0.8,3.7,3c0.2,3.1,0,6.3,0.1,9.4
				c0.1,2.1-0.6,4.8,2.9,4.9c2.9,0.1,5.7,0.6,6.6-3.6c0.9-4.3,2.4-8.4,4-12.5c0.5-1.3,1.9-2.9,3.1-3.2c1.9-0.4,1.9,1.9,2.6,3.2
				C1421.8,276.6,1422,279.7,1425.4,282.1z"/>
			<path d="M1446.8,339.1c-0.1-13.3,10.9-23,24.5-21.9c2.9,0.2,4.2,1.1,3.7,4c-0.4,2.4-0.6,4.9-4.2,4.4c-5.9-0.7-8.6,2.7-10.7,7.8
				c-2.6,6.2,0.5,11.3,1.7,16.8c1.4,6.6,6.6,8,12.7,7.6c2.6-0.2,3.3,2,3.2,4.2c-0.2,3,0.2,6.3-3.4,7.8c-2.5,1-4.8,1.2-7.7,0.2
				C1453.9,365,1446.9,354.4,1446.8,339.1z"/>
			<path d="M1487.1,370.7c2.3-4.4,1.2-8.1,0.1-11.9c-3.1-11.6-0.2-23.6-2.4-35.3c-0.8-4.1,5-6.7,11.9-6.6c4.8,0.1,5.3,2.8,5.2,6.6
				c-0.1,2.7-1,4.4-3.8,4.4c-2.4,0-2.9,1.1-3,3.3c-0.1,2.5,0.9,4.1,3.2,4c6.8-0.2,5.9,5.8,7.5,9.5c0.8,1.8-2,2.3-3.7,2.1
				c-4.1-0.6-4.6,1.3-4.6,4.9c0,4.1,1.7,4.8,5.2,4.7c2.2,0,5.2-1.4,6.7,1.3c1.1,1.9-0.8,3.8-1.4,5.6c-0.4,1-2.5,2.4-3.1,2.1
				c-3.4-1.6-6.4,0.2-9.6,0.3C1491.9,365.7,1491.8,370.5,1487.1,370.7z"/>
			<path d="M1405.2,335.2c-0.1,2.3,0.1,4,3,4.2c1.9,0.1,3.7,1.6,5.6,1.7c2.7,0.1,3.8,0.8,3.5,3.7c-0.3,2.6-1.1,4.7-3.9,4.4
				c-6.5-0.7-7.4,3-6.9,8.2c0.2,2.2-0.3,4.5,0.1,6.7c1.1,5.1-2.5,6-5.9,6.4c-2.2,0.3-5.2,1.1-3-4.1c2.4-5.8,1.4-12.8,0.3-19.1
				c-1.1-6.9-0.8-13.8-0.8-20.7c0-4.7,2.2-7.2,7.3-6.8c4.7,0.3,9.3,0,14,0.1c2.2,0,4.1,0,4.5,3.4c0.9,7.9,1.2,7.9-7.1,7.3
				c-2-0.1-4,0.1-6,0C1406.4,330.4,1404.8,331.9,1405.2,335.2z"/>
			<path d="M1440.1,349.5c0,4.7,0.1,9.3,0,14c0,1.9,0.1,3.3-3,3.9c-5.4,1.1-6.9-0.4-6.4-5.6c0.9-8.5-0.9-16.8-1.2-25.3
				c-0.1-2.1-0.8-5.6,2.9-4.9c3,0.6,8.4-1.6,7.8,5.2C1439.8,341,1440.1,345.3,1440.1,349.5C1440.1,349.5,1440.1,349.5,1440.1,349.5z
				"/>
			<path d="M1435.6,327.9c-4.4,0.3-5.2-2.3-4.9-5.9c0.2-2.3-0.4-5.3,3.5-4.8c3.9,0.5,6.5,3.2,6.9,6.8
				C1441.6,327.5,1438.3,327.8,1435.6,327.9z"/>
			<path d="M1289.3,437.7c9.1-4.9,18.4-4.1,27.8-1.8C1307.8,436.6,1298.5,436.4,1289.3,437.7z"/>
			<path d="M1086,397.7c1.4-11.5,0.5-22.5,0.8-33.5c0.1-3.2-1.6-7,5.2-4.5c5.3,2,11.9,0.3,18,0.6c1.6,0.1,4.8-1.4,4.9,1.7
				c0.1,3.1,1.7,6.1,0.2,9.2c-0.2,0.4-1.5,0.8-1.5,0.8c-4.1-7.4-7.3,4.5-11.2,0.6c-0.6,0.6-1.4,1.1-1.7,1.8c-0.5,1.5,0.7,1.6,1.8,2
				c3.9,1.5,7.9,1.2,11.9,1.2c3.2,0,5.9,0.9,3.8,4.6c-1.8,3.3,4.2,7.9-1.5,9.9c-3.3,1.2-7-0.4-10.6-0.9c-1.9-0.2-5.3-1.9-5.9,2.1
				c-0.6,4.3,3,2.6,5,3.4c2.8,1,5.7,1,8.6,1.2c2.2,0.1,5.6-1.5,6.4,1.6c0.8,3.4,0.2,7.1,0.1,10.6c0,0.4-1,1.2-1.5,1.1
				c-6.3-1-12.3,2.5-18.6,0.8c-0.9-0.2-1.7-0.6-2.5-0.8c-3.2-0.6-7.5,1.6-9.5-1.3C1085.5,406.4,1086.5,401.4,1086,397.7z"/>
			<path d="M1283.9,409.3c46.2-4.6,92.7-2.8,139-6.3C1376.9,410.3,1330.3,408.5,1283.9,409.3z"/>
			<path d="M699.3,589.5c-7.3,0-14.7,0-22,0c0-0.2,0-0.4,0-0.5c7.3,0,14.6,0,21.9,0C699.3,589.1,699.3,589.3,699.3,589.5z"/>
			<path d="M1347.1,519.2c-0.3,6.8-2.5,12.4-8.3,17.6c-0.6-3.8,3.3-7.3-1.2-9.8c-3.1,2.2-1.4,8-7.6,9c4.3-4,2.1-7.7,1.1-11.4
				c-0.5,0.1-1,0-1.3,0.2c-2.9,1.6-4.2,7.8-8,5.3c-4.4-2.9-7.8-8-8.6-13.5c-0.5-3.5,0.9-7.3,1.5-11.4c2.6,1.5,3.4,3.5,3.4,6.1
				c0,1.8-0.1,3.6,0.1,5.4c0.5,3.2,2,7.1,5.1,6.9c2.8-0.2,2.6-4.3,2.9-7.2c0.3-2.3-2-5.8,1.9-6.9c2.4-0.7,4.4-3.6,7.3-1.8
				c2.6,1.7,1.1,4.5,1.4,6.8c0.4,3.6-1.9,8.6,4.9,8.3c-1.3-4.2-1.3-11.1,2.7-11.8c7.4-1.3,5,7.8,8.2,11.5c0.6-11.5,0.6-11.5,7.6-9.5
				c0.4-1.7-2.6-3.1-0.1-5.1c4.6-3.7-3.4-4.1-2.1-7.1c0.1-0.3-0.4-0.6-3.8,1c-1.5,0.7-3.2,1.1-4.4,0.2c-2.1-1.5-0.5-3,0.6-4.4
				c0.3-0.4,0.4-1.1,0.6-1.6c-8.6-1.6-0.7-9-4.4-12.4c-1.5-1.4,0.7-1.6,1.1-2.1c0.8-0.9,1.6-1.5,3.3-0.6c5.3,2.9,4.3,8,4.8,12.8
				c1.4-1.5,2.3-3.4,3.7-4c2.3-0.9,4.8-2.2,5.7,2.4c0.7,3.7-1.3,9.2,4.6,10.9c0.2,0.1,0.4,1,0.2,1.2c-5.7,6.4,1.2,13.9-2.1,20.9
				c-2.1,4.5-4.7,7.3-8.7,9.2c-1.1,0.5-3.2,0.9-3.4-0.7c-0.7-4.6-1.9-2-3.1-0.4c-0.9,1.1-1.4,3.3-3.4,2.1c-1.4-0.8-1.7-2.4-1.3-4.2
				C1348.9,527.4,1349.5,523.3,1347.1,519.2z"/>
			<path d="M1336.1,496.8c3.8-4,0-9.2,3.1-13.2c5.3,2.9,4.6,7.3,3.4,12c-1.3,5.3-6.1,4.2-9.6,5.5c-0.4,0.1-1.1,0-1.3-0.2
				c-5.9-7.3-7-3.4-7.2,3c0,1.3-1.2,1.9-2.4,1.6c-2.5-0.5-4.7-1.5-5.4-4.2c-2.5-8.9,1-16.1,9.7-19.8c5-2.1,7.1-0.8,7.6,4.8
				C1334.3,489.8,1332.9,493.6,1336.1,496.8z"/>
			<path d="M1623.4,473.8c0-8.7,0-17.4,0-26.1c0.2,8.6,1.4,17.3-0.1,25.9C1623.3,473.6,1623.4,473.8,1623.4,473.8z"/>
		</g>
	</g>
</g>
</svg>
